<?xml version="1.0" encoding="utf-8"?>
<!-- Generator: Adobe Illustrator 28.1.0, SVG Export Plug-In . SVG Version: 6.00 Build 0)  -->
<svg version="1.1" id="Layer_1" xmlns="http://www.w3.org/2000/svg" xmlns:xlink="http://www.w3.org/1999/xlink" x="0px" y="0px"
	 viewBox="0 0 22 22" style="enable-background:new 0 0 22 22;" xml:space="preserve">
<style type="text/css">
	.st0{fill:#FFFAF0;}
</style>
<path class="st0" d="M15.1,0c-3.9,0-6.9,1.8-6.9,4.1v2.4C7.8,6.4,7.3,6.4,6.9,6.4C3,6.4,0,8.2,0,10.5v7.3C0,20.2,3,22,6.9,22
	c3.1,0,5.7-1.2,6.6-2.9c0.5,0.1,1.1,0.1,1.7,0.1c3.9,0,6.9-1.8,6.9-4.1v-11C22,1.8,19,0,15.1,0z M15.1,1.8c2.9,0,5,1.2,5,2.3
	s-2.2,2.3-5,2.3s-5-1.2-5-2.3S12.2,1.8,15.1,1.8z M6.9,8.2c2.9,0,5,1.2,5,2.3c0,1.1-2.2,2.3-5,2.3s-5-1.2-5-2.3
	C1.8,9.5,4,8.2,6.9,8.2z M1.8,13.4c1.2,0.8,3,1.3,5,1.3s3.8-0.5,5-1.3v0.8c0,1.1-2.2,2.3-5,2.3s-5-1.2-5-2.3V13.4z M6.9,20.2
	c-2.9,0-5-1.2-5-2.3V17c1.2,0.8,3,1.3,5,1.3s3.8-0.5,5-1.3v0.8C11.9,19,9.8,20.2,6.9,20.2z M15.1,17.4c-0.5,0-0.9,0-1.4-0.1v-1.8
	c0.5,0.1,0.9,0.1,1.4,0.1c2,0,3.8-0.5,5-1.3v0.8C20.2,16.2,18,17.4,15.1,17.4z M15.1,13.8c-0.5,0-0.9,0-1.4-0.1v-1.8
	c0.5,0.1,0.9,0.1,1.4,0.1c2,0,3.8-0.5,5-1.3v0.8C20.2,12.5,18,13.8,15.1,13.8z M15.1,10.1c-0.5,0-1,0-1.4-0.1
	c-0.2-0.8-0.7-1.5-1.6-2.1c0.9,0.3,1.9,0.4,3,0.4c2,0,3.8-0.5,5-1.3v0.8C20.2,8.9,18,10.1,15.1,10.1L15.1,10.1z"/>
</svg>
