<?xml version="1.0" encoding="utf-8"?>
<!-- Generator: Adobe Illustrator 28.1.0, SVG Export Plug-In . SVG Version: 6.00 Build 0)  -->
<svg version="1.1" id="Layer_1" xmlns="http://www.w3.org/2000/svg" xmlns:xlink="http://www.w3.org/1999/xlink" x="0px" y="0px"
	 viewBox="0 0 24 27" style="enable-background:new 0 0 24 27;" xml:space="preserve">
<style type="text/css">
	.st0{fill:none;}
	.st1{fill:#FFFAF0;}
</style>
<g>
	<path class="st0" d="M3.8,22v0.8c0,1.1,2.2,2.3,5,2.3s5-1.2,5-2.3V22c-1.2,0.8-3,1.3-5,1.3S5.1,22.8,3.8,22z"/>
</g>
<g>
	<path class="st0" d="M3.8,18.4v0.8c0,1.1,2.2,2.3,5,2.3s5-1.2,5-2.3v-0.8c-1.2,0.8-3,1.3-5,1.3S5.1,19.2,3.8,18.4z"/>
</g>
<g>
	<path class="st0" d="M17.1,11.4c2.9,0,5-1.2,5-2.3s-2.2-2.3-5-2.3c-0.3,0-0.7,0-1,0.1v4.5C16.5,11.4,16.8,11.4,17.1,11.4z"/>
</g>
<g>
	<path class="st0" d="M15.7,15c0.5,0.1,0.9,0.1,1.4,0.1l0,0c2.9,0,5-1.2,5-2.3V12c-1.2,0.8-3,1.3-5,1.3c-0.3,0-0.7,0-1-0.1
		c-0.1,0.5-0.2,1.1-0.5,1.5C15.6,14.8,15.7,14.9,15.7,15z"/>
</g>
<g>
	<path class="st0" d="M12.9,16.2H4.1l0,0c0,0,0,0-0.1,0c0.6,0.9,2.5,1.7,4.8,1.7c2.5,0,4.4-0.9,4.9-1.8
		C13.5,16.1,13.2,16.1,12.9,16.2L12.9,16.2z"/>
</g>
<g>
	<path class="st0" d="M15.8,20.5v1.8c0.4,0.1,0.9,0.1,1.4,0.1c2.9,0,5-1.2,5-2.3v-0.8c-1.2,0.8-3,1.3-5,1.3
		C16.7,20.6,16.2,20.5,15.8,20.5z"/>
</g>
<g>
	<path class="st0" d="M15.8,16.8v1.8c0.4,0.1,0.9,0.1,1.4,0.1c2.9,0,5-1.2,5-2.3v-0.8c-1.2,0.8-3,1.3-5,1.3
		C16.7,16.9,16.2,16.9,15.8,16.8z"/>
</g>
<g>
	<path class="st0" d="M14.1,4.2c-0.3-0.3-0.8-0.5-1.2-0.5H4.1c-0.5,0-0.9,0.2-1.2,0.5C2.7,4.4,2.5,4.7,2.4,5h12.1
		C14.5,4.7,14.3,4.4,14.1,4.2z"/>
</g>
<g>
	<path class="st1" d="M17.1,5c-0.2,0-0.5,0-0.7,0v0h-0.1c-0.1-0.8-0.5-1.5-0.9-2c-0.7-0.7-1.5-1-2.4-1h-0.4V1.6
		c0-0.2-0.1-0.4-0.1-0.5l0,0l-0.2-0.2l0,0c-0.1-0.1-0.3-0.1-0.5-0.1c-0.3,0-0.5,0.1-0.6,0.2c-0.1,0.1-0.2,0.4-0.2,0.6V2H6.4V1.6
		c0-0.2-0.1-0.5-0.2-0.6L6,0.9l0,0C5.9,0.8,5.6,0.6,5.4,0.6C5.2,0.6,4.9,0.8,4.7,1C4.6,1.1,4.5,1.4,4.5,1.6V2H4.1
		c-1,0-1.8,0.4-2.4,1c-0.7,0.7-1,1.5-1,2.4v7.5c0,1,0.4,1.8,1,2.4l0.2,0.2v0l0,0L2,15.6v7C2,25.2,5,27,8.9,27c3.1,0,5.7-1.2,6.6-2.9
		c0.5,0.1,1.1,0.1,1.7,0.1c3.9,0,6.9-1.8,6.9-4.1v-11C24,6.8,21,5,17.1,5z M22.1,9c0,1.1-2.2,2.3-5,2.3c-0.2,0-0.5,0-0.7-0.1V7V6.8
		c0.2,0,0.5-0.1,0.7-0.1C20,6.7,22.1,7.9,22.1,9z M2.8,13.7c-0.2-0.3-0.3-0.5-0.3-0.8V7.5h8.1l-0.1,0.1H14l0,0
		c0.1,0,0.2-0.1,0.3-0.1h0.1v3.3v0.4v1.5V13v0.2c-0.1,0.3-0.2,0.6-0.5,0.8c-0.2,0.2-0.5,0.4-0.7,0.4h-0.4l0.1,0.1c0,0-0.1,0-0.1,0
		H4.4H4.1c-0.4,0-0.8-0.2-1.1-0.5l-0.1-0.1l0,0L2.8,13.7z M14.4,5.3v0.1v0.3h-1.2l0.2-0.1H2.5V5C2.6,4.8,2.7,4.5,3,4.3
		C3.3,4,3.7,3.9,4.1,3.9h8.8c0.4,0,0.8,0.2,1.1,0.5c0.2,0.2,0.4,0.5,0.5,0.7V5.3z M12.9,16.2c0.2,0,0.3,0,0.5-0.1c0,0,0.1,0,0.1,0
		c-0.8,0.8-2.5,1.4-4.6,1.4c-2.1,0-3.7-0.6-4.5-1.3H12.9z M15.7,14.8C15.7,14.8,15.7,14.8,15.7,14.8C15.7,14.8,15.7,14.8,15.7,14.8
		L15.7,14.8c0.3-0.5,0.5-1,0.5-1.4l0,0v-0.2v-0.1v0c0.3,0,0.6,0.1,0.8,0.1c2,0,3.8-0.5,5-1.3v0.8c0,1.1-2.2,2.3-5,2.3
		C16.6,14.9,16.1,14.9,15.7,14.8L15.7,14.8z M13.9,22.9c0,1.1-2.2,2.3-5,2.3c-2.8,0-5-1.2-5-2.3V22c1.2,0.8,3,1.3,5,1.3
		s3.8-0.5,5-1.3V22.9z M13.9,19.2c0,1.1-2.2,2.3-5,2.3c-2.8,0-5-1.2-5-2.3v-0.8c1.2,0.8,3,1.3,5,1.3s3.8-0.5,5-1.3V19.2z M22.2,20.1
		c0,1.1-2.2,2.3-5,2.3c-0.5,0-0.9,0-1.4-0.1v-1.8c0.5,0.1,0.9,0.1,1.4,0.1c2,0,3.8-0.5,5-1.3V20.1z M22.2,16.5c0,1.1-2.2,2.3-5,2.3
		c-0.5,0-0.9,0-1.4-0.1v-1.8c0.5,0.1,0.9,0.1,1.4,0.1c2,0,3.8-0.5,5-1.3V16.5z"/>
	<circle class="st1" cx="5.4" cy="10.4" r="1.2"/>
	<circle class="st1" cx="8.5" cy="10.4" r="1.2"/>
	<circle class="st1" cx="11.6" cy="10.4" r="1.2"/>
</g>
</svg>
