<?xml version="1.0" encoding="utf-8"?>
<!-- Generator: Adobe Illustrator 28.1.0, SVG Export Plug-In . SVG Version: 6.00 Build 0)  -->
<svg version="1.1" id="Layer_1" xmlns="http://www.w3.org/2000/svg" xmlns:xlink="http://www.w3.org/1999/xlink" x="0px" y="0px"
	 viewBox="0 0 13 13" style="enable-background:new 0 0 13 13;" xml:space="preserve">
<style type="text/css">
	.st0{fill:#212121;stroke:#212121;stroke-width:0.2;}
</style>
<path class="st0" d="M5.5,8.1C5.6,8.2,5.9,8.2,6,8.2l0.2-0.1L5.5,8.1z M5.5,8.1L4.3,6.8c-0.2-0.2-0.2-0.5,0-0.7C4.5,6,4.8,6,5,6.2
	l0.9,0.9L8,4.9c0.2-0.2,0.5-0.2,0.7,0c0.2,0.2,0.2,0.5,0,0.7L6.2,8.1l0,0L6.1,8 M5.5,8.1l0.3,0c0.1,0,0.2,0,0.3-0.1 M6.1,8l2.5-2.5
	c0.1-0.1,0.1-0.4,0-0.5C8.5,4.8,8.2,4.8,8.1,5L5.9,7.1L6.1,8z M5.5,11.8L5.5,11.8c0.3,0.2,0.6,0.3,1,0.3c0.3,0,0.7-0.1,1-0.4
	c0,0,0,0,0,0l0.8-0.7c0,0,0.1-0.1,0.2-0.1c0.1,0,0.1,0,0.2,0h0.9c0.8,0,1.5-0.7,1.5-1.5V8.6c0,0,0-0.1,0-0.2c0-0.1,0.1-0.1,0.1-0.2
	l0,0l0.7-0.8l0,0c0.5-0.5,0.5-1.4,0-1.9l0,0l-0.7-0.8l0,0c0,0-0.1-0.1-0.1-0.2c0-0.1,0-0.1,0-0.2V3.5c0-0.8-0.7-1.5-1.5-1.5H8.6
	c0,0-0.1,0-0.2,0C8.3,2,8.3,2,8.3,1.9l0,0L7.5,1.2l0,0c-0.5-0.5-1.4-0.5-1.9,0l0,0L4.7,1.9C4.7,2,4.6,2,4.6,2c-0.1,0-0.1,0-0.2,0
	H3.5C2.7,2.1,2,2.7,2,3.5v0.9c0,0,0,0.1,0,0.2C2,4.7,2,4.7,1.9,4.7h0l0,0L1.2,5.6l0,0c-0.5,0.5-0.5,1.4,0,1.9l0,0l0.7,0.8h0l0,0
	C2,8.3,2,8.4,2,8.4c0,0.1,0,0.1,0,0.2v0.9c0,0.4,0.2,0.8,0.4,1s0.6,0.4,1,0.4h0.9c0,0,0.1,0,0.2,0c0.1,0,0.1,0.1,0.2,0.1l0,0
	L5.5,11.8z M2,6.2L2,6.2l0.7-0.8c0,0,0,0,0,0C2.9,5.1,3,4.7,3,4.4V3.5C3,3.3,3.2,3,3.5,3h0.9c0.3,0,0.7-0.1,1-0.4l0,0l0,0L6.2,2
	c0,0,0,0,0,0c0.1-0.1,0.2-0.1,0.3-0.1c0.1,0,0.2,0,0.3,0.1c0,0,0,0,0,0l0.8,0.7c0,0,0,0,0,0C7.9,2.9,8.3,3,8.6,3h0.9
	C9.7,3,10,3.3,10,3.5v0.9c0,0.3,0.1,0.7,0.4,1L11,6.2c0,0,0,0,0,0c0.1,0.1,0.1,0.2,0.1,0.3c0,0.1,0,0.2-0.1,0.3c0,0,0,0,0,0
	l-0.7,0.8c-0.2,0.2-0.4,0.6-0.4,1v0.9C10,9.7,9.7,10,9.5,10H8.6c-0.3,0-0.7,0.2-1,0.4h0l0,0L6.8,11c0,0,0,0,0,0
	c-0.1,0.1-0.2,0.1-0.3,0.1c-0.1,0-0.2,0-0.3-0.1c0,0,0,0,0,0l-0.8-0.7l-0.1,0.1l0.1-0.1l0,0c-0.2-0.2-0.6-0.4-1-0.4H3.5
	C3.2,10,3,9.7,3,9.5V8.6c0-0.3-0.1-0.7-0.4-0.9l0,0L2,6.8l0,0C1.9,6.7,1.9,6.6,1.9,6.5C1.9,6.4,1.9,6.3,2,6.2z M5.9,7.1l0.3,1
	l2.5-2.5l0.1-0.4L8.4,4.9L8.1,5L5.9,7.1z"/>
</svg>
