<?xml version="1.0" encoding="utf-8"?>
<!-- Generator: Adobe Illustrator 28.1.0, SVG Export Plug-In . SVG Version: 6.00 Build 0)  -->
<svg version="1.1" id="Layer_1" xmlns="http://www.w3.org/2000/svg" xmlns:xlink="http://www.w3.org/1999/xlink" x="0px" y="0px"
	 viewBox="0 0 27 27" style="enable-background:new 0 0 27 27;" xml:space="preserve">
<style type="text/css">
	.st0{fill:#212121;}
	.st1{fill-rule:evenodd;clip-rule:evenodd;fill:#212121;}
</style>
<path class="st0" d="M22.5,8.6c0-1.1-0.2-2.3-0.7-3.3c-0.4-1.1-1.1-2-1.9-2.8L19.3,3c0.7,0.7,1.3,1.6,1.7,2.5c0.4,1,0.6,2,0.6,3
	c0,4.3-3.5,7.8-7.8,7.8c-4.3,0-7.8-3.5-7.8-7.8c0-4.3,3.5-7.8,7.8-7.8c1.7,0,3.3,0.5,4.7,1.6l0.5-0.7C17.6,0.6,15.8,0,13.9,0
	C9.1,0,5.3,3.9,5.3,8.6c0,4.7,3.9,8.6,8.6,8.6C18.6,17.2,22.5,13.4,22.5,8.6z"/>
<path class="st0" d="M9.2,4.7c-0.8,1-1.3,2.2-1.4,3.5l0.8,0.1c0.1-1.1,0.5-2.2,1.2-3L9.2,4.7z M7.8,9.1c0.1,1.3,0.6,2.5,1.4,3.5
	L9.8,12c-0.7-0.9-1.2-1.9-1.2-3L7.8,9.1z M13.5,14.8l0.1-0.8c-1.1-0.1-2.2-0.5-3-1.2l-0.5,0.6C10.9,14.2,12.2,14.7,13.5,14.8z
	 M17.8,13.3l-0.5-0.6c-0.9,0.7-1.9,1.2-3,1.2l0.1,0.8C15.6,14.7,16.9,14.2,17.8,13.3z M18,12l0.6,0.5c0.8-1,1.3-2.2,1.4-3.5L19.2,9
	C19.1,10.1,18.7,11.2,18,12z M18.6,4.7L18,5.2c0.7,0.9,1.2,1.9,1.2,3L20,8.2C19.9,6.9,19.4,5.6,18.6,4.7z M14.3,2.5l-0.1,0.8
	c1.1,0.1,2.2,0.5,3,1.2l0.5-0.6C16.9,3.1,15.6,2.6,14.3,2.5z M9.9,3.9l0.5,0.6c0.9-0.7,1.9-1.2,3-1.2l-0.1-0.8
	C12.2,2.6,10.9,3.1,9.9,3.9z M13.5,1.2h0.8v0.8h-0.8V1.2z M13.5,15.2h0.8V16h-0.8V15.2z M6.5,8.2h0.8V9H6.5V8.2z M20.5,8.2h0.8V9
	h-0.8V8.2z M9,17L7.4,16c-0.3-0.2-0.7-0.4-1.1-0.4c-0.4,0-0.8,0.1-1.1,0.3L4.4,9.9c0-0.4-0.2-0.7-0.4-1.1C3.8,8.5,3.6,8.2,3.3,8
	C3,7.7,2.6,7.6,2.2,7.5C1.9,7.4,1.5,7.4,1.1,7.4C1,7.4,0.9,7.5,0.9,7.6C0.8,7.7,0.8,7.8,0.8,7.9l0.1,0.8L2,18.1c0,0.1,0,0.1,0.1,0.2
	l4,5.2v2.3c0,0.1,0,0.2,0.1,0.3c0.1,0.1,0.2,0.1,0.3,0.1h4.1c0.1,0,0.2,0,0.3-0.1C11,26.1,11,26,11,25.8V23h-0.8v2.5H6.9v-2.1
	c0-0.1,0-0.2-0.1-0.3l-4-5.2L1.7,8.6l0,0l0-0.3c0.4,0,0.8,0.2,1.1,0.4C3,8.8,3.2,9,3.3,9.2C3.4,9.4,3.5,9.7,3.5,10l0.9,6.9
	c0,0.1,0,0.1,0.1,0.2l0,0l0,0l2.1,2.5c0.1,0.1,0.2,0.1,0.3,0.1c0.1,0,0.2,0,0.3-0.1c0.1-0.1,0.1-0.2,0.1-0.3c0-0.1,0-0.2-0.1-0.3
	l-1.9-2.2c0.2-0.2,0.5-0.3,0.8-0.4c0.3,0,0.6,0,0.8,0.2l1.6,1.1c1,0.7,1.7,2.1,1.7,2.8v1.6H11v-1.6C11,19.5,10.2,17.8,9,17z
	 M26.6,7.4c-0.4-0.1-0.8,0-1.1,0.1s-0.7,0.3-1,0.5c-0.3,0.2-0.6,0.5-0.7,0.8c-0.2,0.3-0.3,0.7-0.4,1.1l-0.8,6.1
	c-0.3-0.2-0.7-0.3-1.1-0.3c-0.4,0-0.8,0.1-1.1,0.4L18.8,17c-1.2,0.8-2,2.5-2,3.5v5.3c0,0.1,0,0.2,0.1,0.3c0.1,0.1,0.2,0.1,0.3,0.1
	h4.1c0.1,0,0.2,0,0.3-0.1c0.1-0.1,0.1-0.2,0.1-0.3v-2.3l4-5.2c0-0.1,0.1-0.1,0.1-0.2l0.4-3.7l-0.8-0.1L25,17.9l-4,5.2
	c-0.1,0.1-0.1,0.2-0.1,0.3v2.1h-3.3v-4.9c0-0.7,0.7-2.1,1.7-2.8l1.6-1.1c0.2-0.2,0.5-0.2,0.8-0.2c0.3,0,0.6,0.2,0.8,0.4L20.5,19
	c-0.1,0.1-0.1,0.2-0.1,0.3c0,0.1,0.1,0.2,0.1,0.3c0.1,0.1,0.2,0.1,0.3,0.1c0.1,0,0.2-0.1,0.3-0.1l2.1-2.5l0,0l0,0
	c0-0.1,0.1-0.1,0.1-0.2l0.9-6.9c0.1-0.5,0.3-0.9,0.6-1.2s0.8-0.5,1.3-0.5l0,0.3l0,0l-0.6,4.9l0.8,0.1l0.6-4.9L27,7.9
	c0-0.1,0-0.2-0.1-0.3C26.9,7.5,26.8,7.4,26.6,7.4z"/>
<path class="st1" d="M13.9,6.2c-0.3,0-0.7,0.3-0.7,0.7c0,0.3,0.3,0.6,0.7,0.6c0.3,0,0.7-0.3,0.7-0.7C14.5,6.4,14.3,6.2,13.9,6.2z
	 M13.9,7.2c-0.1,0-0.2,0-0.3-0.1c-0.1,0-0.1-0.1-0.2-0.2c0-0.1,0-0.2,0-0.3c0-0.1,0.1-0.2,0.1-0.2c0.1-0.1,0.2-0.1,0.2-0.1
	c0.1,0,0.2,0,0.3,0s0.2,0.1,0.2,0.2c0.1,0.1,0.1,0.2,0.1,0.3c0,0.1-0.1,0.2-0.1,0.3C14.1,7.1,14,7.2,13.9,7.2z M17.1,7.9
	c-0.1-0.2-0.3-0.3-0.5-0.3c-0.6,0-1.1,0.6-1.5,1.3c-0.1-0.3-0.3-0.4-0.4-0.7c-0.3-0.3-0.5-0.3-0.8-0.3c-0.3,0-0.5,0.1-0.8,0.3
	C13,8.4,12.7,8.8,12.7,9c-0.4-0.6-0.9-1.2-1.5-1.2c-0.3,0-0.4,0.1-0.5,0.3c-0.1,0.1-0.2,0.3-0.2,0.5c0,0.2,0,0.3,0.1,0.5l0,0
	c0,0.2,0,0.4,0.1,0.6l0,0v0.1c0.3,1.5,1.7,2.7,3.3,2.7c1.8,0,3.4-1.5,3.4-3.4l0,0c0.1-0.2,0.1-0.3,0.1-0.5
	C17.3,8.3,17.3,8.1,17.1,7.9z M16.9,9.7c-0.3,0.3-0.5,0.5-0.8,0.5c-0.3,0-0.6-0.3-0.8-0.6c0,0.5-0.1,1-0.3,1.4
	c0.3-0.1,0.7-0.3,1-0.3C16.5,10.5,16.8,10.1,16.9,9.7z M15.1,9.5c-0.3,0.4-0.8,0.9-1.2,0.9c-0.4,0-0.8-0.4-1.2-0.9
	c0,0.6,0.1,1.2,0.3,1.7c0.3,0.1,0.6,0.1,0.8,0.1c0.3,0,0.6,0,0.9-0.1C14.9,10.6,15.1,10,15.1,9.5z M12.5,9.6
	c-0.3,0.3-0.5,0.6-0.8,0.6c-0.3,0-0.5-0.2-0.8-0.5c0.2,0.3,0.4,0.7,0.9,1c0.3,0.2,0.6,0.3,0.9,0.3C12.6,10.6,12.5,10.1,12.5,9.6z
	 M12.8,9.2c0.3-0.4,0.7-1,1.1-1c0.4,0,0.8,0.5,1.1,1c-0.3,0.4-0.8,0.9-1.1,0.9S13.3,9.8,13,9.4C12.9,9.3,12.8,9.2,12.8,9.2z
	 M16.8,9.5c-0.2,0.3-0.4,0.5-0.6,0.5c-0.3,0-0.6-0.4-0.8-0.8l0,0C15.8,8.6,16.2,8,16.7,8c0.3,0,0.4,0.2,0.4,0.5
	C17,8.8,16.9,9.2,16.8,9.5z M11.7,10c-0.2,0-0.4-0.2-0.6-0.5c-0.3-0.3-0.3-0.8-0.3-1c0-0.3,0.2-0.5,0.4-0.5c0.5-0.1,0.9,0.5,1.3,1.1
	l0,0l0,0C12.2,9.6,12,10,11.7,10z M16,6.8c0-0.3,0.3-0.7,0.7-0.7c0.3,0,0.7,0.3,0.7,0.7c-0.1,0.3-0.3,0.7-0.7,0.7
	C16.4,7.4,16,7.1,16,6.8z M16.4,7.1c0.1,0.1,0.2,0.1,0.3,0.1c0.1,0,0.2-0.1,0.3-0.1C17,7,17,6.9,17,6.9c0-0.1,0-0.2-0.1-0.3
	c-0.1-0.1-0.1-0.1-0.2-0.2c-0.1,0-0.2,0-0.3,0c-0.1,0-0.2,0.1-0.2,0.1c-0.1,0.1-0.1,0.2-0.1,0.2c0,0.1,0,0.2,0,0.3
	C16.4,7,16.4,7.1,16.4,7.1z M11.2,6.2c-0.3,0-0.7,0.3-0.7,0.6s0.3,0.7,0.7,0.7s0.7-0.3,0.7-0.7C11.7,6.4,11.5,6.2,11.2,6.2z
	 M11.2,7.2c-0.1,0-0.2,0-0.3-0.1c-0.1,0-0.1-0.1-0.2-0.2c-0.1-0.1,0-0.2,0-0.3c0-0.1,0.1-0.2,0.1-0.2C10.9,6.4,11,6.4,11,6.4
	c0.1,0,0.2,0,0.3,0c0.1,0,0.2,0.1,0.2,0.2c0.1,0,0.2,0.1,0.2,0.2c0,0.1-0.1,0.2-0.1,0.3C11.3,7.1,11.2,7.2,11.2,7.2z M13.3,12.1
	c-0.8-0.2-1.6-0.7-2.1-1.4c0.2,0.1,0.3,0.2,0.4,0.3c0.3,0.2,0.8,0.3,1.2,0.4c0,0,0,0,0,0.1C13,11.6,13.2,11.9,13.3,12.1L13.3,12.1z
	 M13.5,11.9c-0.1-0.1-0.3-0.3-0.3-0.5c0.3,0,0.5,0.1,0.8,0.1s0.5,0,0.8-0.1c-0.1,0.3-0.3,0.4-0.3,0.5c-0.2,0.2-0.3,0.2-0.4,0.2
	C13.8,12.1,13.6,12.1,13.5,11.9z M14.9,11.4C14.9,11.4,14.9,11.3,14.9,11.4c0.5-0.2,0.8-0.3,1.2-0.5c0.2-0.1,0.3-0.2,0.4-0.3
	c-0.4,0.8-1.2,1.3-2.1,1.4l0,0C14.7,11.9,14.8,11.6,14.9,11.4z"/>
</svg>
