<?xml version="1.0" encoding="utf-8"?>
<!-- Generator: Adobe Illustrator 28.1.0, SVG Export Plug-In . SVG Version: 6.00 Build 0)  -->
<svg version="1.1" id="Layer_1" xmlns="http://www.w3.org/2000/svg" xmlns:xlink="http://www.w3.org/1999/xlink" x="0px" y="0px"
	 viewBox="0 0 27 27" style="enable-background:new 0 0 27 27;" xml:space="preserve">
<style type="text/css">
	.st0{fill:url(#SVGID_1_);}
	.st1{fill:url(#SVGID_00000075867970309510520710000010190654478089078712_);}
	.st2{fill-rule:evenodd;clip-rule:evenodd;fill:url(#SVGID_00000048482944771644488670000008867215171352522643_);}
</style>
<linearGradient id="SVGID_1_" gradientUnits="userSpaceOnUse" x1="13.9" y1="26.3843" x2="13.9" y2="1.8536">
	<stop  offset="0" style="stop-color:#F7D365"/>
	<stop  offset="0.502" style="stop-color:#EA4683"/>
	<stop  offset="1" style="stop-color:#735FA1"/>
</linearGradient>
<path class="st0" d="M22.5,8.6c0-1.1-0.2-2.3-0.7-3.3c-0.4-1.1-1.1-2-1.9-2.8L19.3,3C20,3.7,20.6,4.6,21,5.5c0.4,1,0.6,2,0.6,3
	c0,4.3-3.5,7.8-7.8,7.8S6,12.8,6,8.5s3.5-7.8,7.8-7.8c1.7,0,3.3,0.5,4.7,1.6L19,1.6c-1.4-1-3.2-1.6-5.1-1.6C9.1,0,5.3,3.9,5.3,8.6
	s3.9,8.6,8.6,8.6S22.5,13.4,22.5,8.6z"/>
<linearGradient id="SVGID_00000172424933151939146820000005025666121614047415_" gradientUnits="userSpaceOnUse" x1="13.9" y1="26.3843" x2="13.9" y2="1.8536">
	<stop  offset="0" style="stop-color:#F7D365"/>
	<stop  offset="0.502" style="stop-color:#EA4683"/>
	<stop  offset="1" style="stop-color:#735FA1"/>
</linearGradient>
<path style="fill:url(#SVGID_00000172424933151939146820000005025666121614047415_);" d="M9.2,4.7c-0.8,1-1.3,2.2-1.4,3.5l0.8,0.1
	c0.1-1.1,0.5-2.2,1.2-3L9.2,4.7z M7.8,9.1c0.1,1.3,0.6,2.5,1.4,3.5L9.8,12c-0.7-0.9-1.2-1.9-1.2-3L7.8,9.1z M13.5,14.8l0.1-0.8
	c-1.1-0.1-2.2-0.5-3-1.2l-0.5,0.6C10.9,14.2,12.2,14.7,13.5,14.8z M17.8,13.3l-0.5-0.6c-0.9,0.7-1.9,1.2-3,1.2l0.1,0.8
	C15.6,14.7,16.9,14.2,17.8,13.3z M18,12l0.6,0.5c0.8-1,1.3-2.2,1.4-3.5h-0.8C19.1,10.1,18.7,11.2,18,12z M18.6,4.7L18,5.2
	c0.7,0.9,1.2,1.9,1.2,3H20C19.9,6.9,19.4,5.6,18.6,4.7z M14.3,2.5l-0.1,0.8c1.1,0.1,2.2,0.5,3,1.2l0.5-0.6
	C16.9,3.1,15.6,2.6,14.3,2.5z M9.9,3.9l0.5,0.6c0.9-0.7,1.9-1.2,3-1.2l-0.1-0.8C12.2,2.6,10.9,3.1,9.9,3.9z M13.5,1.2h0.8V2h-0.8
	V1.2z M13.5,15.2h0.8V16h-0.8V15.2z M6.5,8.2h0.8V9H6.5V8.2z M20.5,8.2h0.8V9h-0.8V8.2z M9,17l-1.6-1c-0.3-0.2-0.7-0.4-1.1-0.4
	s-0.8,0.1-1.1,0.3l-0.8-6c0-0.4-0.2-0.7-0.4-1.1C3.8,8.5,3.6,8.2,3.3,8C3,7.7,2.6,7.6,2.2,7.5C1.9,7.4,1.5,7.4,1.1,7.4
	C1,7.4,0.9,7.5,0.9,7.6C0.8,7.7,0.8,7.8,0.8,7.9l0.1,0.8L2,18.1c0,0.1,0,0.1,0.1,0.2l4,5.2v2.3c0,0.1,0,0.2,0.1,0.3
	c0.1,0.1,0.2,0.1,0.3,0.1h4.1c0.1,0,0.2,0,0.3-0.1c0.1,0,0.1-0.1,0.1-0.3V23h-0.8v2.5H6.9v-2.1c0-0.1,0-0.2-0.1-0.3l-4-5.2L1.7,8.6
	l0,0V8.3c0.4,0,0.8,0.2,1.1,0.4C3,8.8,3.2,9,3.3,9.2C3.4,9.4,3.5,9.7,3.5,10l0.9,6.9c0,0.1,0,0.1,0.1,0.2l0,0l0,0l2.1,2.5
	c0.1,0.1,0.2,0.1,0.3,0.1c0.1,0,0.2,0,0.3-0.1c0.1-0.1,0.1-0.2,0.1-0.3c0-0.1,0-0.2-0.1-0.3l-1.9-2.2c0.2-0.2,0.5-0.3,0.8-0.4
	c0.3,0,0.6,0,0.8,0.2l1.6,1.1c1,0.7,1.7,2.1,1.7,2.8v1.6H11v-1.6C11,19.5,10.2,17.8,9,17z M26.6,7.4c-0.4-0.1-0.8,0-1.1,0.1
	s-0.7,0.3-1,0.5s-0.6,0.5-0.7,0.8c-0.2,0.3-0.3,0.7-0.4,1.1L22.6,16c-0.3-0.2-0.7-0.3-1.1-0.3s-0.8,0.1-1.1,0.4L18.8,17
	c-1.2,0.8-2,2.5-2,3.5v5.3c0,0.1,0,0.2,0.1,0.3c0.1,0.1,0.2,0.1,0.3,0.1h4.1c0.1,0,0.2,0,0.3-0.1c0.1-0.1,0.1-0.2,0.1-0.3v-2.3
	l4-5.2c0-0.1,0.1-0.1,0.1-0.2l0.4-3.7l-0.8-0.1L25,17.9l-4,5.2c-0.1,0.1-0.1,0.2-0.1,0.3v2.1h-3.3v-4.9c0-0.7,0.7-2.1,1.7-2.8
	l1.6-1.1c0.2-0.2,0.5-0.2,0.8-0.2s0.6,0.2,0.8,0.4l-2,2.1c-0.1,0.1-0.1,0.2-0.1,0.3c0,0.1,0.1,0.2,0.1,0.3c0.1,0.1,0.2,0.1,0.3,0.1
	c0.1,0,0.2-0.1,0.3-0.1l2.1-2.5l0,0l0,0c0-0.1,0.1-0.1,0.1-0.2l0.9-6.9c0.1-0.5,0.3-0.9,0.6-1.2s0.8-0.5,1.3-0.5v0.3l0,0l-0.6,4.9
	l0.8,0.1l0.6-4.9L27,7.9c0-0.1,0-0.2-0.1-0.3C26.9,7.5,26.8,7.4,26.6,7.4z"/>
<linearGradient id="SVGID_00000006699843142399222350000009253024410840285631_" gradientUnits="userSpaceOnUse" x1="13.9185" y1="22.356" x2="13.9185" y2="15.2428" gradientTransform="matrix(1 0 0 -1 0 28)">
	<stop  offset="0" style="stop-color:#F7D365"/>
	<stop  offset="0.502" style="stop-color:#EA4683"/>
	<stop  offset="1" style="stop-color:#735FA1"/>
</linearGradient>
<path style="fill-rule:evenodd;clip-rule:evenodd;fill:url(#SVGID_00000006699843142399222350000009253024410840285631_);" d="
	M13.9,5.6c-0.4,0-0.7,0.3-0.7,0.7c0,0.4,0.3,0.7,0.7,0.7c0.4,0,0.7-0.3,0.7-0.7C14.6,6,14.3,5.6,13.9,5.6z M13.9,6.8
	c-0.1,0-0.2,0-0.3-0.1c-0.1-0.1-0.1-0.1-0.2-0.2c0-0.1,0-0.2,0-0.3c0-0.1,0.1-0.2,0.1-0.2c0.1-0.1,0.1-0.1,0.2-0.1
	c0.1,0,0.2,0,0.3,0c0.1,0,0.2,0.1,0.2,0.2c0.1,0.1,0.1,0.2,0.1,0.3c0,0.1,0,0.2-0.1,0.3C14.2,6.8,14,6.8,13.9,6.8z M17.6,7.7
	c-0.1-0.2-0.3-0.3-0.6-0.3c-0.7,0-1.2,0.7-1.7,1.4c-0.2-0.3-0.3-0.5-0.5-0.7c-0.3-0.3-0.6-0.5-0.9-0.5c-0.3,0-0.6,0.1-0.9,0.5
	c-0.1,0.2-0.4,0.5-0.5,0.7c-0.5-0.7-1-1.4-1.7-1.4c-0.3,0-0.5,0.1-0.6,0.3C10.1,7.9,10,8.1,10,8.4c0,0.2,0,0.4,0.1,0.6h0
	c0,0.2,0,0.4,0.1,0.6l0,0c0,0,0,0.1,0,0.1c0.3,1.8,1.9,3.1,3.7,3.1c2.1,0,3.8-1.7,3.8-3.8h0c0.1-0.2,0.1-0.4,0.1-0.6
	C17.8,8.1,17.8,7.9,17.6,7.7z M17.4,9.8c-0.3,0.4-0.6,0.6-0.9,0.6c-0.4,0-0.7-0.3-0.9-0.7c0,0.6-0.1,1.1-0.3,1.6
	c0.4-0.1,0.8-0.2,1.1-0.4C16.9,10.5,17.2,10.2,17.4,9.8z M15.3,9.4c-0.4,0.5-0.9,1-1.3,1c-0.5,0-0.9-0.5-1.3-1
	c0,0.7,0.1,1.4,0.3,1.9c0.3,0.1,0.6,0.1,1,0.1c0.4,0,0.7,0,1-0.1C15.1,10.8,15.2,10.1,15.3,9.4z M12.3,9.6c-0.3,0.4-0.6,0.7-0.9,0.7
	c-0.3,0-0.6-0.2-0.9-0.6c0.1,0.4,0.5,0.8,1,1.1c0.3,0.2,0.7,0.3,1.1,0.4C12.4,10.8,12.3,10.2,12.3,9.6z M12.7,9.1
	c0.3-0.5,0.8-1.2,1.3-1.2c0.5,0,0.9,0.6,1.3,1.2c-0.4,0.5-0.9,1.1-1.3,1.1c-0.4,0-0.7-0.4-1.1-0.9C12.8,9.2,12.7,9.2,12.7,9.1z
	 M17.2,9.5c-0.2,0.4-0.5,0.6-0.7,0.6c-0.4,0-0.7-0.5-1-1c0,0,0,0,0,0c0.5-0.7,1-1.4,1.5-1.4c0.3,0,0.5,0.2,0.5,0.6
	C17.5,8.7,17.4,9.1,17.2,9.5z M11.4,10.1c-0.2,0-0.5-0.2-0.7-0.6c-0.2-0.4-0.3-0.8-0.3-1.2c0-0.4,0.2-0.6,0.5-0.6
	c0.6,0,1.1,0.7,1.5,1.4c0,0,0,0,0,0c0,0,0,0,0,0C12,9.6,11.7,10.1,11.4,10.1z M16.4,6.4c0-0.4,0.3-0.7,0.7-0.7
	c0.4,0,0.7,0.3,0.7,0.7c0,0.4-0.3,0.7-0.7,0.7C16.7,7.1,16.4,6.8,16.4,6.4z M16.8,6.8c0.1,0.1,0.2,0.1,0.3,0.1c0.1,0,0.2,0,0.3-0.1
	c0.1-0.1,0.1-0.2,0.1-0.3c0-0.1,0-0.2-0.1-0.3S17.3,6,17.3,5.9c-0.1,0-0.2,0-0.3,0c-0.1,0-0.2,0.1-0.2,0.1c-0.1,0.1-0.1,0.1-0.1,0.2
	c0,0.1,0,0.2,0,0.3C16.7,6.6,16.8,6.7,16.8,6.8z M10.8,5.6C10.4,5.6,10,6,10,6.4c0,0.4,0.3,0.7,0.7,0.7c0.4,0,0.7-0.3,0.7-0.7
	C11.5,6,11.2,5.6,10.8,5.6z M10.8,6.8c-0.1,0-0.2,0-0.3-0.1c-0.1-0.1-0.1-0.1-0.2-0.2c0-0.1,0-0.2,0-0.3c0-0.1,0.1-0.2,0.1-0.2
	c0.1-0.1,0.1-0.1,0.2-0.1c0.1,0,0.2,0,0.3,0C11,6,11.1,6,11.1,6.1c0.1,0.1,0.1,0.2,0.1,0.3c0,0.1,0,0.2-0.1,0.3
	C11,6.8,10.9,6.8,10.8,6.8z M13.3,12.4c-1-0.2-1.9-0.8-2.4-1.7c0.1,0.1,0.3,0.2,0.5,0.3c0.4,0.2,0.8,0.4,1.3,0.5c0,0,0,0,0,0.1
	C12.9,12,13.1,12.2,13.3,12.4C13.3,12.4,13.3,12.4,13.3,12.4z M13.4,12.2c-0.1-0.1-0.3-0.3-0.4-0.6c0.3,0,0.6,0.1,0.9,0.1
	c0.3,0,0.6,0,0.9-0.1c-0.1,0.3-0.3,0.5-0.4,0.6c-0.2,0.2-0.3,0.2-0.5,0.2C13.8,12.4,13.6,12.4,13.4,12.2z M15.1,11.6
	C15.1,11.6,15.1,11.6,15.1,11.6c0.5-0.2,1-0.3,1.4-0.6c0.2-0.1,0.3-0.2,0.5-0.3c-0.5,0.9-1.4,1.5-2.4,1.7c0,0,0,0,0,0
	C14.8,12.2,15,12,15.1,11.6z"/>
</svg>
