<?xml version="1.0" encoding="utf-8"?>
<!-- Generator: Adobe Illustrator 28.1.0, SVG Export Plug-In . SVG Version: 6.00 Build 0)  -->
<svg version="1.1" id="Layer_1" xmlns="http://www.w3.org/2000/svg" xmlns:xlink="http://www.w3.org/1999/xlink" x="0px" y="0px"
	 viewBox="0 0 13 13" style="enable-background:new 0 0 13 13;" xml:space="preserve">
<style type="text/css">
	.st0{fill:#FFFAF0;}
</style>
<g>
	<path class="st0" d="M7.9,4.9L5.9,6.9L5.1,6.1C4.9,6,4.8,5.9,4.6,5.9c0,0,0,0,0,0C4.5,5.9,4.3,6,4.2,6.1C4,6.3,4,6.7,4.2,6.9
		l1.2,1.2c0.1,0.1,0.2,0.2,0.4,0.2c0.1,0,0.3,0,0.4-0.1l0,0l2.5-2.5c0.1-0.1,0.2-0.3,0.2-0.4c0-0.2-0.1-0.3-0.2-0.4
		C8.5,4.6,8.2,4.6,7.9,4.9z"/>
	<path class="st0" d="M11.8,5.5l-0.7-0.8c0,0,0-0.1-0.1-0.1c0-0.1,0-0.1,0-0.1V3.5C11,2.7,10.3,2,9.5,2H8.6c0,0-0.1,0-0.1,0
		c-0.1,0-0.1,0-0.1-0.1L7.5,1.2l0,0h0c-0.6-0.5-1.5-0.5-2,0L4.7,1.9c0,0-0.1,0-0.1,0.1C4.5,2,4.4,2,4.4,2H3.5C2.7,2,1.9,2.7,1.9,3.5
		v0.9c0,0,0,0.1,0,0.1c0,0.1,0,0.1-0.1,0.1L1.2,5.5c-0.5,0.6-0.5,1.5,0,2l0.7,0.8c0,0,0,0.1,0.1,0.1c0,0.1,0,0.1,0,0.1v0.9
		c0,0.4,0.2,0.8,0.5,1.1C2.7,10.9,3.1,11,3.5,11h0.9c0,0,0.1,0,0.1,0c0.1,0,0.1,0,0.1,0.1l0.8,0.7h0c0.3,0.2,0.6,0.4,1,0.4
		c0.4,0,0.8-0.1,1-0.4l0.8-0.7c0,0,0.1,0,0.1-0.1c0.1,0,0.1,0,0.1,0h0.9c0.9,0,1.6-0.7,1.6-1.6V8.6c0,0,0-0.1,0-0.1
		c0-0.1,0.1-0.1,0.1-0.1l0.7-0.8C12.3,6.9,12.3,6,11.8,5.5z M10.9,6.8l-0.7,0.8c-0.2,0.3-0.4,0.7-0.4,1v0.9c0,0.2-0.2,0.4-0.4,0.4
		H8.6c-0.3,0-0.8,0.2-1,0.4l-0.8,0.7c-0.1,0.1-0.4,0.1-0.5,0l-0.9-0.8l0,0C5.1,10,4.7,9.9,4.4,9.9H3.5c-0.2,0-0.4-0.2-0.4-0.4V8.6
		c0-0.3-0.2-0.8-0.4-1L2,6.8C2,6.7,2,6.6,2,6.5C2,6.4,2,6.3,2,6.2l0.7-0.8c0.2-0.3,0.4-0.7,0.4-1V3.5c0-0.2,0.2-0.4,0.4-0.4h0.9
		c0.3,0,0.8-0.2,1-0.4l0.8-0.7c0.1-0.1,0.4-0.1,0.5,0l0.8,0.7c0.3,0.2,0.7,0.4,1,0.4h0.9c0.2,0,0.4,0.2,0.4,0.4v0.9
		c0,0.3,0.2,0.8,0.4,1l0.7,0.8C11,6.3,11,6.4,11,6.5C11,6.6,11,6.7,10.9,6.8z"/>
</g>
</svg>
