<?xml version="1.0" encoding="utf-8"?>
<!-- Generator: Adobe Illustrator 28.1.0, SVG Export Plug-In . SVG Version: 6.00 Build 0)  -->
<svg version="1.1" id="Layer_1" xmlns="http://www.w3.org/2000/svg" xmlns:xlink="http://www.w3.org/1999/xlink" x="0px" y="0px"
	 viewBox="0 0 14 14" style="enable-background:new 0 0 14 14;" xml:space="preserve">
<style type="text/css">
	.st0{fill:#FF8DA1;}
</style>
<g>
	<path class="st0" d="M13,14c-0.3,0-0.5-0.1-0.7-0.3L7,8.4l-5.3,5.3c-0.4,0.4-1,0.4-1.4,0s-0.4-1,0-1.4L5.6,7L0.3,1.7
		c-0.4-0.4-0.4-1,0-1.4s1-0.4,1.4,0L7,5.6l5.3-5.3c0.4-0.4,1-0.4,1.4,0s0.4,1,0,1.4L8.4,7l5.3,5.3c0.4,0.4,0.4,1,0,1.4
		C13.5,13.9,13.3,14,13,14z"/>
</g>
</svg>
