<?xml version="1.0" encoding="utf-8"?>
<!-- Generator: Adobe Illustrator 28.1.0, SVG Export Plug-In . SVG Version: 6.00 Build 0)  -->
<svg version="1.1" id="Layer_1" xmlns="http://www.w3.org/2000/svg" xmlns:xlink="http://www.w3.org/1999/xlink" x="0px" y="0px"
	 viewBox="0 0 17 24" style="enable-background:new 0 0 17 24;" xml:space="preserve">
<style type="text/css">
	.st0{fill:#FFFAF0;}
</style>
<path class="st0" d="M0,0l17,0v3c-0.1,1.7-0.5,3.4-1.2,5c-0.7,1.6-1.8,2.9-3,4c1.3,1.1,2.3,2.5,3,4c0.7,1.6,1.1,3.2,1.2,5
	c0,0.8-0.3,1.6-0.8,2.1c-0.5,0.6-1.3,0.9-2,0.9H2.8c-0.8,0-1.5-0.3-2-0.9C0.3,22.6,0,21.8,0,21c0.1-1.7,0.5-3.4,1.2-5
	c0.7-1.6,1.7-2.9,3-4c-1.3-1.1-2.3-2.5-3-4C0.5,6.4,0.1,4.7,0,3L0,0z M15.1,2H1.9v1c0,3.8,2.4,6.6,4.3,8.2L7.2,12l-0.9,0.8
	c-2,1.7-4.3,4.4-4.3,8.2c0,0.3,0.1,0.5,0.3,0.7S2.6,22,2.8,22h11.3c0.3,0,0.5-0.1,0.7-0.3c0.2-0.2,0.3-0.4,0.3-0.7
	c0-3.8-2.4-6.6-4.4-8.2L9.8,12l0.9-0.8c2-1.7,4.4-4.4,4.4-8.2V2z M8.5,8C7.8,7.4,7.2,6.8,6.6,6h3.7 M8.5,10.5
	C10,9.4,12.7,7.2,13.1,4H3.9C4.3,7.2,7,9.4,8.5,10.5z"/>
</svg>
