<?xml version="1.0" encoding="utf-8"?>
<!-- Generator: Adobe Illustrator 28.1.0, SVG Export Plug-In . SVG Version: 6.00 Build 0)  -->
<svg version="1.1" id="Layer_1" xmlns="http://www.w3.org/2000/svg" xmlns:xlink="http://www.w3.org/1999/xlink" x="0px" y="0px"
	 viewBox="0 0 20 18" style="enable-background:new 0 0 20 18;" xml:space="preserve">
<style type="text/css">
	.st0{fill-rule:evenodd;clip-rule:evenodd;fill:#FFFAF0;}
</style>
<path class="st0" d="M0,4c0-0.4,0.3-0.7,0.8-0.7h11.7c0.2,0,0.4,0.1,0.5,0.2c0.1,0.1,0.2,0.3,0.2,0.5c0,0.2-0.1,0.4-0.2,0.5
	c-0.1,0.1-0.3,0.2-0.5,0.2H0.8C0.3,4.7,0,4.4,0,4z"/>
<path class="st0" d="M15.9,1.5c-1.4,0-2.6,1.1-2.6,2.5s1.2,2.5,2.6,2.5c1.4,0,2.6-1.1,2.6-2.5C18.5,2.6,17.3,1.5,15.9,1.5z M11.8,4
	c0-2.2,1.8-4,4.1-4C18.2,0,20,1.8,20,4s-1.8,4-4.1,4C13.6,7.9,11.8,6.1,11.8,4z M6.7,14c0-0.4,0.3-0.7,0.8-0.7h11.7
	c0.2,0,0.4,0.1,0.5,0.2c0.1,0.1,0.2,0.3,0.2,0.5c0,0.2-0.1,0.4-0.2,0.5c-0.1,0.1-0.3,0.2-0.5,0.2H7.5C7.1,14.8,6.7,14.5,6.7,14z"/>
<path class="st0" d="M4.1,11.6c-1.4,0-2.6,1.1-2.6,2.5s1.2,2.5,2.6,2.5s2.6-1.1,2.6-2.5S5.5,11.6,4.1,11.6z M0,14c0-2.2,1.8-4,4.1-4
	c2.3,0,4.1,1.8,4.1,4s-1.8,4-4.1,4C1.8,18,0,16.2,0,14z"/>
</svg>
