<?xml version="1.0" encoding="utf-8"?>
<!-- Generator: Adobe Illustrator 28.1.0, SVG Export Plug-In . SVG Version: 6.00 Build 0)  -->
<svg version="1.1" id="Layer_1" xmlns="http://www.w3.org/2000/svg" xmlns:xlink="http://www.w3.org/1999/xlink" x="0px" y="0px"
	 viewBox="0 0 30 30" style="enable-background:new 0 0 30 30;" xml:space="preserve">
<style type="text/css">
	.st0{fill-rule:evenodd;clip-rule:evenodd;fill:#FF8DA1;}
</style>
<path class="st0" d="M15,1.3c-1.5,0-2.8,1.3-2.8,2.8c0,1.5,1.3,2.8,2.8,2.8c1.5,0,2.8-1.3,2.8-2.8C17.8,2.6,16.5,1.3,15,1.3z
	 M15,5.9c-0.3,0-0.7-0.1-1-0.3c-0.3-0.2-0.5-0.5-0.6-0.8c-0.1-0.3-0.2-0.7-0.1-1c0.1-0.3,0.2-0.7,0.5-0.9c0.2-0.2,0.6-0.4,0.9-0.5
	c0.3-0.1,0.7,0,1,0.1c0.3,0.1,0.6,0.4,0.8,0.6c0.2,0.3,0.3,0.6,0.3,1c0,0.5-0.2,0.9-0.5,1.2C15.9,5.7,15.5,5.9,15,5.9z M29.3,9.4
	c-0.5-0.7-1.3-1-2.2-1c-2.6,0-4.7,2.7-6.6,5.4c-0.6-1-1.3-2-2.1-2.9c-1.1-1.2-2.2-1.7-3.4-1.7c-1.2,0-2.3,0.6-3.4,1.7
	c-0.6,0.6-1.6,2.1-2.1,2.9c-1.9-2.7-4-5.4-6.6-5.4c-1,0-1.7,0.4-2.2,1c-0.4,0.6-0.6,1.4-0.6,2.4c0,0.7,0.1,1.5,0.4,2.3h0
	c0,0.8,0.1,1.7,0.2,2.5l0,0c0,0.1,0,0.2,0.1,0.3C2,23.6,7.9,28.7,15,28.7c8.1,0,14.6-6.5,14.6-14.6h0c0.2-0.8,0.4-1.6,0.4-2.3
	C29.9,10.8,29.7,10,29.3,9.4z M28.2,17.1c-1,1.5-2.2,2.3-3.4,2.3c-1.5,0-2.6-1.2-3.6-2.7c-0.1,2.3-0.5,4.4-1.1,6.2
	c1.6-0.4,3.1-0.9,4.3-1.6C26.4,20.2,27.7,18.7,28.2,17.1z M20.2,15.8c-1.5,1.9-3.4,3.9-5.2,3.9c-2,0-3.6-1.8-5.2-3.9
	c0.1,2.8,0.5,5.3,1.3,7.3c1.2,0.2,2.5,0.3,3.9,0.3c1.4,0,2.7-0.1,3.9-0.3C19.6,21.2,20.1,18.6,20.2,15.8z M8.8,16.7
	c-1.1,1.5-2.2,2.7-3.6,2.7c-1.2,0-2.3-0.8-3.3-2.3c0.6,1.6,1.9,3.1,3.9,4.2c1.2,0.7,2.6,1.2,4.2,1.6C9.3,21.1,8.9,19,8.8,16.7z
	 M10.2,14.6c1.2-1.9,3.1-4.5,4.8-4.5c2,0,3.4,2.2,4.8,4.5c-1.4,1.8-3.3,4.1-4.8,4.1c-1.4,0-2.8-1.5-4.2-3.3
	C10.6,15.2,10.4,14.9,10.2,14.6z M27.6,16.2c-0.8,1.4-1.9,2.2-2.8,2.2c-1.4,0-2.5-1.8-3.8-3.7c0,0,0-0.1,0.1-0.1
	c1.8-2.5,3.7-5.2,5.9-5.2c1.2,0,1.9,0.8,1.9,2.4C28.9,13.1,28.4,14.8,27.6,16.2z M5.2,18.4c-0.9,0-1.9-0.8-2.8-2.2
	c-0.8-1.4-1.3-3.1-1.3-4.4c0-1.6,0.6-2.4,1.9-2.4c2.2,0,4.1,2.6,5.9,5.2c0,0,0,0,0,0c0,0,0,0,0,0C7.7,16.6,6.6,18.4,5.2,18.4z
	 M24.4,4.1c0-1.5,1.3-2.8,2.8-2.8c1.5,0,2.8,1.3,2.8,2.8c0,1.5-1.3,2.8-2.8,2.8C25.6,6.9,24.4,5.7,24.4,4.1z M26.2,5.6
	c0.3,0.2,0.6,0.3,1,0.3c0.5,0,0.9-0.2,1.2-0.5c0.3-0.3,0.5-0.8,0.5-1.2c0-0.3-0.1-0.7-0.3-1c-0.2-0.3-0.5-0.5-0.8-0.6
	c-0.3-0.1-0.7-0.2-1-0.1c-0.3,0.1-0.7,0.2-0.9,0.5c-0.2,0.2-0.4,0.6-0.5,0.9c-0.1,0.3,0,0.7,0.1,1C25.7,5.1,25.9,5.4,26.2,5.6z
	 M2.8,1.3c-1.5,0-2.8,1.3-2.8,2.8c0,1.5,1.3,2.8,2.8,2.8c1.5,0,2.8-1.3,2.8-2.8C5.6,2.6,4.4,1.3,2.8,1.3z M2.8,5.9
	c-0.3,0-0.7-0.1-1-0.3C1.6,5.4,1.4,5.1,1.2,4.8c-0.1-0.3-0.2-0.7-0.1-1c0.1-0.3,0.2-0.7,0.5-0.9c0.2-0.2,0.6-0.4,0.9-0.5
	c0.3-0.1,0.7,0,1,0.1c0.3,0.1,0.6,0.4,0.8,0.6c0.2,0.3,0.3,0.6,0.3,1c0,0.5-0.2,0.9-0.5,1.2C3.8,5.7,3.3,5.9,2.8,5.9z M12.5,27.4
	c-3.9-0.7-7.1-3.1-9.1-6.3c0.6,0.5,1.2,0.9,1.9,1.3c1.4,0.8,3.2,1.4,5.1,1.8c0,0.1,0.1,0.2,0.1,0.3C11,25.6,11.7,26.6,12.5,27.4
	C12.4,27.3,12.5,27.4,12.5,27.4z M13.1,26.6c-0.6-0.5-1.1-1.3-1.5-2.3c1.1,0.1,2.2,0.2,3.4,0.2c1.2,0,2.3-0.1,3.4-0.2
	c-0.5,1-1,1.7-1.5,2.3c-0.6,0.6-1.2,0.9-1.9,0.9C14.4,27.4,13.8,27.2,13.1,26.6z M19.5,24.4c0-0.1,0.1-0.2,0.1-0.3
	c2-0.4,3.7-1,5.2-1.9c0.7-0.4,1.3-0.8,1.8-1.2c-2,3.3-5.2,5.7-9.1,6.4c0,0,0,0,0.1-0.1C18.3,26.6,19,25.6,19.5,24.4z"/>
</svg>
