<svg width="134" height="22" viewBox="0 0 134 22" fill="none" xmlns="http://www.w3.org/2000/svg">
<g clip-path="url(#clip0_2002_11)">
<path fill-rule="evenodd" clip-rule="evenodd" d="M12.0252 0C10.787 0 9.77961 1.00743 9.77961 2.2457C9.77961 3.48398 10.787 4.49141 12.0252 4.49141C13.2635 4.49141 14.2707 3.48398 14.2707 2.2457C14.2707 1.00743 13.2635 0 12.0252 0ZM12.0252 3.66279C11.745 3.66282 11.471 3.57974 11.2379 3.42404C11.0049 3.26835 10.8232 3.04704 10.716 2.78811C10.6087 2.52917 10.5806 2.24424 10.6352 1.96934C10.6899 1.69444 10.8249 1.44193 11.023 1.24373C11.2212 1.04553 11.4737 0.910548 11.7486 0.855857C12.0235 0.801166 12.3084 0.829219 12.5673 0.936471C12.8263 1.04372 13.0476 1.22536 13.2033 1.4584C13.359 1.69144 13.4421 1.96542 13.4421 2.2457C13.4417 2.62143 13.2923 2.98165 13.0267 3.24739C12.7611 3.51312 12.401 3.66221 12.0252 3.66279ZM23.5289 6.46465C23.126 5.91624 22.504 5.62642 21.7304 5.62642C19.6095 5.62642 17.9854 7.78288 16.4263 9.93744C15.909 9.11276 15.3683 8.29676 14.7598 7.64301C13.8825 6.70055 12.9877 6.24264 12.0252 6.24264C11.0628 6.24264 10.1683 6.69992 9.29049 7.64301C8.83701 8.13072 8.02087 9.33289 7.62431 9.93744C6.06505 7.78288 4.44097 5.62642 2.32006 5.62642C1.5465 5.62642 0.924461 5.91624 0.521597 6.46465C0.174707 6.93581 0 7.57395 0 8.36015C0 8.93853 0.10108 9.58152 0.2847 10.2275H0.278307C0.278307 10.9086 0.336271 11.5762 0.447536 12.2256L0.440746 12.2268C0.456251 12.3101 0.473697 12.3928 0.493056 12.475C1.54171 17.8879 6.3063 21.975 12.0255 21.975C18.5132 21.975 23.7726 16.7155 23.7726 10.2275H23.7656C23.9492 9.58152 24.0502 8.93851 24.0502 8.36015C24.0509 7.57379 23.8751 6.93581 23.5289 6.46465ZM22.629 12.6897C21.8296 13.8606 20.8603 14.5238 19.9286 14.5238C18.7485 14.5238 17.8462 13.5952 16.9968 12.371C16.8996 14.2004 16.583 15.9152 16.1013 17.3672C17.4065 17.0618 18.5657 16.6146 19.5372 16.0652C21.1717 15.1407 22.2381 13.9516 22.629 12.6897ZM16.1816 11.6668C14.9932 13.1793 13.4356 14.8126 12.0249 14.8126C10.4406 14.8126 9.15538 13.3978 7.86967 11.6792C7.9212 13.902 8.30915 15.958 8.91513 17.5754C9.881 17.7344 10.9193 17.8197 12.019 17.8197C13.1186 17.8197 14.1643 17.7288 15.1411 17.5613C15.7452 15.943 16.1313 13.8879 16.1816 11.6668ZM7.05409 12.3701C6.20422 13.5948 5.30181 14.5238 4.12152 14.5238C3.1957 14.5238 2.23248 13.8688 1.43605 12.7115C1.88969 14.0373 2.9669 15.2278 4.57946 16.1315C5.5348 16.6669 6.67064 17.0965 7.9567 17.3884C7.47096 15.9316 7.1517 14.2087 7.05409 12.3701ZM8.14891 10.6614C9.15236 9.09573 10.6252 7.07126 12.0252 7.07126C13.6112 7.07126 14.7817 8.86047 15.9016 10.6614C14.7909 12.1339 13.2094 13.984 12.0254 13.984C10.8611 13.984 9.7364 12.7681 8.64338 11.3277C8.47766 11.1095 8.31226 10.8862 8.14891 10.6614ZM22.1431 11.9141C21.4688 13.0293 20.6407 13.6952 19.9286 13.6952C18.8194 13.6952 17.8788 12.2727 16.8992 10.6973C16.915 10.674 16.9328 10.65 16.95 10.6273C18.4321 8.57586 19.9662 6.45504 21.7304 6.45504C22.7203 6.45504 23.2225 7.09554 23.2225 8.36015C23.2225 9.4502 22.8089 10.8129 22.1431 11.9141ZM4.12199 13.6952C3.40977 13.6952 2.58165 13.0293 1.90805 11.9141C1.24218 10.8129 0.82812 9.45083 0.82812 8.36015C0.82812 7.09554 1.33032 6.45504 2.32006 6.45504C4.08493 6.45504 5.61786 8.57584 7.10066 10.6273C7.10921 10.639 7.11777 10.6509 7.12626 10.6627C7.13453 10.6742 7.14319 10.6862 7.15128 10.6973C6.17179 12.2727 5.23094 13.6952 4.12199 13.6952ZM19.5598 2.2457C19.5598 1.00743 20.5672 0 21.8055 0C23.0432 0 24.0509 1.00743 24.0509 2.2457C24.0509 3.48398 23.0437 4.49141 21.8055 4.49141C20.5672 4.49141 19.5598 3.48398 19.5598 2.2457ZM21.0182 3.42397C21.2512 3.57968 21.5252 3.66279 21.8055 3.66279C22.1812 3.66225 22.5414 3.51318 22.807 3.24744C23.0727 2.9817 23.2221 2.62145 23.2225 2.2457C23.2225 1.96543 23.1394 1.69145 22.9837 1.45841C22.828 1.22537 22.6067 1.04374 22.3477 0.936486C22.0888 0.82923 21.8039 0.801167 21.529 0.855845C21.2541 0.910524 21.0016 1.04549 20.8035 1.24367C20.6053 1.44186 20.4703 1.69436 20.4157 1.96924C20.361 2.24413 20.389 2.52906 20.4963 2.788C20.6035 3.04694 20.7852 3.26826 21.0182 3.42397ZM2.24562 0C1.00739 0 0.000619416 1.00743 0.000619416 2.2457C0.000619416 3.48398 1.00739 4.49141 2.24562 4.49141C3.48386 4.49141 4.49126 3.48398 4.49126 2.2457C4.49126 1.00743 3.48307 0 2.24562 0ZM2.24562 3.66279C1.96536 3.66279 1.69139 3.57968 1.45836 3.42397C1.22533 3.26826 1.0437 3.04694 0.936447 2.788C0.829195 2.52906 0.801132 2.24413 0.855809 1.96924C0.910486 1.69436 1.04545 1.44186 1.24362 1.24367C1.4418 1.04549 1.69429 0.910524 1.96917 0.855845C2.24405 0.801167 2.52897 0.82923 2.7879 0.936486C3.04683 1.04374 3.26815 1.22537 3.42385 1.45841C3.57956 1.69145 3.66267 1.96543 3.66267 2.2457C3.66225 2.62145 3.51284 2.9817 3.24719 3.24744C2.98155 3.51318 2.62136 3.66225 2.24562 3.66279ZM9.99358 20.9447C6.88548 20.359 4.24303 18.4545 2.66965 15.8348C3.11531 16.2118 3.61718 16.5567 4.16813 16.8655C5.33458 17.5192 6.73052 18.0173 8.30573 18.3212C8.33687 18.3955 8.3685 18.469 8.40059 18.5415C8.82911 19.509 9.35011 20.3238 9.94957 20.9027C9.96418 20.9168 9.97885 20.9308 9.99358 20.9447ZM10.534 20.2974C10.0901 19.8687 9.67054 19.2548 9.30041 18.4837C10.1627 18.6001 11.0713 18.6611 12.019 18.6611C12.969 18.6611 13.8844 18.596 14.7557 18.473C14.3843 19.2491 13.9629 19.8667 13.5169 20.2974C13.0216 20.7757 12.5182 21.0042 12.0255 21.0042C11.5327 21.0042 11.0293 20.7757 10.534 20.2974ZM15.6503 18.5415C15.685 18.4633 15.719 18.384 15.7526 18.3036C17.348 17.985 18.7694 17.466 19.9514 16.7976C20.4813 16.4979 20.9665 16.1658 21.3986 15.806C19.8273 18.4406 17.1769 20.3568 14.0574 20.9447C14.0721 20.9308 14.0868 20.9168 14.1014 20.9027C14.7008 20.3238 15.2218 19.509 15.6503 18.5415Z" fill="url(#paint0_linear_2002_11)"/>
<path d="M32.9165 21.0848C32.699 21.0848 32.5309 21.0255 32.4123 20.9069C32.2937 20.7685 32.2344 20.6004 32.2344 20.4027V1.00777C32.2344 0.810063 32.2937 0.651899 32.4123 0.533276C32.5309 0.394881 32.699 0.325684 32.9165 0.325684H34.4882C34.6859 0.325684 34.8441 0.394881 34.9627 0.533276C35.1011 0.651899 35.1703 0.810063 35.1703 1.00777V20.4027C35.1703 20.6004 35.1011 20.7685 34.9627 20.9069C34.8441 21.0255 34.6859 21.0848 34.4882 21.0848H32.9165Z" fill="white"/>
<path d="M40.6401 21.0848C40.4424 21.0848 40.2743 21.0255 40.1359 20.9069C40.0173 20.7685 39.958 20.6004 39.958 20.4027V6.34584C39.958 6.14813 40.0173 5.98997 40.1359 5.87134C40.2743 5.73295 40.4424 5.66375 40.6401 5.66375H42.0339C42.2316 5.66375 42.3898 5.73295 42.5084 5.87134C42.6468 5.98997 42.716 6.14813 42.716 6.34584V7.6507C43.23 6.9785 43.8726 6.4348 44.6436 6.01962C45.4344 5.58467 46.4427 5.36719 47.6685 5.36719C48.9536 5.36719 50.041 5.65386 50.9307 6.22721C51.8401 6.78079 52.5222 7.56173 52.9769 8.57003C53.4317 9.55856 53.659 10.7151 53.659 12.0397V20.4027C53.659 20.6004 53.5997 20.7685 53.4811 20.9069C53.3625 21.0255 53.2043 21.0848 53.0066 21.0848H51.5238C51.3261 21.0848 51.158 21.0255 51.0196 20.9069C50.901 20.7685 50.8417 20.6004 50.8417 20.4027V12.188C50.8417 10.8041 50.5056 9.72661 49.8334 8.95556C49.1612 8.16473 48.1727 7.76932 46.8678 7.76932C45.642 7.76932 44.6535 8.16473 43.9022 8.95556C43.1707 9.72661 42.805 10.8041 42.805 12.188V20.4027C42.805 20.6004 42.7358 20.7685 42.5974 20.9069C42.4787 21.0255 42.3206 21.0848 42.1229 21.0848H40.6401Z" fill="white"/>
<path d="M62.8758 21.0851C62.5792 21.0851 62.342 21.0159 62.164 20.8775C62.0059 20.7391 61.8774 20.5612 61.7785 20.3437L56.2922 6.58339C56.2526 6.48454 56.2329 6.38569 56.2329 6.28683C56.2329 6.1089 56.2922 5.96062 56.4108 5.842C56.5294 5.72337 56.6777 5.66406 56.8556 5.66406H58.2791C58.4966 5.66406 58.6646 5.72337 58.7833 5.842C58.9019 5.96062 58.9711 6.06936 58.9909 6.16821L63.5282 17.8526L68.0359 6.16821C68.0755 6.06936 68.1447 5.96062 68.2435 5.842C68.3621 5.72337 68.5302 5.66406 68.7477 5.66406H70.2008C70.359 5.66406 70.4974 5.72337 70.616 5.842C70.7544 5.96062 70.8236 6.1089 70.8236 6.28683C70.8236 6.38569 70.8038 6.48454 70.7643 6.58339L65.2483 20.3437C65.1692 20.5612 65.0407 20.7391 64.8627 20.8775C64.7046 21.0159 64.4673 21.0851 64.151 21.0851H62.8758Z" fill="white"/>
<path d="M71.994 21.0848C71.8359 21.0848 71.6975 21.0255 71.5788 20.9069C71.4602 20.7882 71.4009 20.6498 71.4009 20.4917C71.4009 20.3928 71.4108 20.2841 71.4306 20.1655L78.7852 0.978114C78.8643 0.780408 78.973 0.622244 79.1114 0.50362C79.2498 0.384996 79.4574 0.325684 79.7342 0.325684H81.7508C82.0078 0.325684 82.2055 0.384996 82.3439 0.50362C82.5021 0.622244 82.6207 0.780408 82.6998 0.978114L90.0248 20.1655C90.0644 20.2841 90.0841 20.3928 90.0841 20.4917C90.0841 20.6498 90.0248 20.7882 89.9062 20.9069C89.7876 21.0255 89.6492 21.0848 89.491 21.0848H87.9786C87.7413 21.0848 87.5634 21.0255 87.4447 20.9069C87.3459 20.7882 87.2767 20.6795 87.2372 20.5806L85.6061 16.3695H75.8789L74.2479 20.5806C74.2281 20.6795 74.1589 20.7882 74.0403 20.9069C73.9217 21.0255 73.7437 21.0848 73.5065 21.0848H71.994ZM76.739 13.8191H84.7461L80.7425 3.29128L76.739 13.8191Z" fill="white"/>
<path d="M93.5516 21.0851C93.3539 21.0851 93.1859 21.0258 93.0475 20.9072C92.9289 20.7688 92.8696 20.6007 92.8696 20.403V6.3758C92.8696 6.1781 92.9289 6.01005 93.0475 5.87165C93.1859 5.73326 93.3539 5.66406 93.5516 5.66406H94.9158C95.1135 5.66406 95.2816 5.73326 95.42 5.87165C95.5584 6.01005 95.6276 6.1781 95.6276 6.3758V7.68066C96.023 7.00846 96.5667 6.50431 97.2586 6.16821C97.9506 5.83211 98.781 5.66406 99.7497 5.66406H100.936C101.133 5.66406 101.292 5.73326 101.41 5.87165C101.529 5.99028 101.588 6.14844 101.588 6.34615V7.56204C101.588 7.75974 101.529 7.91791 101.41 8.03653C101.292 8.15516 101.133 8.21447 100.936 8.21447H99.1566C98.089 8.21447 97.2488 8.5308 96.6359 9.16346C96.023 9.77635 95.7165 10.6166 95.7165 11.6842V20.403C95.7165 20.6007 95.6473 20.7688 95.5089 20.9072C95.3705 21.0258 95.2025 21.0851 95.0048 21.0851H93.5516Z" fill="white"/>
<path d="M110.073 21.3814C108.67 21.3814 107.454 21.1144 106.426 20.5806C105.417 20.0271 104.636 19.2461 104.083 18.2378C103.529 17.2098 103.233 15.984 103.193 14.5605C103.173 14.2639 103.163 13.8685 103.163 13.3743C103.163 12.88 103.173 12.4846 103.193 12.188C103.233 10.7645 103.529 9.54867 104.083 8.54037C104.636 7.5123 105.417 6.73136 106.426 6.19756C107.454 5.64398 108.67 5.36719 110.073 5.36719C111.22 5.36719 112.199 5.52536 113.009 5.84169C113.84 6.15802 114.522 6.56331 115.055 7.05758C115.589 7.55184 115.985 8.08565 116.242 8.659C116.518 9.23235 116.667 9.77604 116.687 10.29C116.706 10.4877 116.647 10.6459 116.509 10.7645C116.37 10.8832 116.202 10.9425 116.004 10.9425H114.581C114.383 10.9425 114.235 10.9029 114.136 10.8238C114.037 10.725 113.938 10.5668 113.84 10.3494C113.484 9.38062 112.999 8.69854 112.386 8.30313C111.774 7.90771 111.012 7.71001 110.103 7.71001C108.917 7.71001 107.948 8.07576 107.197 8.80728C106.465 9.53879 106.07 10.7151 106.01 12.3363C105.991 13.048 105.991 13.74 106.01 14.4122C106.07 16.0532 106.465 17.2394 107.197 17.9709C107.948 18.6827 108.917 19.0385 110.103 19.0385C111.012 19.0385 111.774 18.8408 112.386 18.4454C112.999 18.05 113.484 17.3679 113.84 16.3992C113.938 16.1817 114.037 16.0334 114.136 15.9543C114.235 15.8555 114.383 15.806 114.581 15.806H116.004C116.202 15.806 116.37 15.8654 116.509 15.984C116.647 16.1026 116.706 16.2608 116.687 16.4585C116.667 16.8737 116.578 17.2987 116.42 17.7337C116.261 18.1686 116.004 18.6135 115.649 19.0682C115.312 19.5031 114.887 19.8986 114.373 20.2544C113.859 20.5905 113.237 20.8673 112.505 21.0848C111.793 21.2825 110.983 21.3814 110.073 21.3814Z" fill="white"/>
<path d="M120.92 21.085C120.722 21.085 120.554 21.0257 120.416 20.9071C120.297 20.7687 120.238 20.6006 120.238 20.4029V0.711383C120.238 0.513677 120.297 0.355512 120.416 0.236889C120.554 0.0984939 120.722 0.0292969 120.92 0.0292969H122.403C122.62 0.0292969 122.788 0.0984939 122.907 0.236889C123.026 0.355512 123.085 0.513677 123.085 0.711383V7.62121C123.619 6.94901 124.271 6.40532 125.042 5.99014C125.813 5.57495 126.792 5.36736 127.978 5.36736C129.263 5.36736 130.351 5.65403 131.24 6.22738C132.15 6.78096 132.832 7.5619 133.287 8.5702C133.761 9.55873 133.998 10.7153 133.998 12.0399V20.4029C133.998 20.6006 133.939 20.7687 133.82 20.9071C133.702 21.0257 133.534 21.085 133.316 21.085H131.834C131.636 21.085 131.468 21.0257 131.329 20.9071C131.211 20.7687 131.151 20.6006 131.151 20.4029V12.1882C131.151 10.8043 130.815 9.72678 130.143 8.95573C129.471 8.1649 128.482 7.76949 127.178 7.76949C125.952 7.76949 124.963 8.1649 124.212 8.95573C123.461 9.72678 123.085 10.8043 123.085 12.1882V20.4029C123.085 20.6006 123.026 20.7687 122.907 20.9071C122.788 21.0257 122.62 21.085 122.403 21.085H120.92Z" fill="white"/>
</g>
<defs>
<linearGradient id="paint0_linear_2002_11" x1="12.0255" y1="0" x2="12.0255" y2="21.9805" gradientUnits="userSpaceOnUse">
<stop stop-color="#F7D365"/>
<stop offset="0.50205" stop-color="#EA4683"/>
<stop offset="1" stop-color="#735FA1"/>
</linearGradient>
<clipPath id="clip0_2002_11">
<rect width="134" height="22" fill="white"/>
</clipPath>
</defs>
</svg>
