<?xml version="1.0" encoding="utf-8"?>
<!-- Generator: Adobe Illustrator 28.1.0, SVG Export Plug-In . SVG Version: 6.00 Build 0)  -->
<svg version="1.1" id="Layer_1" xmlns="http://www.w3.org/2000/svg" xmlns:xlink="http://www.w3.org/1999/xlink" x="0px" y="0px"
	 viewBox="0 0 134 22" style="enable-background:new 0 0 134 22;" xml:space="preserve">
<style type="text/css">
	.st0{fill-rule:evenodd;clip-rule:evenodd;fill:url(#SVGID_1_);}
	.st1{fill:#FFFAF0;}
</style>
<linearGradient id="SVGID_1_" gradientUnits="userSpaceOnUse" x1="12.0254" y1="24" x2="12.0254" y2="2.025" gradientTransform="matrix(1 0 0 -1 0 24)">
	<stop  offset="0" style="stop-color:#F7D365"/>
	<stop  offset="0.502" style="stop-color:#EA4683"/>
	<stop  offset="1" style="stop-color:#735FA1"/>
</linearGradient>
<path class="st0" d="M12,0c-1.2,0-2.2,1-2.2,2.2c0,1.2,1,2.2,2.2,2.2c1.2,0,2.2-1,2.2-2.2C14.3,1,13.3,0,12,0z M12,3.7
	c-0.3,0-0.6-0.1-0.8-0.2C11,3.3,10.8,3,10.7,2.8c-0.1-0.3-0.1-0.5-0.1-0.8c0.1-0.3,0.2-0.5,0.4-0.7c0.2-0.2,0.5-0.3,0.7-0.4
	c0.3-0.1,0.6,0,0.8,0.1C12.8,1,13,1.2,13.2,1.5c0.2,0.2,0.2,0.5,0.2,0.8c0,0.4-0.1,0.7-0.4,1C12.8,3.5,12.4,3.7,12,3.7z M23.5,6.5
	c-0.4-0.5-1-0.8-1.8-0.8c-2.1,0-3.7,2.2-5.3,4.3c-0.5-0.8-1.1-1.6-1.7-2.3C13.9,6.7,13,6.2,12,6.2c-1,0-1.9,0.5-2.7,1.4
	C8.8,8.1,8,9.3,7.6,9.9C6.1,7.8,4.4,5.6,2.3,5.6c-0.8,0-1.4,0.3-1.8,0.8C0.2,6.9,0,7.6,0,8.4c0,0.6,0.1,1.2,0.3,1.9h0
	c0,0.7,0.1,1.3,0.2,2l0,0c0,0.1,0,0.2,0.1,0.2C1.5,17.9,6.3,22,12,22c6.5,0,11.7-5.3,11.7-11.7h0c0.2-0.6,0.3-1.3,0.3-1.9
	C24.1,7.6,23.9,6.9,23.5,6.5z M22.6,12.7c-0.8,1.2-1.8,1.8-2.7,1.8c-1.2,0-2.1-0.9-2.9-2.2c-0.1,1.8-0.4,3.5-0.9,5
	c1.3-0.3,2.5-0.8,3.4-1.3C21.2,15.1,22.2,14,22.6,12.7z M16.2,11.7c-1.2,1.5-2.7,3.1-4.2,3.1c-1.6,0-2.9-1.4-4.2-3.1
	c0.1,2.2,0.4,4.3,1,5.9c1,0.2,2,0.2,3.1,0.2c1.1,0,2.1-0.1,3.1-0.3C15.7,15.9,16.1,13.9,16.2,11.7z M7.1,12.4
	c-0.8,1.2-1.8,2.2-2.9,2.2c-0.9,0-1.9-0.7-2.7-1.8C1.9,14,3,15.2,4.6,16.1c1,0.5,2.1,1,3.4,1.3C7.5,15.9,7.2,14.2,7.1,12.4z
	 M8.1,10.7c1-1.6,2.5-3.6,3.9-3.6c1.6,0,2.8,1.8,3.9,3.6C14.8,12.1,13.2,14,12,14c-1.2,0-2.3-1.2-3.4-2.7
	C8.5,11.1,8.3,10.9,8.1,10.7z M22.1,11.9c-0.7,1.1-1.5,1.8-2.2,1.8c-1.1,0-2-1.4-3-3c0,0,0,0,0.1-0.1c1.5-2.1,3-4.2,4.8-4.2
	c1,0,1.5,0.6,1.5,1.9C23.2,9.5,22.8,10.8,22.1,11.9z M4.1,13.7c-0.7,0-1.5-0.7-2.2-1.8c-0.7-1.1-1.1-2.5-1.1-3.6
	c0-1.3,0.5-1.9,1.5-1.9c1.8,0,3.3,2.1,4.8,4.2c0,0,0,0,0,0c0,0,0,0,0,0C6.2,12.3,5.2,13.7,4.1,13.7z M19.6,2.2c0-1.2,1-2.2,2.2-2.2
	c1.2,0,2.2,1,2.2,2.2c0,1.2-1,2.2-2.2,2.2C20.6,4.5,19.6,3.5,19.6,2.2z M21,3.4c0.2,0.2,0.5,0.2,0.8,0.2c0.4,0,0.7-0.1,1-0.4
	c0.3-0.3,0.4-0.6,0.4-1c0-0.3-0.1-0.6-0.2-0.8S22.6,1,22.3,0.9c-0.3-0.1-0.5-0.1-0.8-0.1C21.3,0.9,21,1,20.8,1.2
	c-0.2,0.2-0.3,0.5-0.4,0.7c-0.1,0.3,0,0.6,0.1,0.8C20.6,3,20.8,3.3,21,3.4z M2.2,0C1,0,0,1,0,2.2c0,1.2,1,2.2,2.2,2.2
	c1.2,0,2.2-1,2.2-2.2C4.5,1,3.5,0,2.2,0z M2.2,3.7C2,3.7,1.7,3.6,1.5,3.4S1,3,0.9,2.8C0.8,2.5,0.8,2.2,0.9,2C0.9,1.7,1,1.4,1.2,1.2
	C1.4,1,1.7,0.9,2,0.9c0.3-0.1,0.6,0,0.8,0.1C3,1,3.3,1.2,3.4,1.5C3.6,1.7,3.7,2,3.7,2.2c0,0.4-0.1,0.7-0.4,1C3,3.5,2.6,3.7,2.2,3.7z
	 M10,20.9c-3.1-0.6-5.8-2.5-7.3-5.1c0.4,0.4,0.9,0.7,1.5,1c1.2,0.7,2.6,1.2,4.1,1.5c0,0.1,0.1,0.1,0.1,0.2
	C8.8,19.5,9.4,20.3,10,20.9C10,20.9,10,20.9,10,20.9z M10.5,20.3c-0.4-0.4-0.9-1-1.2-1.8c0.9,0.1,1.8,0.2,2.7,0.2
	c0.9,0,1.9-0.1,2.7-0.2c-0.4,0.8-0.8,1.4-1.2,1.8C13,20.8,12.5,21,12,21C11.5,21,11,20.8,10.5,20.3z M15.7,18.5
	c0-0.1,0.1-0.2,0.1-0.2c1.6-0.3,3-0.8,4.2-1.5c0.5-0.3,1-0.6,1.4-1c-1.6,2.6-4.2,4.6-7.3,5.1c0,0,0,0,0,0
	C14.7,20.3,15.2,19.5,15.7,18.5z"/>
<path class="st1" d="M32.9,21.1c-0.2,0-0.4-0.1-0.5-0.2c-0.1-0.1-0.2-0.3-0.2-0.5V1c0-0.2,0.1-0.4,0.2-0.5c0.1-0.1,0.3-0.2,0.5-0.2
	h1.6c0.2,0,0.4,0.1,0.5,0.2c0.1,0.1,0.2,0.3,0.2,0.5v19.4c0,0.2-0.1,0.4-0.2,0.5c-0.1,0.1-0.3,0.2-0.5,0.2H32.9z"/>
<path class="st1" d="M40.6,21.1c-0.2,0-0.4-0.1-0.5-0.2C40,20.8,40,20.6,40,20.4V6.3C40,6.1,40,6,40.1,5.9c0.1-0.1,0.3-0.2,0.5-0.2
	H42c0.2,0,0.4,0.1,0.5,0.2c0.1,0.1,0.2,0.3,0.2,0.5v1.3C43.2,7,43.9,6.4,44.6,6c0.8-0.4,1.8-0.7,3-0.7c1.3,0,2.4,0.3,3.3,0.9
	c0.9,0.6,1.6,1.3,2,2.3c0.5,1,0.7,2.1,0.7,3.5v8.4c0,0.2-0.1,0.4-0.2,0.5c-0.1,0.1-0.3,0.2-0.5,0.2h-1.5c-0.2,0-0.4-0.1-0.5-0.2
	c-0.1-0.1-0.2-0.3-0.2-0.5v-8.2c0-1.4-0.3-2.5-1-3.2c-0.7-0.8-1.7-1.2-3-1.2c-1.2,0-2.2,0.4-3,1.2c-0.7,0.8-1.1,1.8-1.1,3.2v8.2
	c0,0.2-0.1,0.4-0.2,0.5c-0.1,0.1-0.3,0.2-0.5,0.2H40.6z"/>
<path class="st1" d="M62.9,21.1c-0.3,0-0.5-0.1-0.7-0.2c-0.2-0.1-0.3-0.3-0.4-0.5L56.3,6.6c0-0.1-0.1-0.2-0.1-0.3
	c0-0.2,0.1-0.3,0.2-0.4c0.1-0.1,0.3-0.2,0.4-0.2h1.4c0.2,0,0.4,0.1,0.5,0.2C58.9,6,59,6.1,59,6.2l4.5,11.7L68,6.2
	c0-0.1,0.1-0.2,0.2-0.3c0.1-0.1,0.3-0.2,0.5-0.2h1.5c0.2,0,0.3,0.1,0.4,0.2c0.1,0.1,0.2,0.3,0.2,0.4c0,0.1,0,0.2-0.1,0.3l-5.5,13.8
	c-0.1,0.2-0.2,0.4-0.4,0.5c-0.2,0.1-0.4,0.2-0.7,0.2H62.9z"/>
<path class="st1" d="M72,21.1c-0.2,0-0.3-0.1-0.4-0.2c-0.1-0.1-0.2-0.3-0.2-0.4c0-0.1,0-0.2,0-0.3L78.8,1c0.1-0.2,0.2-0.4,0.3-0.5
	c0.1-0.1,0.3-0.2,0.6-0.2h2c0.3,0,0.5,0.1,0.6,0.2c0.2,0.1,0.3,0.3,0.4,0.5L90,20.2c0,0.1,0.1,0.2,0.1,0.3c0,0.2-0.1,0.3-0.2,0.4
	c-0.1,0.1-0.3,0.2-0.4,0.2H88c-0.2,0-0.4-0.1-0.5-0.2c-0.1-0.1-0.2-0.2-0.2-0.3l-1.6-4.2h-9.7l-1.6,4.2c0,0.1-0.1,0.2-0.2,0.3
	c-0.1,0.1-0.3,0.2-0.5,0.2H72z M76.7,13.8h8l-4-10.5L76.7,13.8z"/>
<path class="st1" d="M93.6,21.1c-0.2,0-0.4-0.1-0.5-0.2c-0.1-0.1-0.2-0.3-0.2-0.5v-14c0-0.2,0.1-0.4,0.2-0.5
	c0.1-0.1,0.3-0.2,0.5-0.2h1.4c0.2,0,0.4,0.1,0.5,0.2c0.1,0.1,0.2,0.3,0.2,0.5v1.3C96,7,96.6,6.5,97.3,6.2c0.7-0.3,1.5-0.5,2.5-0.5
	h1.2c0.2,0,0.4,0.1,0.5,0.2c0.1,0.1,0.2,0.3,0.2,0.5v1.2c0,0.2-0.1,0.4-0.2,0.5c-0.1,0.1-0.3,0.2-0.5,0.2h-1.8
	c-1.1,0-1.9,0.3-2.5,0.9c-0.6,0.6-0.9,1.5-0.9,2.5v8.7c0,0.2-0.1,0.4-0.2,0.5c-0.1,0.1-0.3,0.2-0.5,0.2H93.6z"/>
<path class="st1" d="M110.1,21.4c-1.4,0-2.6-0.3-3.6-0.8c-1-0.6-1.8-1.3-2.3-2.3c-0.6-1-0.8-2.3-0.9-3.7c0-0.3,0-0.7,0-1.2
	c0-0.5,0-0.9,0-1.2c0-1.4,0.3-2.6,0.9-3.6c0.6-1,1.3-1.8,2.3-2.3c1-0.6,2.2-0.8,3.6-0.8c1.1,0,2.1,0.2,2.9,0.5
	c0.8,0.3,1.5,0.7,2,1.2c0.5,0.5,0.9,1,1.2,1.6c0.3,0.6,0.4,1.1,0.4,1.6c0,0.2,0,0.4-0.2,0.5c-0.1,0.1-0.3,0.2-0.5,0.2h-1.4
	c-0.2,0-0.3,0-0.4-0.1c-0.1-0.1-0.2-0.3-0.3-0.5c-0.4-1-0.8-1.7-1.5-2c-0.6-0.4-1.4-0.6-2.3-0.6c-1.2,0-2.2,0.4-2.9,1.1
	c-0.7,0.7-1.1,1.9-1.2,3.5c0,0.7,0,1.4,0,2.1c0.1,1.6,0.5,2.8,1.2,3.6c0.8,0.7,1.7,1.1,2.9,1.1c0.9,0,1.7-0.2,2.3-0.6
	c0.6-0.4,1.1-1.1,1.5-2c0.1-0.2,0.2-0.4,0.3-0.4c0.1-0.1,0.2-0.1,0.4-0.1h1.4c0.2,0,0.4,0.1,0.5,0.2c0.1,0.1,0.2,0.3,0.2,0.5
	c0,0.4-0.1,0.8-0.3,1.3c-0.2,0.4-0.4,0.9-0.8,1.3c-0.3,0.4-0.8,0.8-1.3,1.2c-0.5,0.3-1.1,0.6-1.9,0.8
	C111.8,21.3,111,21.4,110.1,21.4z"/>
<path class="st1" d="M120.9,21.1c-0.2,0-0.4-0.1-0.5-0.2c-0.1-0.1-0.2-0.3-0.2-0.5V0.7c0-0.2,0.1-0.4,0.2-0.5
	c0.1-0.1,0.3-0.2,0.5-0.2h1.5c0.2,0,0.4,0.1,0.5,0.2c0.1,0.1,0.2,0.3,0.2,0.5v6.9c0.5-0.7,1.2-1.2,2-1.6c0.8-0.4,1.8-0.6,2.9-0.6
	c1.3,0,2.4,0.3,3.3,0.9c0.9,0.6,1.6,1.3,2,2.3c0.5,1,0.7,2.1,0.7,3.5v8.4c0,0.2-0.1,0.4-0.2,0.5c-0.1,0.1-0.3,0.2-0.5,0.2h-1.5
	c-0.2,0-0.4-0.1-0.5-0.2c-0.1-0.1-0.2-0.3-0.2-0.5v-8.2c0-1.4-0.3-2.5-1-3.2c-0.7-0.8-1.7-1.2-3-1.2c-1.2,0-2.2,0.4-3,1.2
	c-0.8,0.8-1.1,1.8-1.1,3.2v8.2c0,0.2-0.1,0.4-0.2,0.5c-0.1,0.1-0.3,0.2-0.5,0.2H120.9z"/>
</svg>
