<?xml version="1.0" encoding="utf-8"?>
<!-- Generator: Adobe Illustrator 28.1.0, SVG Export Plug-In . SVG Version: 6.00 Build 0)  -->
<svg version="1.1" id="Layer_1" xmlns="http://www.w3.org/2000/svg" xmlns:xlink="http://www.w3.org/1999/xlink" x="0px" y="0px"
	 viewBox="0 0 17 14" style="enable-background:new 0 0 17 14;" xml:space="preserve">
<style type="text/css">
	.st0{fill:#FF8DA1;}
</style>
<g>
	<path class="st0" d="M1,1h15 M1,7h15 M1,13h15"/>
	<path class="st0" d="M16,14H1c-0.6,0-1-0.4-1-1s0.4-1,1-1h15c0.6,0,1,0.4,1,1S16.6,14,16,14z M16,8H1C0.4,8,0,7.6,0,7s0.4-1,1-1h15
		c0.6,0,1,0.4,1,1S16.6,8,16,8z M16,2H1C0.4,2,0,1.6,0,1s0.4-1,1-1h15c0.6,0,1,0.4,1,1S16.6,2,16,2z"/>
</g>
</svg>
