<?xml version="1.0" encoding="utf-8"?>
<!-- Generator: Adobe Illustrator 28.1.0, SVG Export Plug-In . SVG Version: 6.00 Build 0)  -->
<svg version="1.1" id="Layer_1" xmlns="http://www.w3.org/2000/svg" xmlns:xlink="http://www.w3.org/1999/xlink" x="0px" y="0px"
	 viewBox="0 0 11 11" style="enable-background:new 0 0 11 11;" xml:space="preserve">
<style type="text/css">
	.st0{fill:#FFFAF0;}
</style>
<g>
	<path class="st0" d="M9.8,8.8L9.8,8.8v0.1l0.7,0.7c0.1,0.1,0.2,0.3,0.2,0.4c0,0.2-0.1,0.3-0.2,0.4c-0.1,0.1-0.3,0.2-0.4,0.2
		c-0.2,0-0.3-0.1-0.4-0.2L8.9,9.8V9.7L8.8,9.8c-0.9,0.7-2.1,1.1-3.3,1.1s-2.4-0.4-3.3-1.1L2.1,9.7v0.1l-0.7,0.7
		c-0.1,0.1-0.3,0.2-0.4,0.2c-0.2,0-0.3-0.1-0.4-0.2c-0.1-0.1-0.2-0.3-0.2-0.4c0-0.2,0.1-0.3,0.2-0.4L1.3,9l0.1-0.1L1.2,8.8
		C0.5,7.9,0.1,6.7,0.1,5.5s0.4-2.4,1.1-3.3l0.1-0.1l-0.1,0L0.5,1.3C0.4,1.2,0.3,1.1,0.3,0.9s0.1-0.3,0.2-0.4s0.3-0.2,0.4-0.2
		c0.2,0,0.3,0.1,0.4,0.2L2,1.2l0.1,0.1l0.1-0.1c0.9-0.7,2.1-1.1,3.3-1.1s2.4,0.4,3.3,1.1l0.1,0.1L9,1.2l0.7-0.7
		c0.1-0.1,0.3-0.2,0.4-0.2c0.1,0,0.2,0,0.2,0c0.1,0,0.1,0.1,0.2,0.1c0.1,0.1,0.2,0.3,0.2,0.4c0,0.2-0.1,0.3-0.2,0.4L9.8,2.1H9.7
		l0.1,0.1c0.7,0.9,1.1,2.1,1.1,3.3S10.5,7.9,9.8,8.8z M8.8,8L8.8,8H9c0.5-0.7,0.8-1.6,0.8-2.4c0-0.9-0.3-1.7-0.8-2.4L8.9,3H8.8
		L7.6,4.3H7.5v0.1c0.2,0.3,0.3,0.7,0.3,1.1S7.7,6.3,7.5,6.6v0.1l0.1,0.1L8.8,8z M4.3,5.5L4.3,5.5c0,0.3,0.1,0.6,0.3,0.8
		c0.2,0.2,0.5,0.3,0.8,0.3l0,0c0.2,0,0.5-0.1,0.6-0.2c0.2-0.1,0.3-0.3,0.4-0.5s0.1-0.4,0.1-0.7c0-0.2-0.2-0.4-0.3-0.6
		c0-0.1-0.2-0.2-0.5-0.2c-0.2,0-0.5,0-0.7,0.1c-0.2,0-0.3,0.2-0.5,0.4C4.4,5,4.3,5.3,4.3,5.5z M8,2.2L8,2.2V2
		C7.2,1.5,6.4,1.3,5.5,1.3l0,0c-0.9,0-1.7,0.3-2.4,0.8H3v0.1l1.2,1.2l0.1,0.1h0.1c0.3-0.2,0.7-0.3,1.1-0.3s0.8,0.1,1.1,0.3h0.1
		l0.1-0.1L8,2.2z M1.3,5.5L1.3,5.5c0,0.9,0.3,1.7,0.8,2.4V8h0.1l1.2-1.2l0.1-0.1V6.6C3.3,6.3,3.2,5.9,3.2,5.5s0.1-0.8,0.3-1.1V4.3
		H3.4L2.2,3H2.1v0.1C1.5,3.8,1.3,4.6,1.3,5.5z M3,8.8L3,8.8V9c0.7,0.5,1.6,0.8,2.4,0.8c0.9,0,1.7-0.3,2.4-0.8L8,8.9V8.8L6.7,7.6V7.5
		H6.6C6.3,7.7,5.9,7.8,5.5,7.8S4.7,7.7,4.4,7.5H4.3v0.1L3,8.8z"/>
	<path class="st0" d="M5.5,11c-1.2,0-2.4-0.4-3.3-1.1l-0.7,0.7c-0.1,0.1-0.3,0.2-0.5,0.2c-0.2,0-0.4-0.1-0.5-0.2
		c-0.1-0.1-0.2-0.3-0.2-0.5c0-0.2,0.1-0.4,0.2-0.5l0.7-0.7L1.1,8.9C0.4,7.9,0,6.7,0,5.5c0-1.2,0.4-2.4,1.1-3.3L0.4,1.4
		C0.3,1.3,0.2,1.1,0.2,0.9c0-0.2,0.1-0.4,0.2-0.5c0.1-0.1,0.3-0.2,0.5-0.2c0.2,0,0.4,0.1,0.5,0.2l0.7,0.7l0,0C3.1,0.4,4.3,0,5.5,0
		c1.2,0,2.4,0.4,3.4,1.1l0,0l0.7-0.7c0.1-0.1,0.3-0.2,0.5-0.2h0.2c0.1,0,0.1,0,0.2,0.1c0,0,0,0,0,0h0l0,0c0.1,0.1,0.2,0.3,0.2,0.5
		c0,0.2-0.1,0.4-0.2,0.5L9.9,2.2C10.6,3.1,11,4.3,11,5.5c0,1.2-0.4,2.4-1.1,3.3v0l0.7,0.7c0.1,0.1,0.2,0.3,0.2,0.5
		c0,0.2-0.1,0.4-0.2,0.5c-0.1,0.1-0.3,0.2-0.5,0.2c-0.2,0-0.4-0.1-0.5-0.2L8.8,9.9C7.9,10.6,6.7,11,5.5,11z M2,9.5l0.3,0.3
		c0.9,0.7,2.1,1.1,3.2,1.1c1.2,0,2.4-0.4,3.2-1.1L9,9.5v0.3l0.8,0.6c0.1,0.1,0.2,0.2,0.3,0.2c0.1,0,0.2-0.1,0.3-0.2
		c0.1-0.1,0.2-0.2,0.2-0.3c0-0.1-0.1-0.2-0.2-0.3L9.7,8.9V8.8l0,0c0.7-0.9,1.1-2.1,1.1-3.2c0-1.2-0.4-2.4-1.1-3.2L9.5,2h0.3l0.7-0.9
		C10.5,1,10.6,1,10.6,0.8c0-0.1-0.1-0.2-0.1-0.3c-0.1,0-0.1,0-0.1-0.1c0,0,0,0,0,0h-0.2c-0.1,0-0.2,0.1-0.3,0.2L8.9,1.4L8.7,1.3
		C7.9,0.6,6.7,0.2,5.5,0.2S3.1,0.6,2.3,1.3L2.1,1.4L1.2,0.6C1.1,0.5,1.1,0.4,0.9,0.4c-0.1,0-0.2,0.1-0.3,0.2
		C0.5,0.7,0.4,0.7,0.4,0.9c0,0.2,0.1,0.2,0.2,0.3L1.2,2h0.3L1.3,2.3C0.6,3.1,0.2,4.3,0.2,5.5c0,1.2,0.4,2.3,1.1,3.2l0.3,0.2L0.7,9.8
		c-0.1,0.1-0.2,0.2-0.2,0.3c0,0.1,0.1,0.2,0.2,0.3c0.1,0.1,0.2,0.2,0.3,0.2c0.1,0,0.2-0.1,0.3-0.2L2,9.8V9.5z M5.4,9.9
		c-0.8,0-1.7-0.3-2.5-0.8l0,0V8.8l0,0l1.3-1.2V7.4h0.2l0,0c0.3,0.2,0.6,0.3,1,0.3s0.8-0.1,1-0.3l0,0h0.2v0.2l1.3,1.2V9L7.8,9.1
		C7.1,9.6,6.3,9.9,5.4,9.9z M3.1,8.9c0.7,0.5,1.5,0.8,2.3,0.8c0.8,0,1.6-0.3,2.3-0.8l0.2-0.1L6.6,7.6v0C6.3,7.8,5.9,7.9,5.5,7.9
		c-0.4,0-0.8-0.1-1.1-0.3v0l0,0L3.1,8.8V8.9z M9.1,8.1H8.8L7.4,6.7V6.6l0,0c0.2-0.3,0.3-0.6,0.3-1s-0.1-0.8-0.3-1l0,0V4.2h0.2
		l1.2-1.3H9l0.1,0.3c0.5,0.7,0.8,1.6,0.8,2.4C9.9,6.4,9.6,7.3,9.1,8.1L9.1,8.1z M8.8,7.9h0.1c0.5-0.7,0.8-1.5,0.8-2.3
		c0-0.8-0.3-1.6-0.8-2.3L8.8,3.1L7.6,4.4h0c0.2,0.3,0.3,0.7,0.3,1.1c0,0.4-0.1,0.8-0.3,1.1v0L8.8,7.9z M2.2,8.1H2V7.9
		C1.5,7.2,1.2,6.4,1.2,5.5c0-1,0.3-1.8,0.8-2.4V2.9h0.2l0,0l1.2,1.3h0.2v0.2l0,0c-0.2,0.3-0.3,0.6-0.3,1s0.1,0.8,0.3,1l0,0v0.2
		L3.5,6.9L2.2,8.1z M2.2,3.1L2.2,3.1C1.6,3.8,1.4,4.5,1.4,5.5c0,0.8,0.3,1.6,0.8,2.3l0,0l1.2-1.2v0C3.2,6.3,3.1,5.9,3.1,5.5
		c0-0.4,0.1-0.8,0.3-1.1h0l0,0L2.2,3.1z M5.4,6.7c-0.3,0-0.7-0.1-0.9-0.3C4.3,6.2,4.2,5.8,4.2,5.5c0-0.2,0.1-0.5,0.2-0.7
		c0.1-0.1,0.1-0.1,0.1-0.2C4.7,4.5,4.8,4.4,5,4.4c0.2-0.1,0.5-0.1,0.7-0.1c0.3,0,0.6,0.1,0.6,0.3c0,0.1,0.1,0.1,0.1,0.2
		C6.5,4.9,6.6,5,6.6,5.2c0,0.3,0,0.5-0.1,0.7C6.4,6.2,6.3,6.4,6.1,6.5C5.9,6.6,5.6,6.7,5.4,6.7z M5,4.6c-0.1,0-0.2,0.1-0.3,0.2
		c0,0.1-0.1,0.1-0.1,0.2C4.5,5,4.4,5.3,4.4,5.5c0,0.3,0.1,0.6,0.3,0.7c0.2,0.2,0.4,0.3,0.7,0.3c0.2,0,0.5-0.1,0.5-0.2l0,0
		C6.1,6.2,6.2,6,6.3,5.9c0.1-0.2,0.1-0.4,0.1-0.7c0-0.1-0.1-0.2-0.2-0.3c0-0.1-0.1-0.1-0.1-0.2l0,0c0,0-0.1-0.1-0.4-0.1
		C5.5,4.5,5.2,4.5,5,4.6L5,4.6z M6.7,3.6H6.6l0,0c-0.3-0.2-0.6-0.3-1-0.3s-0.8,0.1-1,0.3l0,0H4.3L4.1,3.5L2.9,2.2V2h0.2
		c0.8-0.5,1.6-0.8,2.4-0.8c1,0,1.8,0.2,2.6,0.7l0,0v0.3L6.7,3.6z M6.6,3.4L6.6,3.4l1.3-1.2V2.1C7.2,1.6,6.4,1.4,5.5,1.4
		c-0.8,0-1.6,0.3-2.3,0.8l0,0l1.2,1.2h0c0.3-0.2,0.7-0.3,1.1-0.3S6.3,3.2,6.6,3.4z"/>
</g>
</svg>
