<?xml version="1.0" encoding="utf-8"?>
<!-- Generator: Adobe Illustrator 28.1.0, SVG Export Plug-In . SVG Version: 6.00 Build 0)  -->
<svg version="1.1" id="Layer_1" xmlns="http://www.w3.org/2000/svg" xmlns:xlink="http://www.w3.org/1999/xlink" x="0px" y="0px"
	 viewBox="0 0 11 11" style="enable-background:new 0 0 11 11;" xml:space="preserve">
<style type="text/css">
	.st0{fill:#FFFAF0;}
</style>
<path class="st0" d="M5.5,3.2c-1.3,0-2.3,1-2.3,2.3s1,2.3,2.3,2.3s2.3-1,2.3-2.3S6.8,3.2,5.5,3.2z M5.5,6.9c-0.8,0-1.4-0.6-1.4-1.4
	s0.6-1.4,1.4-1.4s1.4,0.6,1.4,1.4S6.3,6.9,5.5,6.9z M11,5h-0.9C9.8,2.9,8.1,1.2,6,0.9V0H5v0.9C2.9,1.2,1.2,2.9,0.9,5H0V6h0.9
	C1.2,8.1,2.9,9.8,5,10.1V11H6v-0.9C8.1,9.8,9.8,8.1,10.1,6H11V5z M5.5,9.2c-2,0-3.7-1.6-3.7-3.7s1.6-3.7,3.7-3.7s3.7,1.6,3.7,3.7
	S7.5,9.2,5.5,9.2z"/>
</svg>
