<?xml version="1.0" encoding="utf-8"?>
<!-- Generator: Adobe Illustrator 28.1.0, SVG Export Plug-In . SVG Version: 6.00 Build 0)  -->
<svg version="1.1" id="Layer_1" xmlns="http://www.w3.org/2000/svg" xmlns:xlink="http://www.w3.org/1999/xlink" x="0px" y="0px"
	 viewBox="0 0 22 22" style="enable-background:new 0 0 22 22;" xml:space="preserve">
<style type="text/css">
	.st0{fill:#FFFAF0;}
</style>
<path class="st0" d="M11,6.4c-2.5,0-4.6,2.1-4.6,4.6c0,2.5,2.1,4.6,4.6,4.6c2.5,0,4.6-2.1,4.6-4.6C15.6,8.5,13.5,6.4,11,6.4z
	 M11,13.8c-1.5,0-2.8-1.2-2.8-2.8c0-1.5,1.2-2.8,2.8-2.8c1.5,0,2.8,1.2,2.8,2.8C13.8,12.5,12.5,13.8,11,13.8z M22,10.1h-1.9
	c-0.4-4.3-3.9-7.8-8.2-8.2V0h-1.8v1.9c-4.3,0.4-7.8,3.9-8.2,8.2H0v1.8h1.9c0.4,4.3,3.9,7.8,8.2,8.2V22h1.8v-1.9
	c4.3-0.4,7.8-3.9,8.2-8.2H22V10.1z M11,18.3c-4,0-7.3-3.3-7.3-7.3C3.7,7,7,3.7,11,3.7c4,0,7.3,3.3,7.3,7.3C18.3,15,15,18.3,11,18.3z
	"/>
</svg>
