<?xml version="1.0" encoding="utf-8"?>
<!-- Generator: Adobe Illustrator 28.1.0, SVG Export Plug-In . SVG Version: 6.00 Build 0)  -->
<svg version="1.1" id="Layer_1" xmlns="http://www.w3.org/2000/svg" xmlns:xlink="http://www.w3.org/1999/xlink" x="0px" y="0px"
	 viewBox="0 0 26 26" style="enable-background:new 0 0 26 26;" xml:space="preserve">
<style type="text/css">
	.st0{fill:#212121;}
	.st1{fill-rule:evenodd;clip-rule:evenodd;fill:#212121;}
</style>
<path class="st0" d="M25.7,22.7l-4.8-4.8c-0.4-0.4-1.1-0.5-1.5-0.1l-2.1-2.1c3-3.8,2.8-9.4-0.7-12.9C12.8-1,6.7-1,2.9,2.8
	s-3.8,9.9,0,13.7c1.8,1.8,4.3,2.8,6.8,2.8c2.2,0,4.3-0.7,6-2.1l2.1,2.1c-0.3,0.5-0.3,1.1,0.1,1.5l4.8,4.8c0.2,0.2,0.5,0.3,0.8,0.3
	s0.6-0.1,0.8-0.3l1.3-1.3c0.1-0.1,0.2-0.2,0.3-0.4c0.1-0.1,0.1-0.3,0.1-0.4c0-0.2,0-0.3-0.1-0.4C25.9,22.9,25.8,22.8,25.7,22.7z
	 M15.5,16.4L15.5,16.4c-3.5,3-8.8,2.9-12.1-0.5c-3.5-3.5-3.5-9.1,0-12.6c1.7-1.7,3.9-2.6,6.3-2.6s4.6,0.9,6.3,2.6
	c3.5,3.5,3.5,9.1,0,12.6C15.8,16.1,15.7,16.3,15.5,16.4z M16.3,16.8c0.1-0.1,0.2-0.1,0.2-0.2c0.1-0.1,0.2-0.2,0.2-0.2l2.1,2.1
	L18.3,19L16.3,16.8z M25.1,23.8l-1.3,1.3c-0.2,0.2-0.4,0.2-0.6,0l-4.8-4.8c-0.2-0.2-0.2-0.4,0-0.6l1.3-1.3l0.1-0.1c0,0,0.1,0,0.2,0
	s0.2,0,0.3,0.1l4.8,4.8C25.3,23.4,25.3,23.7,25.1,23.8z"/>
<path class="st0" d="M17.7,8.7c-0.2-1.8-1-3.5-2.3-4.8c-1.5-1.5-3.6-2.4-5.7-2.4C7.5,1.5,5.5,2.3,4,3.9c-1.3,1.3-2.1,3-2.3,4.8v0.1
	l0,0.2l0.1,0.1h0.1H2c0,0,0.1,0,0.1-0.1l0.1-0.1V8.8c0.2-1.7,0.9-3.2,2.1-4.3c1.4-1.4,3.2-2.2,5.2-2.2s3.8,0.8,5.2,2.2
	c1.2,1.2,1.9,2.7,2.1,4.3c0,0.2,0.2,0.4,0.4,0.3h0.1L17.4,9l0.1-0.1C17.7,8.8,17.7,8.8,17.7,8.7z M17.4,10.2c-0.2,0-0.4,0.1-0.4,0.3
	c-0.2,1.7-0.9,3.2-2.1,4.3c-1.4,1.4-3.2,2.2-5.2,2.2s-3.8-0.8-5.2-2.2c-1.2-1.2-1.9-2.7-2.1-4.4v-0.1l-0.1-0.1l-0.1-0.1H2.1H2
	l-0.1,0.1l-0.1,0.1v0.1c0.2,1.8,1,3.5,2.3,4.8c1.5,1.5,3.6,2.4,5.7,2.4c2.2,0,4.2-0.8,5.7-2.4c1.3-1.3,2.1-3,2.3-4.8v-0.1
	c0,0,0-0.1-0.1-0.1l-0.1-0.1C17.5,10.2,17.4,10.2,17.4,10.2z"/>
<path class="st1" d="M9.6,6.1c-0.5,0-1,0.4-1,1c0,0.4,0.5,0.9,1,0.9s1-0.4,1-1C10.5,6.5,10.1,6.1,9.6,6.1z M9.6,7.6
	c-0.1,0-0.3,0-0.4-0.1C9.1,7.5,9.1,7.4,9,7.3C9,7.1,9,7,9,6.9c0-0.1,0.1-0.3,0.1-0.3c0.1-0.1,0.3-0.1,0.3-0.1c0.1,0,0.3,0,0.4,0
	c0.1,0,0.3,0.1,0.3,0.3c0.1,0.1,0.1,0.3,0.1,0.4c0,0.1-0.1,0.3-0.1,0.4C9.8,7.5,9.7,7.6,9.6,7.6z M14.4,8.8
	c-0.1-0.3-0.4-0.4-0.8-0.4c-0.9,0-1.6,0.9-2.3,1.9c-0.1-0.4-0.4-0.6-0.6-1C10.3,8.9,10,8.8,9.6,8.8S8.8,8.9,8.4,9.3
	c-0.3,0.3-0.6,0.8-0.8,1C7.1,9.4,6.3,8.5,5.4,8.5C5,8.5,4.8,8.6,4.7,8.9C4.5,9,4.4,9.3,4.4,9.7c0,0.3,0,0.5,0.1,0.8l0,0
	c0,0.3,0,0.6,0.1,0.9l0,0v0.1c0.5,2.3,2.5,4,4.9,4c2.8,0,5.1-2.3,5.1-5.1l0,0c0.1-0.3,0.1-0.5,0.1-0.8C14.6,9.3,14.6,9,14.4,8.8z
	 M14,11.4c-0.4,0.5-0.8,0.8-1.1,0.8c-0.5,0-0.9-0.4-1.3-0.9c0,0.8-0.1,1.5-0.4,2.1c0.5-0.1,1-0.4,1.5-0.5
	C13.5,12.6,13.9,12.1,14,11.4z M11.4,11c-0.5,0.6-1.1,1.4-1.8,1.4c-0.6,0-1.3-0.6-1.8-1.4c0,0.9,0.1,1.8,0.5,2.5
	c0.4,0.1,0.9,0.1,1.3,0.1c0.5,0,0.9,0,1.4-0.1C11.1,12.8,11.4,11.9,11.4,11z M7.4,11.3c-0.4,0.5-0.8,0.9-1.3,0.9
	c-0.4,0-0.8-0.3-1.1-0.8c0.3,0.5,0.6,1,1.4,1.5c0.4,0.3,0.9,0.4,1.4,0.5C7.6,12.8,7.4,12.1,7.4,11.3z M7.9,10.7
	C8.3,10,9,9.2,9.6,9.2s1.1,0.8,1.6,1.5c-0.5,0.6-1.1,1.4-1.6,1.4c-0.5,0-1-0.5-1.4-1.1C8.1,10.8,7.9,10.7,7.9,10.7z M13.9,11.2
	c-0.3,0.5-0.6,0.8-0.9,0.8c-0.5,0-0.9-0.6-1.3-1.3l0,0c0.6-0.9,1.3-1.8,2-1.8c0.4,0,0.6,0.3,0.6,0.8C14.3,10,14.1,10.7,13.9,11.2z
	 M6.2,11.9c-0.3,0-0.6-0.3-0.9-0.8C4.9,10.7,4.8,10,4.8,9.7c0-0.5,0.3-0.8,0.6-0.8c0.8-0.1,1.4,0.8,2,1.6l0,0l0,0
	C7.1,11.3,6.7,11.9,6.2,11.9z M12.7,7c0-0.5,0.4-1,1-1c0.5,0,1,0.4,1,1c-0.1,0.5-0.5,1-1,1C13.2,8,12.7,7.5,12.7,7z M13.4,7.5
	c0.1,0.1,0.3,0.1,0.4,0.1c0.1,0,0.3-0.1,0.4-0.1c0.1-0.1,0.1-0.3,0.1-0.4c0-0.1,0-0.3-0.1-0.4C14,6.6,14,6.6,13.9,6.5
	c-0.1,0-0.3,0-0.4,0c-0.1,0-0.3,0.1-0.3,0.1c-0.1,0.1-0.1,0.3-0.1,0.3c0,0.1,0,0.3,0,0.4C13.2,7.4,13.2,7.5,13.4,7.5z M5.4,6.1
	c-0.5,0-1,0.4-1,0.9c0,0.5,0.5,1,1,1s1-0.4,1-1C6.3,6.5,5.9,6.1,5.4,6.1z M5.4,7.6c-0.1,0-0.3,0-0.4-0.1c-0.1,0-0.1-0.1-0.3-0.3
	c-0.1-0.1,0-0.3,0-0.4c0-0.1,0.1-0.3,0.1-0.3C5,6.5,5.2,6.5,5.2,6.5c0.1,0,0.3,0,0.4,0c0.1,0,0.3,0.1,0.3,0.3c0.1,0,0.3,0.1,0.3,0.3
	c0,0.1-0.1,0.3-0.1,0.4C5.7,7.5,5.5,7.6,5.4,7.6z M8.7,15c-1.3-0.3-2.4-1-3.2-2.1c0.3,0.1,0.4,0.3,0.6,0.4c0.5,0.3,1.1,0.5,1.8,0.6
	c0,0,0,0,0,0.1C8.2,14.3,8.4,14.7,8.7,15L8.7,15z M9,14.7c-0.1-0.1-0.4-0.5-0.5-0.8c0.4,0,0.8,0.1,1.1,0.1c0.4,0,0.8,0,1.1-0.1
	c-0.1,0.4-0.4,0.6-0.5,0.8C10,15,9.8,15,9.6,15S9.1,15,9,14.7z M11.1,13.9C11.1,13.9,11.1,13.8,11.1,13.9c0.8-0.3,1.3-0.5,1.8-0.8
	c0.3-0.1,0.4-0.3,0.6-0.4c-0.6,1.1-1.8,1.9-3.2,2.1l0,0C10.7,14.7,11,14.3,11.1,13.9z"/>
</svg>
