<?xml version="1.0" encoding="utf-8"?>
<!-- Generator: Adobe Illustrator 28.1.0, SVG Export Plug-In . SVG Version: 6.00 Build 0)  -->
<svg version="1.1" id="Layer_1" xmlns="http://www.w3.org/2000/svg" xmlns:xlink="http://www.w3.org/1999/xlink" x="0px" y="0px"
	 viewBox="0 0 26 26" style="enable-background:new 0 0 26 26;" xml:space="preserve">
<style type="text/css">
	.st0{fill:#050505;}
	.st1{fill-rule:evenodd;clip-rule:evenodd;fill:#050505;}
</style>
<path class="st0" d="M25.7,22.7l-4.8-4.8c-0.4-0.4-1.1-0.5-1.5-0.1l-2.1-2.1c3-3.8,2.8-9.4-0.7-12.9C12.8-1,6.7-1,2.9,2.8
	s-3.8,9.9,0,13.7c1.8,1.8,4.3,2.8,6.8,2.8c2.2,0,4.3-0.7,6-2.1l2.1,2.1c-0.3,0.5-0.3,1.1,0.1,1.5l4.8,4.8c0.2,0.2,0.5,0.3,0.8,0.3
	s0.6-0.1,0.8-0.3l1.3-1.3c0.1-0.1,0.2-0.2,0.3-0.4c0.1-0.1,0.1-0.3,0.1-0.4c0-0.2,0-0.3-0.1-0.4C25.9,22.9,25.8,22.8,25.7,22.7z
	 M15.5,16.4L15.5,16.4c-3.5,3-8.8,2.9-12.1-0.5c-3.5-3.5-3.5-9.1,0-12.6c1.7-1.7,3.9-2.6,6.3-2.6s4.6,0.9,6.3,2.6
	c3.5,3.5,3.5,9.1,0,12.6C15.8,16.1,15.7,16.3,15.5,16.4z M16.3,16.8c0.1-0.1,0.2-0.1,0.2-0.2c0.1-0.1,0.2-0.2,0.2-0.2l2.1,2.1
	L18.3,19L16.3,16.8z M25.1,23.8l-1.3,1.3c-0.2,0.2-0.4,0.2-0.6,0l-4.8-4.8c-0.2-0.2-0.2-0.4,0-0.6l1.3-1.3l0.1-0.1c0,0,0.1,0,0.2,0
	s0.2,0,0.3,0.1l4.8,4.8C25.3,23.4,25.3,23.7,25.1,23.8z"/>
<path class="st0" d="M17.7,8.7c-0.2-1.8-1-3.5-2.3-4.8c-1.5-1.5-3.6-2.4-5.7-2.4C7.5,1.5,5.5,2.3,4,3.9c-1.3,1.3-2.1,3-2.3,4.8v0.1
	V9l0.1,0.1h0.1H2c0,0,0.1,0,0.1-0.1l0.1-0.1V8.8c0.2-1.7,0.9-3.2,2.1-4.3c1.4-1.4,3.2-2.2,5.2-2.2s3.8,0.8,5.2,2.2
	c1.2,1.2,1.9,2.7,2.1,4.3c0,0.2,0.2,0.4,0.4,0.3h0.1L17.4,9l0.1-0.1C17.7,8.8,17.7,8.8,17.7,8.7z M17.4,10.2c-0.2,0-0.4,0.1-0.4,0.3
	c-0.2,1.7-0.9,3.2-2.1,4.3c-1.4,1.4-3.2,2.2-5.2,2.2s-3.8-0.8-5.2-2.2c-1.2-1.2-1.9-2.7-2.1-4.4v-0.1l-0.1-0.1l-0.1-0.1H2.1H2
	l-0.1,0.1l-0.1,0.1v0.1c0.2,1.8,1,3.5,2.3,4.8c1.5,1.5,3.6,2.4,5.7,2.4c2.2,0,4.2-0.8,5.7-2.4c1.3-1.3,2.1-3,2.3-4.8v-0.1
	c0,0,0-0.1-0.1-0.1l-0.1-0.1C17.5,10.2,17.4,10.2,17.4,10.2z"/>
<path class="st1" d="M9.6,5.5c-0.6,0-1,0.5-1,1c0,0.6,0.5,1,1,1c0.6,0,1-0.5,1-1C10.6,6,10.1,5.5,9.6,5.5z M9.6,7.2
	c-0.1,0-0.3,0-0.4-0.1C9.1,7,9,6.9,9,6.8c0-0.1-0.1-0.2,0-0.4C9,6.3,9,6.2,9.1,6.1C9.2,6,9.3,5.9,9.4,5.9c0.1,0,0.3,0,0.4,0
	c0.1,0,0.2,0.1,0.3,0.2s0.1,0.2,0.1,0.4c0,0.2-0.1,0.3-0.2,0.5C9.9,7.1,9.7,7.2,9.6,7.2z M14.7,8.4c-0.2-0.2-0.5-0.4-0.8-0.4
	c-1,0-1.7,1-2.4,1.9c-0.2-0.4-0.5-0.7-0.8-1C10.4,8.6,10,8.3,9.6,8.3C9.1,8.3,8.7,8.6,8.3,9c-0.2,0.2-0.6,0.8-0.8,1
	C6.9,9,6.1,8.1,5.2,8.1c-0.3,0-0.6,0.1-0.8,0.4C4.2,8.7,4.1,8.9,4.1,9.3c0,0.3,0,0.6,0.1,0.8h0c0,0.3,0,0.6,0.1,0.9l0,0
	c0,0,0,0.1,0,0.1c0.5,2.4,2.6,4.3,5.2,4.3c2.9,0,5.3-2.4,5.3-5.3h0C14.9,9.9,15,9.6,15,9.3C15,8.9,14.9,8.7,14.7,8.4z M14.3,11.3
	c-0.4,0.5-0.8,0.8-1.2,0.8c-0.5,0-0.9-0.4-1.3-1c0,0.8-0.2,1.6-0.4,2.3c0.6-0.1,1.1-0.3,1.6-0.6C13.7,12.4,14.2,11.8,14.3,11.3z
	 M11.4,10.8c-0.5,0.7-1.2,1.4-1.9,1.4c-0.7,0-1.3-0.6-1.9-1.4c0,1,0.2,1.9,0.5,2.7c0.4,0.1,0.9,0.1,1.4,0.1c0.5,0,1,0,1.4-0.1
	C11.2,12.7,11.4,11.8,11.4,10.8z M7.3,11.1c-0.4,0.6-0.8,1-1.3,1c-0.4,0-0.9-0.3-1.2-0.8c0.2,0.6,0.7,1.1,1.4,1.5
	c0.4,0.2,0.9,0.4,1.5,0.6C7.5,12.7,7.4,11.9,7.3,11.1z M7.8,10.3c0.5-0.7,1.1-1.6,1.7-1.6c0.7,0,1.2,0.8,1.7,1.6
	c-0.5,0.7-1.2,1.5-1.7,1.5c-0.5,0-1-0.5-1.5-1.2C8,10.5,7.9,10.4,7.8,10.3z M14.1,10.9c-0.3,0.5-0.7,0.8-1,0.8
	c-0.5,0-0.9-0.6-1.4-1.4c0,0,0,0,0,0c0.7-0.9,1.4-1.9,2.2-1.9c0.4,0,0.7,0.3,0.7,0.9C14.6,9.8,14.4,10.4,14.1,10.9z M6,11.7
	c-0.3,0-0.7-0.3-1-0.8c-0.3-0.5-0.5-1.1-0.5-1.6c0-0.6,0.2-0.9,0.7-0.9c0.8,0,1.5,1,2.2,1.9c0,0,0,0,0,0c0,0,0,0,0,0
	C6.9,11.1,6.5,11.7,6,11.7z M13,6.5c0-0.6,0.5-1,1-1c0.6,0,1,0.5,1,1c0,0.6-0.5,1-1,1C13.4,7.6,13,7.1,13,6.5z M13.6,7.1
	c0.1,0.1,0.2,0.1,0.4,0.1c0.2,0,0.3-0.1,0.5-0.2c0.1-0.1,0.2-0.3,0.2-0.5c0-0.1,0-0.3-0.1-0.4C14.4,6.1,14.3,6,14.2,6
	c-0.1,0-0.2-0.1-0.4,0c-0.1,0-0.2,0.1-0.3,0.2c-0.1,0.1-0.2,0.2-0.2,0.3c0,0.1,0,0.3,0,0.4C13.4,6.9,13.5,7,13.6,7.1z M5.1,5.5
	c-0.6,0-1,0.5-1,1c0,0.6,0.5,1,1,1c0.6,0,1-0.5,1-1C6.2,6,5.7,5.5,5.1,5.5z M5.1,7.2c-0.1,0-0.3,0-0.4-0.1C4.7,7,4.6,6.9,4.6,6.8
	c0-0.1-0.1-0.2,0-0.4c0-0.1,0.1-0.2,0.2-0.3C4.8,6,4.9,5.9,5,5.9c0.1,0,0.3,0,0.4,0c0.1,0,0.2,0.1,0.3,0.2c0.1,0.1,0.1,0.2,0.1,0.4
	c0,0.2-0.1,0.3-0.2,0.5C5.5,7.1,5.3,7.2,5.1,7.2z M8.6,15c-1.4-0.3-2.6-1.1-3.3-2.3C5.5,12.8,5.8,13,6,13.1c0.5,0.3,1.2,0.5,1.9,0.7
	c0,0,0,0.1,0,0.1C8.1,14.3,8.3,14.7,8.6,15C8.6,15,8.6,15,8.6,15z M8.9,14.7c-0.2-0.2-0.4-0.5-0.6-0.8c0.4,0.1,0.8,0.1,1.2,0.1
	c0.4,0,0.8,0,1.2-0.1c-0.2,0.4-0.4,0.6-0.6,0.8C10,14.9,9.8,15,9.6,15C9.3,15,9.1,14.9,8.9,14.7z M11.2,13.9c0,0,0-0.1,0-0.1
	c0.7-0.1,1.4-0.4,1.9-0.7c0.2-0.1,0.5-0.3,0.7-0.4c-0.7,1.2-1.9,2.1-3.3,2.3c0,0,0,0,0,0C10.8,14.7,11,14.3,11.2,13.9z"/>
</svg>
