<?xml version="1.0" encoding="utf-8"?>
<!-- Generator: Adobe Illustrator 28.1.0, SVG Export Plug-In . SVG Version: 6.00 Build 0)  -->
<svg version="1.1" id="Layer_1" xmlns="http://www.w3.org/2000/svg" xmlns:xlink="http://www.w3.org/1999/xlink" x="0px" y="0px"
	 viewBox="0 0 20 27" style="enable-background:new 0 0 20 27;" xml:space="preserve">
<style type="text/css">
	.st0{fill:#212121;}
	.st1{fill-rule:evenodd;clip-rule:evenodd;fill:#212121;}
</style>
<path class="st0" d="M5.6,10.4c-0.8,1-1.3,2.2-1.4,3.5L5,14c0.1-1.1,0.5-2.2,1.2-3L5.6,10.4z M4.2,14.8c0.1,1.3,0.6,2.5,1.4,3.5
	l0.6-0.5c-0.7-0.9-1.2-1.9-1.2-3L4.2,14.8z M9.9,20.5l0.1-0.8c-1.1-0.1-2.2-0.5-3-1.2l-0.5,0.6C7.4,19.9,8.6,20.4,9.9,20.5z
	 M14.3,19.1l-0.5-0.6c-0.9,0.7-1.9,1.2-3,1.2l0.1,0.8C12.1,20.4,13.3,19.9,14.3,19.1z M14.4,17.8l0.6,0.5c0.8-1,1.3-2.2,1.4-3.5
	l-0.8-0.1C15.6,15.9,15.1,16.9,14.4,17.8z M15.1,10.4l-0.6,0.5c0.7,0.9,1.2,1.9,1.2,3l0.8-0.1C16.4,12.6,15.9,11.4,15.1,10.4z
	 M10.8,8.2L10.7,9c1.1,0.1,2.2,0.5,3,1.2l0.5-0.6C13.3,8.8,12.1,8.3,10.8,8.2z M6.4,9.6l0.5,0.6C7.8,9.5,8.8,9.1,10,9L9.9,8.2
	C8.6,8.3,7.4,8.8,6.4,9.6z M9.9,7h0.8v0.8H9.9V7z M3,13.9h0.8v0.8H3V13.9z M16.9,13.9h0.8v0.8h-0.8V13.9z"/>
<path class="st0" d="M18.3,21.3h-2.9c1.4-1,2.4-2.4,3-4l-0.8-0.3c-0.7,1.8-2.1,3.4-3.8,4.2h-7c-1.3-0.6-2.4-1.6-3.1-2.9
	c-0.8-1.2-1.2-2.7-1.2-4.1c0-4.3,3.5-7.8,7.8-7.8c4.3,0,7.8,3.5,7.8,7.8c0,0.7-0.1,1.3-0.2,1.9l0.8,0.2c0.2-0.7,0.3-1.4,0.3-2.2
	c0-4.6-3.6-8.4-8.2-8.6V4.1h3.1c0.9,0,1.8-0.4,2.5-1c0.7-0.7,1-1.5,1-2.5V0.4c0-0.1,0-0.2-0.1-0.3C17.1,0,17,0,16.9,0h-3.5
	c-0.6,0-1.3,0.2-1.8,0.5c-0.5,0.3-1,0.8-1.3,1.3c-0.3-0.6-0.7-1-1.3-1.3C8.5,0.2,7.9,0,7.3,0H3.8C3.7,0,3.6,0,3.5,0.1
	C3.4,0.2,3.4,0.3,3.4,0.4v0.2c0,0.9,0.4,1.8,1,2.5c0.7,0.7,1.5,1,2.5,1h1V3.3h-1C6.2,3.3,5.5,3,5,2.6C4.5,2.1,4.2,1.5,4.2,0.8h3.1
	c0.7,0,1.3,0.3,1.8,0.7C9.6,2,9.9,2.6,9.9,3.3H8.7v0.8h1.2v1.7c-4.6,0.2-8.2,4-8.2,8.6c0,1.4,0.3,2.7,0.9,3.9
	c0.6,1.2,1.5,2.3,2.6,3.1H2.3c-0.4,0-0.7,0.2-1,0.4c-0.3,0.3-0.4,0.6-0.4,1v2.1c0,0.4,0.2,0.7,0.4,1c0.3,0.3,0.6,0.4,1,0.4h3.5v-0.8
	H2.3c-0.2,0-0.3-0.1-0.4-0.2c-0.1-0.1-0.2-0.3-0.2-0.4v-2.1c0-0.2,0.1-0.3,0.2-0.4c0.1-0.1,0.3-0.2,0.4-0.2h16
	c0.2,0,0.3,0.1,0.4,0.2c0.1,0.1,0.2,0.3,0.2,0.4v2.1c0,0.2-0.1,0.3-0.2,0.4c-0.1,0.1-0.3,0.2-0.4,0.2H6.6v0.8h11.7
	c0.4,0,0.7-0.2,1-0.4c0.3-0.3,0.4-0.6,0.4-1v-2.1c0-0.4-0.2-0.7-0.4-1C19.1,21.5,18.7,21.3,18.3,21.3z M13.4,0.8h3.1
	c-0.1,0.7-0.4,1.3-0.8,1.8c-0.5,0.5-1.1,0.7-1.8,0.7h-3.1c0.1-0.7,0.4-1.3,0.8-1.8C12.1,1.1,12.7,0.8,13.4,0.8z"/>
<path class="st0" d="M2.5,23h0.8v1.6H2.5V23z M5,23h0.8v1.6H5V23z M7.5,23h0.8v1.6H7.5V23z M12.4,23h0.8v1.6h-0.8V23z M14.9,23h0.8
	v1.6h-0.8V23z M17.3,23h0.8v1.6h-0.8V23z M9.9,23h0.8v1.6H9.9V23z"/>
<path class="st1" d="M9,11.4l-0.6,0.3l0.1,0.6c-0.1,0-0.1,0.1-0.2,0.1l0.6,0.6C9,13,9.1,12.9,9.2,12.8l0.3-0.2v2.1l0.4,0.2l0.4,0.2
	l0.4-0.2l0.4-0.2v-2.1l0.3,0.2c0.1,0.1,0.2,0.2,0.3,0.3l0.6-0.6c0,0-0.1-0.1-0.1-0.1l0.1-0.6l-0.6-0.4l-0.5,0.4
	c-0.1,0-0.3-0.1-0.4-0.1l-0.2-0.6l-0.7,0l-0.2,0.6c-0.1,0-0.3,0.1-0.4,0.1L9,11.4z M13.2,12.5l-0.6,0.1l0,0L12,13.2
	c0.2,0.2,0.3,0.5,0.4,0.8c0.1,0.3,0.1,0.6,0.1,0.9c0,0.3-0.2,0.6-0.3,0.8c-0.2,0.3-0.4,0.5-0.6,0.6v1.1l0.3,0.3l0.6-0.3l-0.1-0.6
	c0.1-0.1,0.2-0.2,0.3-0.3l0.6,0.1l0.4-0.6l-0.4-0.5c0-0.1,0.1-0.3,0.1-0.4l0.6-0.2l0-0.7L13.3,14c0-0.1-0.1-0.3-0.1-0.4l0.4-0.4
	L13.2,12.5z M8.3,14c0.1-0.3,0.2-0.6,0.4-0.8l-0.6-0.6l-0.6-0.1l-0.4,0.6l0.4,0.5c0,0.1-0.1,0.3-0.1,0.4l-0.6,0.2l0,0.7l0.6,0.2
	c0,0.1,0.1,0.3,0.1,0.4L7.2,16l0.3,0.6l0.6-0.1c0.1,0.1,0.2,0.2,0.3,0.3l-0.1,0.6l0.6,0.4l0.3-0.3v-1.1C9,16.2,8.8,16,8.6,15.7
	c-0.2-0.2-0.3-0.5-0.3-0.8C8.2,14.6,8.3,14.3,8.3,14z"/>
</svg>
