<?xml version="1.0" encoding="utf-8"?>
<!-- Generator: Adobe Illustrator 28.1.0, SVG Export Plug-In . SVG Version: 6.00 Build 0)  -->
<svg version="1.1" id="Layer_1" xmlns="http://www.w3.org/2000/svg" xmlns:xlink="http://www.w3.org/1999/xlink" x="0px" y="0px"
	 viewBox="0 0 20 27" style="enable-background:new 0 0 20 27;" xml:space="preserve">
<style type="text/css">
	.st0{fill:url(#SVGID_1_);}
	.st1{fill:url(#SVGID_00000056404043237713392290000015635159569652900530_);}
	.st2{fill:url(#SVGID_00000053539398459031001800000006301157309297712057_);}
	.st3{fill-rule:evenodd;clip-rule:evenodd;fill:url(#SVGID_00000109019965245938993960000005593463058954659720_);}
</style>
<linearGradient id="SVGID_1_" gradientUnits="userSpaceOnUse" x1="10.35" y1="26.7036" x2="10.35" y2="1.6451">
	<stop  offset="0" style="stop-color:#F7D365"/>
	<stop  offset="0.502" style="stop-color:#EA4683"/>
	<stop  offset="1" style="stop-color:#735FA1"/>
</linearGradient>
<path class="st0" d="M5.6,10.4c-0.8,1-1.3,2.2-1.4,3.5L5,14c0.1-1.1,0.5-2.2,1.2-3L5.6,10.4z M4.2,14.8c0.1,1.3,0.6,2.5,1.4,3.5
	l0.6-0.5c-0.7-0.9-1.2-1.9-1.2-3L4.2,14.8z M9.9,20.5l0.1-0.8c-1.1-0.1-2.2-0.5-3-1.2l-0.5,0.6C7.4,19.9,8.6,20.4,9.9,20.5z
	 M14.3,19.1l-0.5-0.6c-0.9,0.7-1.9,1.2-3,1.2l0.1,0.8C12.1,20.4,13.3,19.9,14.3,19.1z M14.4,17.8l0.6,0.5c0.8-1,1.3-2.2,1.4-3.5
	l-0.8-0.1C15.6,15.9,15.1,16.9,14.4,17.8z M15.1,10.4l-0.6,0.5c0.7,0.9,1.2,1.9,1.2,3l0.8-0.1C16.4,12.6,15.9,11.4,15.1,10.4z
	 M10.8,8.2L10.7,9c1.1,0.1,2.2,0.5,3,1.2l0.5-0.6C13.3,8.8,12.1,8.3,10.8,8.2z M6.4,9.6l0.5,0.6C7.8,9.5,8.8,9.1,10,9L9.9,8.2
	C8.6,8.3,7.4,8.8,6.4,9.6z M9.9,7h0.8v0.8H9.9V7z M3,13.9h0.8v0.8H3V13.9z M16.9,13.9h0.8v0.8h-0.8V13.9z"/>
<linearGradient id="SVGID_00000016781322776769106500000010838144008350510995_" gradientUnits="userSpaceOnUse" x1="10.3" y1="26.7036" x2="10.3" y2="1.6451">
	<stop  offset="0" style="stop-color:#F7D365"/>
	<stop  offset="0.502" style="stop-color:#EA4683"/>
	<stop  offset="1" style="stop-color:#735FA1"/>
</linearGradient>
<path style="fill:url(#SVGID_00000016781322776769106500000010838144008350510995_);" d="M18.3,21.3h-2.9c1.4-1,2.4-2.4,3-4L17.6,17
	c-0.7,1.8-2.1,3.4-3.8,4.2h-7c-1.3-0.6-2.4-1.6-3.1-2.9c-0.8-1.2-1.2-2.7-1.2-4.1c0-4.3,3.5-7.8,7.8-7.8s7.8,3.5,7.8,7.8
	c0,0.7-0.1,1.3-0.2,1.9l0.8,0.2c0.2-0.7,0.3-1.4,0.3-2.2c0-4.6-3.6-8.4-8.2-8.6V4.1h3.1c0.9,0,1.8-0.4,2.5-1c0.7-0.7,1-1.5,1-2.5
	V0.4c0-0.1,0-0.2-0.1-0.3C17.1,0,17,0,16.9,0h-3.5c-0.6,0-1.3,0.2-1.8,0.5s-1,0.8-1.3,1.3C10,1.2,9.6,0.8,9,0.5C8.5,0.2,7.9,0,7.3,0
	H3.8C3.7,0,3.6,0,3.5,0.1S3.4,0.3,3.4,0.4v0.2c0,0.9,0.4,1.8,1,2.5c0.7,0.7,1.5,1,2.5,1h1V3.3h-1C6.2,3.3,5.5,3,5,2.6
	C4.5,2.1,4.2,1.5,4.2,0.8h3.1c0.7,0,1.3,0.3,1.8,0.7C9.6,2,9.9,2.6,9.9,3.3H8.7v0.8h1.2v1.7c-4.6,0.2-8.2,4-8.2,8.6
	c0,1.4,0.3,2.7,0.9,3.9s1.5,2.3,2.6,3.1H2.3c-0.4,0-0.7,0.2-1,0.4c-0.3,0.3-0.4,0.6-0.4,1v2.1c0,0.4,0.2,0.7,0.4,1
	c0.3,0.3,0.6,0.4,1,0.4h3.5v-0.8H2.3c-0.2,0-0.3-0.1-0.4-0.2S1.7,25,1.7,24.9v-2.1c0-0.2,0.1-0.3,0.2-0.4s0.3-0.2,0.4-0.2h16
	c0.2,0,0.3,0.1,0.4,0.2s0.2,0.3,0.2,0.4v2.1c0,0.2-0.1,0.3-0.2,0.4s-0.3,0.2-0.4,0.2H6.6v0.8h11.7c0.4,0,0.7-0.2,1-0.4
	c0.3-0.3,0.4-0.6,0.4-1v-2.1c0-0.4-0.2-0.7-0.4-1C19.1,21.5,18.7,21.3,18.3,21.3z M13.4,0.8h3.1c-0.1,0.7-0.4,1.3-0.8,1.8
	c-0.5,0.5-1.1,0.7-1.8,0.7h-3.1c0.1-0.7,0.4-1.3,0.8-1.8C12.1,1.1,12.7,0.8,13.4,0.8z"/>
<linearGradient id="SVGID_00000140694361775591789460000006647579887349365920_" gradientUnits="userSpaceOnUse" x1="10.3" y1="26.7036" x2="10.3" y2="1.6451">
	<stop  offset="0" style="stop-color:#F7D365"/>
	<stop  offset="0.502" style="stop-color:#EA4683"/>
	<stop  offset="1" style="stop-color:#735FA1"/>
</linearGradient>
<path style="fill:url(#SVGID_00000140694361775591789460000006647579887349365920_);" d="M2.5,23h0.8v1.6H2.5V23z M5,23h0.8v1.6H5
	V23z M7.5,23h0.8v1.6H7.5V23z M12.4,23h0.8v1.6h-0.8V23z M14.9,23h0.8v1.6h-0.8V23z M17.3,23h0.8v1.6h-0.8V23z M9.9,23h0.8v1.6H9.9
	V23z"/>
<linearGradient id="SVGID_00000122691991501983058760000010158333559260762540_" gradientUnits="userSpaceOnUse" x1="10.3" y1="16.4776" x2="10.3" y2="9.7507" gradientTransform="matrix(1 0 0 -1 0 28)">
	<stop  offset="0" style="stop-color:#F7D365"/>
	<stop  offset="0.502" style="stop-color:#EA4683"/>
	<stop  offset="1" style="stop-color:#735FA1"/>
</linearGradient>
<path style="fill-rule:evenodd;clip-rule:evenodd;fill:url(#SVGID_00000122691991501983058760000010158333559260762540_);" d="
	M10.3,11.5c-0.4,0-0.7,0.3-0.7,0.7c0,0.4,0.3,0.7,0.7,0.7c0.4,0,0.7-0.3,0.7-0.7C11,11.8,10.7,11.5,10.3,11.5z M10.3,12.6
	c-0.1,0-0.2,0-0.2-0.1c-0.1,0-0.1-0.1-0.2-0.2c0-0.1,0-0.2,0-0.3c0-0.1,0.1-0.2,0.1-0.2c0.1-0.1,0.1-0.1,0.2-0.1c0.1,0,0.2,0,0.3,0
	c0.1,0,0.1,0.1,0.2,0.2c0,0.1,0.1,0.2,0.1,0.2c0,0.1,0,0.2-0.1,0.3C10.5,12.6,10.4,12.6,10.3,12.6z M13.8,13.5
	c-0.1-0.2-0.3-0.3-0.6-0.3c-0.6,0-1.1,0.7-1.6,1.3c-0.2-0.3-0.3-0.5-0.5-0.7c-0.3-0.3-0.5-0.4-0.8-0.4c-0.3,0-0.6,0.1-0.8,0.4
	C9.3,14,9.1,14.4,9,14.6c-0.5-0.7-1-1.3-1.6-1.3c-0.2,0-0.4,0.1-0.6,0.3c-0.1,0.1-0.2,0.3-0.2,0.6c0,0.2,0,0.4,0.1,0.6h0
	c0,0.2,0,0.4,0.1,0.6l0,0c0,0,0,0.1,0,0.1c0.3,1.7,1.8,2.9,3.5,2.9c2,0,3.6-1.6,3.6-3.6h0c0.1-0.2,0.1-0.4,0.1-0.6
	C14,13.8,13.9,13.6,13.8,13.5z M13.5,15.4C13.3,15.8,13,16,12.7,16c-0.4,0-0.6-0.3-0.9-0.7c0,0.6-0.1,1.1-0.3,1.5
	c0.4-0.1,0.8-0.2,1.1-0.4C13.1,16.2,13.4,15.8,13.5,15.4z M11.6,15.1c-0.4,0.5-0.8,1-1.3,1c-0.5,0-0.9-0.4-1.3-1
	c0,0.7,0.1,1.3,0.3,1.8c0.3,0,0.6,0.1,1,0.1c0.3,0,0.7,0,1-0.1C11.4,16.4,11.6,15.8,11.6,15.1z M8.8,15.3C8.5,15.7,8.2,16,7.9,16
	c-0.3,0-0.6-0.2-0.8-0.6c0.1,0.4,0.5,0.8,1,1c0.3,0.2,0.6,0.3,1,0.4C8.9,16.4,8.8,15.9,8.8,15.3z M9.1,14.8c0.3-0.5,0.8-1.1,1.2-1.1
	c0.5,0,0.8,0.5,1.2,1.1c-0.3,0.5-0.8,1-1.2,1c-0.4,0-0.7-0.4-1-0.8C9.2,14.9,9.2,14.9,9.1,14.8z M13.4,15.2
	c-0.2,0.3-0.5,0.5-0.7,0.5c-0.3,0-0.6-0.4-0.9-0.9c0,0,0,0,0,0c0.5-0.6,0.9-1.3,1.5-1.3c0.3,0,0.5,0.2,0.5,0.6
	C13.7,14.4,13.6,14.8,13.4,15.2z M7.9,15.7c-0.2,0-0.5-0.2-0.7-0.5c-0.2-0.3-0.3-0.8-0.3-1.1c0-0.4,0.2-0.6,0.5-0.6
	c0.5,0,1,0.6,1.5,1.3c0,0,0,0,0,0c0,0,0,0,0,0C8.5,15.3,8.2,15.7,7.9,15.7z M12.6,12.2c0-0.4,0.3-0.7,0.7-0.7c0.4,0,0.7,0.3,0.7,0.7
	c0,0.4-0.3,0.7-0.7,0.7C12.9,12.9,12.6,12.6,12.6,12.2z M13.1,12.6c0.1,0,0.2,0.1,0.2,0.1c0.1,0,0.2,0,0.3-0.1
	c0.1-0.1,0.1-0.2,0.1-0.3c0-0.1,0-0.2-0.1-0.2s-0.1-0.1-0.2-0.2c-0.1,0-0.2,0-0.3,0c-0.1,0-0.2,0.1-0.2,0.1
	c-0.1,0.1-0.1,0.1-0.1,0.2c0,0.1,0,0.2,0,0.3C12.9,12.5,13,12.5,13.1,12.6z M7.3,11.5c-0.4,0-0.7,0.3-0.7,0.7c0,0.4,0.3,0.7,0.7,0.7
	c0.4,0,0.7-0.3,0.7-0.7C8,11.8,7.7,11.5,7.3,11.5z M7.3,12.6c-0.1,0-0.2,0-0.2-0.1c-0.1,0-0.1-0.1-0.2-0.2c0-0.1,0-0.2,0-0.3
	C6.9,12,6.9,12,7,11.9c0.1-0.1,0.1-0.1,0.2-0.1c0.1,0,0.2,0,0.3,0c0.1,0,0.1,0.1,0.2,0.2c0,0.1,0.1,0.2,0.1,0.2c0,0.1,0,0.2-0.1,0.3
	C7.5,12.6,7.4,12.6,7.3,12.6z M9.7,17.9c-1-0.2-1.8-0.8-2.2-1.6c0.1,0.1,0.3,0.2,0.5,0.3c0.4,0.2,0.8,0.4,1.3,0.4c0,0,0,0,0,0.1
	C9.3,17.5,9.5,17.7,9.7,17.9C9.7,17.9,9.7,17.9,9.7,17.9z M9.8,17.7c-0.1-0.1-0.3-0.3-0.4-0.6c0.3,0,0.5,0.1,0.8,0.1
	c0.3,0,0.6,0,0.8-0.1c-0.1,0.2-0.2,0.4-0.4,0.6c-0.2,0.1-0.3,0.2-0.5,0.2C10.1,18,10,17.9,9.8,17.7z M11.4,17.2
	C11.4,17.2,11.4,17.2,11.4,17.2c0.5-0.2,1-0.3,1.3-0.5c0.2-0.1,0.3-0.2,0.4-0.3c-0.5,0.8-1.3,1.4-2.2,1.6c0,0,0,0,0,0
	C11.1,17.7,11.3,17.5,11.4,17.2z"/>
</svg>
