<?xml version="1.0" encoding="utf-8"?>
<!-- Generator: Adobe Illustrator 28.1.0, SVG Export Plug-In . SVG Version: 6.00 Build 0)  -->
<svg version="1.1" id="Layer_1" xmlns="http://www.w3.org/2000/svg" xmlns:xlink="http://www.w3.org/1999/xlink" x="0px" y="0px"
	 viewBox="0 0 23 21" style="enable-background:new 0 0 23 21;" xml:space="preserve">
<style type="text/css">
	.st0{fill:#FFFAF0;}
</style>
<path class="st0" d="M18.2,0H4.8C2.1,0,0,2.1,0,4.8v9.5c0,2,1.2,3.6,2.9,4.4V20c0,0.5,0.4,1,1,1c0.5,0,1-0.4,1-1v-1h13.4v1
	c0,0.5,0.4,1,1,1s1-0.4,1-1v-1.4c1.7-0.7,2.9-2.4,2.9-4.4V4.8C23,2.1,20.9,0,18.2,0z M21.1,14.3c0,1.6-1.3,2.9-2.9,2.9H4.8
	c-1.6,0-2.9-1.3-2.9-2.9h1c0.5,0,1-0.4,1-1c0-0.5-0.4-1-1-1h-1V6.7h1c0.5,0,1-0.4,1-1s-0.4-1-1-1h-1c0-1.6,1.3-2.9,2.9-2.9h13.4
	c1.6,0,2.9,1.3,2.9,2.9V14.3z M12.5,3.8c-3.2,0-5.7,2.6-5.7,5.7c0,3.2,2.6,5.7,5.7,5.7c3.2,0,5.8-2.6,5.8-5.7
	C18.2,6.4,15.6,3.8,12.5,3.8z M12.5,13.4c-2.1,0-3.8-1.7-3.8-3.8c0-2.1,1.7-3.8,3.8-3.8c1.8,0,3.3,1.2,3.7,2.9h-1.7
	c-0.5,0-1,0.4-1,1c0,0.5,0.4,1,1,1h1.7C15.7,12.1,14.2,13.4,12.5,13.4z"/>
</svg>
