<?xml version="1.0" encoding="utf-8"?>
<!-- Generator: Adobe Illustrator 28.1.0, SVG Export Plug-In . SVG Version: 6.00 Build 0)  -->
<svg version="1.1" id="Layer_1" xmlns="http://www.w3.org/2000/svg" xmlns:xlink="http://www.w3.org/1999/xlink" x="0px" y="0px"
	 viewBox="0 0 10 10" style="enable-background:new 0 0 10 10;" xml:space="preserve">
<style type="text/css">
	.st0{fill:#FFFAF0;}
</style>
<path class="st0" d="M2.1,1.7c0-0.2,0.2-0.4,0.4-0.4h0.8V0.4C3.3,0.2,3.5,0,3.8,0s0.4,0.2,0.4,0.4v0.8H5c0.2,0,0.4,0.2,0.4,0.4
	S5.2,2.1,5,2.1H4.2v0.8c0,0.2-0.2,0.4-0.4,0.4S3.3,3.1,3.3,2.9V2.1H2.5C2.3,2.1,2.1,1.9,2.1,1.7z M9.7,5.4L6.8,8.6
	C6.1,9.5,4.9,10,3.7,10H1.7C0.7,10,0,9.3,0,8.3V6.2c0-0.9,0.7-1.7,1.7-1.7h3.7c0.5,0,0.9,0.3,1.1,0.6l1.3-1.5C8,3.5,8.4,3.3,8.7,3.3
	c0.3,0,0.7,0.1,0.9,0.3C10.1,4.1,10.1,4.9,9.7,5.4L9.7,5.4z M9,4.3C8.9,4.2,8.8,4.2,8.7,4.2c-0.1,0-0.2,0.1-0.3,0.1l-1.8,2
	C6.4,6.8,6,7.1,5.5,7.2L3.4,7.5C3.2,7.5,3,7.4,2.9,7.1c0-0.2,0.1-0.4,0.4-0.5l2.2-0.3c0.2,0,0.4-0.2,0.4-0.5c0-0.3-0.2-0.5-0.5-0.5
	H1.7c-0.5,0-0.8,0.4-0.8,0.8v2.1c0,0.5,0.4,0.8,0.8,0.8h2.1c0.9,0,1.9-0.4,2.5-1.1l2.8-3.2C9.2,4.7,9.2,4.4,9,4.3L9,4.3z"/>
</svg>
