<?xml version="1.0" encoding="utf-8"?>
<!-- Generator: Adobe Illustrator 28.1.0, SVG Export Plug-In . SVG Version: 6.00 Build 0)  -->
<svg version="1.1" id="Layer_1" xmlns="http://www.w3.org/2000/svg" xmlns:xlink="http://www.w3.org/1999/xlink" x="0px" y="0px"
	 viewBox="0 0 11 11" style="enable-background:new 0 0 11 11;" xml:space="preserve">
<style type="text/css">
	.st0{fill:#FFFAF0;}
</style>
<path class="st0" d="M2.9,5H1.4C1.3,5,1.2,5,1.1,5.1C1,5.3,0.9,5.4,0.9,5.5v1.4H0V5.5c0-0.4,0.1-0.7,0.4-1s0.6-0.4,1-0.4h2.1
	C3.2,4.4,3,4.7,2.9,5z M9.6,4.1H7.5C7.8,4.4,8,4.7,8.1,5h1.5c0.1,0,0.2,0,0.3,0.1S10,5.3,10,5.4v1.4h1V5.5c0-0.4-0.1-0.7-0.4-1
	C10.3,4.3,10,4.1,9.6,4.1z M7.3,6c0-0.4-0.1-0.7-0.3-1C6.8,4.6,6.5,4.4,6.2,4.3C5.9,4.1,5.5,4.1,5.1,4.2c-0.3,0-0.6,0.2-0.9,0.5
	C3.9,4.9,3.8,5.2,3.7,5.6s0,0.7,0.1,1.1C3.9,7,4.2,7.3,4.5,7.5s0.7,0.3,1,0.3c0.5,0,1-0.2,1.3-0.5C7.1,6.9,7.3,6.4,7.3,6z M6.4,6
	c0,0.2-0.1,0.4-0.2,0.5c0,0.1-0.2,0.2-0.3,0.3C5.7,6.9,5.5,6.9,5.3,6.9C5.1,6.8,5,6.7,4.9,6.6C4.7,6.5,4.6,6.3,4.6,6.1
	c0-0.2,0-0.4,0.1-0.5S4.8,5.3,5,5.2C5.1,5.1,5.3,5,5.5,5S6,5.1,6.1,5.3C6.3,5.5,6.4,5.7,6.4,6z M8.2,9.6c0-0.4-0.1-0.7-0.4-1
	s-0.6-0.4-1-0.4H4.1c-0.4,0-0.7,0.1-1,0.4s-0.4,0.6-0.4,1V11h0.9V9.6c0-0.1,0-0.2,0.1-0.3S4,9.2,4.1,9.2h2.8c0.1,0,0.2,0,0.3,0.1
	c0.1,0.1,0.1,0.2,0.1,0.3V11h0.9V9.6z M10.1,1.8c0-0.4-0.1-0.7-0.3-1S9.3,0.3,9,0.1C8.6,0,8.2,0,7.9,0C7.5,0.1,7.2,0.3,7,0.5
	c-0.3,0.3-0.5,0.6-0.5,1s0,0.7,0.1,1.1S7,3.2,7.3,3.4c0.3,0.2,0.7,0.3,1,0.3c0.5,0,1-0.2,1.3-0.5C9.9,2.8,10.1,2.3,10.1,1.8z
	 M9.2,1.8C9.2,2,9.1,2.2,9,2.3C8.9,2.5,8.8,2.6,8.6,2.7c-0.2,0-0.4,0.1-0.5,0c-0.2,0-0.3-0.1-0.5-0.3C7.5,2.4,7.4,2.2,7.4,2
	s0-0.4,0.1-0.5s0.2-0.3,0.3-0.4C7.9,1,8.1,0.9,8.2,0.9c0.2,0,0.5,0.1,0.6,0.3S9.2,1.6,9.2,1.8z M4.6,1.8c0-0.4-0.1-0.7-0.3-1
	C4.1,0.5,3.8,0.3,3.5,0.1C3.1,0,2.7,0,2.4,0C2,0.1,1.7,0.3,1.5,0.5C1.2,0.8,1,1.1,1,1.5C0.9,1.9,1,2.2,1.1,2.6s0.4,0.6,0.7,0.8
	s0.7,0.3,1,0.3c0.5,0,1-0.2,1.3-0.5C4.4,2.8,4.6,2.3,4.6,1.8z M3.7,1.8c0,0.2-0.1,0.4-0.2,0.5C3.4,2.5,3.3,2.6,3.1,2.7
	c-0.2,0-0.4,0.1-0.5,0c-0.2,0-0.3-0.1-0.5-0.3C2,2.4,1.9,2.2,1.9,2s0-0.4,0.1-0.5c0-0.2,0.1-0.3,0.2-0.4C2.4,1,2.6,0.9,2.8,0.9
	S3.2,1,3.4,1.2S3.7,1.6,3.7,1.8z"/>
</svg>
