<?xml version="1.0" encoding="utf-8"?>
<!-- Generator: Adobe Illustrator 28.1.0, SVG Export Plug-In . SVG Version: 6.00 Build 0)  -->
<svg version="1.1" id="Layer_1" xmlns="http://www.w3.org/2000/svg" xmlns:xlink="http://www.w3.org/1999/xlink" x="0px" y="0px"
	 viewBox="0 0 11 11" style="enable-background:new 0 0 11 11;" xml:space="preserve">
<style type="text/css">
	.st0{fill:#212121;}
</style>
<path class="st0" d="M7.6,0C5.6,0,4.1,0.9,4.1,2.1v1.2c-0.2,0-0.5,0-0.7,0C1.5,3.2,0,4.1,0,5.3v3.7C0,10.1,1.5,11,3.4,11
	c1.6,0,2.9-0.6,3.3-1.4c0.3,0,0.6,0.1,0.8,0.1c1.9,0,3.4-0.9,3.4-2.1V2.1C11,0.9,9.5,0,7.6,0z M7.6,0.9c1.4,0,2.5,0.6,2.5,1.1
	S9,3.2,7.6,3.2S5,2.6,5,2.1S6.1,0.9,7.6,0.9z M3.4,4.1C4.9,4.1,6,4.7,6,5.3c0,0.5-1.1,1.1-2.5,1.1S0.9,5.8,0.9,5.3
	C0.9,4.7,2,4.1,3.4,4.1z M0.9,6.7c0.6,0.4,1.5,0.6,2.5,0.6S5.3,7.1,6,6.7v0.4c0,0.5-1.1,1.1-2.5,1.1S0.9,7.6,0.9,7.1V6.7z M3.4,10.1
	c-1.4,0-2.5-0.6-2.5-1.1V8.5c0.6,0.4,1.5,0.6,2.5,0.6S5.3,8.9,6,8.5v0.4C6,9.5,4.9,10.1,3.4,10.1z M7.6,8.7c-0.2,0-0.5,0-0.7-0.1
	V7.7c0.2,0,0.5,0,0.7,0c1,0,1.9-0.2,2.5-0.6v0.4C10.1,8.1,9,8.7,7.6,8.7z M7.6,6.9c-0.2,0-0.5,0-0.7-0.1V5.9c0.2,0,0.5,0,0.7,0
	c1,0,1.9-0.2,2.5-0.6v0.4C10.1,6.3,9,6.9,7.6,6.9z M7.6,5C7.3,5,7.1,5,6.8,5C6.7,4.6,6.5,4.2,6.1,3.9c0.5,0.1,1,0.2,1.5,0.2
	c1,0,1.9-0.2,2.5-0.6v0.4C10.1,4.4,9,5,7.6,5L7.6,5z"/>
</svg>
