<?xml version="1.0" encoding="utf-8"?>
<!-- Generator: Adobe Illustrator 28.1.0, SVG Export Plug-In . SVG Version: 6.00 Build 0)  -->
<svg version="1.1" id="Layer_1" xmlns="http://www.w3.org/2000/svg" xmlns:xlink="http://www.w3.org/1999/xlink" x="0px" y="0px"
	 viewBox="0 0 27 27" style="enable-background:new 0 0 27 27;" xml:space="preserve">
<style type="text/css">
	.st0{fill:#F7CE66;}
	.st1{fill-rule:evenodd;clip-rule:evenodd;fill:#F7CE66;}
</style>
<path class="st0" d="M18.8,13.9l0.1-0.8c-1.6-0.1-3-0.8-4.1-1.9C13.7,10,13.1,8.5,13.1,7s0.6-3.1,1.7-4.2s2.5-1.8,4.1-1.9L18.8,0
	c-3.7,0.2-6.5,3.3-6.5,7C12.3,10.6,15.2,13.7,18.8,13.9z M25.4,7c0,1.6-0.6,3.1-1.7,4.2s-2.5,1.8-4.1,1.9l0.1,0.8
	c3.7-0.2,6.5-3.3,6.5-7s-2.9-6.7-6.5-7l-0.1,0.8c1.6,0.1,3,0.8,4.1,1.9C24.8,3.9,25.4,5.4,25.4,7z"/>
<path class="st0" d="M16.1,10.8c0.9,0.7,2,1.1,3.1,1.1s2.3-0.4,3.1-1.1l-0.5-0.6c-0.7,0.6-1.7,0.9-2.6,0.9c-1,0-1.9-0.3-2.6-0.9
	L16.1,10.8z M23.1,10.1c0.7-0.9,1.1-2,1.1-3.1s-0.4-2.3-1.1-3.1l-0.6,0.5C23,5.1,23.4,6,23.4,7s-0.3,1.9-0.9,2.6L23.1,10.1z
	 M16.7,3.8c0.7-0.6,1.7-0.9,2.6-0.9c1,0,1.9,0.3,2.6,0.9l0.5-0.6c-0.9-0.7-2-1.1-3.1-1.1S17,2.4,16.1,3.2L16.7,3.8z M15.5,3.8
	c-0.7,0.9-1.1,2-1.1,3.1s0.4,2.3,1.1,3.1l0.6-0.5c-0.6-0.7-0.9-1.7-0.9-2.6s0.3-1.9,0.9-2.6L15.5,3.8z M12.7,15.3L12,15.8
	c0.9,1.3,1.2,2.8,1,4.4c-0.2,1.5-1,2.9-2.2,3.9s-2.7,1.5-4.3,1.3s-3-0.8-4.1-1.9l-0.6,0.6c0.6,0.7,1.4,1.2,2.3,1.6
	c1,0.4,1.9,0.5,2.9,0.5c3.8,0,7-3.1,7-7C13.9,17.9,13.5,16.5,12.7,15.3z M1.3,23.3L2,22.8c-0.9-1.3-1.3-2.9-1.1-4.4
	c0.2-1.6,1-3,2.3-4s2.8-1.5,4.4-1.3c1.6,0.1,3,0.9,4.1,2.1l0.6-0.5c-0.7-0.7-1.5-1.3-2.4-1.7c-1-0.5-1.9-0.7-2.9-0.7
	c-3.8,0-7,3.1-7,7C0,20.7,0.5,22.1,1.3,23.3z"/>
<path class="st0" d="M12.1,20.6l-0.8-0.2c-0.2,0.6-0.5,1.3-0.9,1.8s-1,0.9-1.6,1.2l0.3,0.7c0.7-0.3,1.4-0.8,1.9-1.4
	S11.9,21.4,12.1,20.6z M12.3,19.3c0-0.1,0-0.3,0-0.4L11.5,19c0,0.3,0,0.5,0,0.8l0.8,0.1C12.3,19.6,12.3,19.4,12.3,19.3z M9.2,14.4
	l-0.3,0.7c0.6,0.3,1.1,0.7,1.6,1.2c0.4,0.5,0.7,1.1,0.9,1.8l0.8-0.2c-0.2-0.8-0.6-1.5-1.1-2.1C10.6,15.2,9.9,14.7,9.2,14.4z
	 M1.8,17.9l0.8,0.2c0.2-0.6,0.5-1.3,0.9-1.8s1-0.9,1.6-1.2l-0.3-0.7c-0.7,0.3-1.4,0.8-1.9,1.4C2.4,16.5,2,17.2,1.8,17.9z M1.6,19.3
	c0,0.1,0,0.3,0,0.4l0.8-0.1c0-0.3,0-0.5,0-0.8l-0.8-0.1C1.6,19,1.6,19.1,1.6,19.3z M4.8,24.1l0.3-0.7c-0.6-0.3-1.1-0.7-1.6-1.2
	c-0.4-0.5-0.7-1.1-0.9-1.8l-0.8,0.2c0.2,0.8,0.6,1.5,1.1,2.1C3.4,23.3,4,23.8,4.8,24.1z M9.8,19.8c-0.1-0.1-0.1-0.1-0.2-0.1
	c-0.1,0-0.2,0-0.2,0L7,20.5l-2.3-0.8c-0.1,0-0.2,0-0.2,0c-0.1,0-0.2,0.1-0.2,0.1c-0.1,0.1-0.1,0.1-0.1,0.2s0,0.2,0.1,0.2l2.5,4.1
	c0,0.1,0.1,0.1,0.1,0.1c0.1,0,0.1,0.1,0.2,0.1s0.1,0,0.2-0.1c0.1,0,0.1-0.1,0.1-0.1l2.5-4.1C9.9,20.1,10,20,10,20
	C9.8,20,9.8,19.9,9.8,19.8z M7,23.4l-1.5-2.6l1.4,0.5c0.1,0,0.2,0,0.3,0l1.4-0.5L7,23.4z M7,13.9c-0.1,0-0.1,0-0.2,0.1
	c-0.1,0-0.1,0.1-0.1,0.1l-2.5,4.1c0,0.1-0.1,0.2-0.1,0.2c0,0.1,0,0.2,0.1,0.2c0.1,0.1,0.1,0.1,0.2,0.1s0.2,0,0.2,0L7,18.1l2.3,0.8
	c0.1,0,0.2,0,0.2,0c0.1,0,0.2-0.1,0.2-0.1c0.1-0.1,0.1-0.1,0.1-0.2s0-0.2-0.1-0.2l-2.5-4.1c0-0.1-0.1-0.1-0.1-0.1
	C7.1,14,7,13.9,7,13.9z M7.1,17.2c-0.1,0-0.2,0-0.3,0l-1.4,0.5L7,15.1l1.5,2.6L7.1,17.2z M23,16.8h-0.8V16H23V16.8z M23,15.2h-0.8
	v-0.8H23V15.2z M22.2,21.4c0,0.3-0.1,0.6-0.3,0.8s-0.5,0.3-0.8,0.3h-6.7c-0.1,0-0.2,0-0.2,0.1c-0.1,0-0.1,0.1-0.2,0.2
	c0,0.1,0,0.2,0,0.2c0,0.1,0.1,0.2,0.1,0.2l1.6,1.6l0.6-0.6l-0.9-0.9H21c0.5,0,1-0.2,1.4-0.6s0.6-0.9,0.6-1.4v-3.8h-0.8V21.4z
	 M4.1,10.2H3.3V9.4h0.8V10.2z M4.1,11.9H3.3v-0.8h0.8V11.9z M4.1,4.8c0-0.3,0.1-0.6,0.3-0.8c0.2-0.2,0.5-0.3,0.8-0.3h6.7
	c0.1,0,0.2,0,0.2-0.1c0.1,0,0.1-0.1,0.2-0.2c0-0.1,0-0.2,0-0.2c0-0.1-0.1-0.2-0.1-0.2l-1.6-1.6L10,1.9l0.9,0.9H5.2
	c-0.5,0-1,0.2-1.4,0.6C3.5,3.8,3.3,4.3,3.3,4.8v3.8h0.8V4.8z"/>
<path class="st1" d="M19.3,4.9c-0.3,0-0.5,0.2-0.5,0.5c0,0.3,0.2,0.5,0.5,0.5c0.3,0,0.5-0.2,0.5-0.5C19.8,5.1,19.6,4.9,19.3,4.9z
	 M19.3,5.7c-0.1,0-0.1,0-0.2-0.1C19,5.6,19,5.6,19,5.5c0-0.1,0-0.1,0-0.2c0-0.1,0-0.1,0.1-0.2c0,0,0.1-0.1,0.2-0.1
	c0.1,0,0.1,0,0.2,0c0.1,0,0.1,0.1,0.1,0.1c0,0.1,0.1,0.1,0.1,0.2c0,0.1,0,0.2-0.1,0.2C19.4,5.7,19.4,5.7,19.3,5.7z M21.9,6.4
	c-0.1-0.1-0.2-0.2-0.4-0.2c-0.5,0-0.9,0.5-1.2,1C20.2,7,20,6.8,19.9,6.6c-0.2-0.2-0.4-0.3-0.6-0.3c-0.2,0-0.4,0.1-0.6,0.3
	c-0.1,0.1-0.3,0.4-0.4,0.5c-0.4-0.5-0.7-1-1.2-1c-0.2,0-0.3,0.1-0.4,0.2c-0.1,0.1-0.1,0.3-0.1,0.4c0,0.1,0,0.3,0.1,0.4h0
	c0,0.2,0,0.3,0,0.5l0,0c0,0,0,0,0,0.1C16.9,9,18,9.9,19.3,9.9c1.5,0,2.7-1.2,2.7-2.7h0C22,7.1,22,6.9,22,6.8C22,6.6,22,6.5,21.9,6.4
	z M21.7,7.8c-0.2,0.3-0.4,0.4-0.6,0.4c-0.3,0-0.5-0.2-0.7-0.5c0,0.4-0.1,0.8-0.2,1.1c0.3-0.1,0.6-0.2,0.8-0.3
	C21.4,8.4,21.6,8.1,21.7,7.8z M20.2,7.6c-0.3,0.3-0.6,0.7-0.9,0.7c-0.4,0-0.7-0.3-0.9-0.7c0,0.5,0.1,1,0.2,1.3C18.8,8.9,19,9,19.3,9
	c0.3,0,0.5,0,0.7-0.1C20.1,8.5,20.2,8.1,20.2,7.6z M18.1,7.7C18,8,17.7,8.2,17.5,8.2c-0.2,0-0.4-0.1-0.6-0.4
	c0.1,0.3,0.3,0.6,0.7,0.8c0.2,0.1,0.5,0.2,0.8,0.3C18.2,8.5,18.2,8.1,18.1,7.7z M18.4,7.3C18.6,7,19,6.5,19.3,6.5
	c0.4,0,0.6,0.4,0.9,0.8c-0.3,0.3-0.6,0.8-0.9,0.8c-0.3,0-0.5-0.3-0.8-0.6C18.5,7.4,18.4,7.4,18.4,7.3z M21.6,7.6
	C21.4,7.9,21.2,8,21.1,8c-0.3,0-0.5-0.3-0.7-0.7c0,0,0,0,0,0c0.3-0.5,0.7-1,1.1-1c0.2,0,0.3,0.1,0.3,0.4C21.8,7.1,21.7,7.4,21.6,7.6
	z M17.5,8c-0.2,0-0.4-0.2-0.5-0.4c-0.2-0.3-0.2-0.6-0.2-0.8c0-0.3,0.1-0.4,0.3-0.4c0.4,0,0.8,0.5,1.1,1c0,0,0,0,0,0c0,0,0,0,0,0
	C17.9,7.7,17.7,8,17.5,8z M21,5.4c0-0.3,0.2-0.5,0.5-0.5c0.3,0,0.5,0.2,0.5,0.5c0,0.3-0.2,0.5-0.5,0.5C21.2,5.9,21,5.7,21,5.4z
	 M21.3,5.7c0.1,0,0.1,0.1,0.2,0.1c0.1,0,0.2,0,0.2-0.1c0.1-0.1,0.1-0.1,0.1-0.2c0-0.1,0-0.1-0.1-0.2c0-0.1-0.1-0.1-0.1-0.1
	c-0.1,0-0.1,0-0.2,0s-0.1,0-0.2,0.1c0,0-0.1,0.1-0.1,0.2c0,0.1,0,0.1,0,0.2C21.2,5.6,21.3,5.6,21.3,5.7z M17.1,4.9
	c-0.3,0-0.5,0.2-0.5,0.5c0,0.3,0.2,0.5,0.5,0.5c0.3,0,0.5-0.2,0.5-0.5C17.6,5.1,17.3,4.9,17.1,4.9z M17.1,5.7c-0.1,0-0.1,0-0.2-0.1
	s-0.1-0.1-0.1-0.1c0-0.1,0-0.1,0-0.2c0-0.1,0-0.1,0.1-0.2c0,0,0.1-0.1,0.2-0.1s0.1,0,0.2,0c0.1,0,0.1,0.1,0.1,0.1
	c0,0.1,0.1,0.1,0.1,0.2c0,0.1,0,0.2-0.1,0.2C17.2,5.7,17.1,5.7,17.1,5.7z M18.8,9.7c-0.7-0.1-1.3-0.6-1.7-1.2
	c0.1,0.1,0.2,0.2,0.3,0.2c0.3,0.1,0.6,0.3,0.9,0.3c0,0,0,0,0,0.1C18.6,9.4,18.7,9.5,18.8,9.7C18.8,9.7,18.8,9.7,18.8,9.7z M18.9,9.5
	c-0.1-0.1-0.2-0.2-0.3-0.4c0.2,0,0.4,0,0.6,0c0.2,0,0.4,0,0.6,0c-0.1,0.2-0.2,0.3-0.3,0.4c-0.1,0.1-0.2,0.2-0.3,0.2
	C19.2,9.7,19.1,9.6,18.9,9.5z M20.1,9.1C20.1,9.1,20.1,9.1,20.1,9.1c0.4-0.1,0.7-0.2,1-0.4c0.1-0.1,0.2-0.1,0.3-0.2
	c-0.4,0.6-1,1-1.7,1.2c0,0,0,0,0,0C19.9,9.5,20,9.4,20.1,9.1z"/>
</svg>
