<?xml version="1.0" encoding="utf-8"?>
<!-- Generator: Adobe Illustrator 28.1.0, SVG Export Plug-In . SVG Version: 6.00 Build 0)  -->
<svg version="1.1" id="Layer_1" xmlns="http://www.w3.org/2000/svg" xmlns:xlink="http://www.w3.org/1999/xlink" x="0px" y="0px"
	 viewBox="0 0 16 26" style="enable-background:new 0 0 16 26;" xml:space="preserve">
<style type="text/css">
	.st0{fill:none;}
	.st1{fill:#FFFAF0;}
</style>
<path class="st0" d="M9.2,2.6c0-0.8-0.7-1.5-1.6-1.5S6,1.8,6,2.6V3h3.2V2.6z"/>
<path class="st0" d="M9.4,9H5.8C4.6,9,3.6,8,3.6,6.9V6.3h-1C2.4,6.3,2.2,6.4,2,6.6C1.8,6.7,1.7,6.9,1.7,7.2c0,3.4,2.1,5.9,3.9,7.4
	l0.8,0.7L5.6,16c-1.8,1.5-3.9,4-3.9,7.4v0.9h11.9v-0.9c0-3.4-2.1-5.9-3.9-7.4l-0.8-0.7l0.8-0.7c1.8-1.5,3.9-4,3.9-7.4
	c0-0.2-0.1-0.5-0.2-0.6c-0.2-0.2-0.4-0.3-0.6-0.3h-1v0.6C11.7,8,10.7,9,9.4,9z M11.8,22.4H3.5c0.4-2.8,2.8-4.9,4.2-5.8
	C9,17.5,11.4,19.6,11.8,22.4z"/>
<path class="st0" d="M9.3,20.6c-0.5-0.7-1-1.3-1.6-1.8L6,20.6H9.3z"/>
<path class="st1" d="M11.5,15.2c1.1-1,2-2.2,2.7-3.6c0.6-1.4,1-2.9,1.1-4.5c0-0.7-0.3-1.4-0.7-1.9c-0.5-0.5-1.1-0.8-1.8-0.8h-1.1
	c0,0.2,0.1,0.4,0.1,0.5v1.3h1c0.2,0,0.4,0.1,0.6,0.3c0.2,0.2,0.2,0.4,0.2,0.6c0,3.4-2.1,5.9-3.9,7.4l-0.8,0.7l0.8,0.7
	c1.8,1.5,3.9,4,3.9,7.4v0.9H1.7v-0.9c0-3.4,2.1-5.9,3.9-7.4l0.8-0.7l-0.8-0.7c-1.8-1.5-3.9-4-3.9-7.4c0-0.2,0.1-0.5,0.2-0.6
	c0.2-0.2,0.4-0.3,0.6-0.3h1V5c0-0.2,0-0.4,0.1-0.5H2.5c-0.7,0-1.3,0.3-1.8,0.8S0,6.5,0,7.2c0.1,1.6,0.4,3.1,1.1,4.5
	c0.6,1.4,1.6,2.6,2.7,3.6c-1.1,1-2.1,2.2-2.7,3.6s-1,2.9-1.1,4.5V26h15.2v-2.7c0-1.5-0.4-3.1-1.1-4.5C13.5,17.5,12.6,16.2,11.5,15.2
	z"/>
<path class="st1" d="M3.5,22.4h8.3c-0.4-2.9-2.8-4.9-4.2-5.8C6.2,17.6,3.9,19.6,3.5,22.4z M10.3,21.2H4.9c1.1-1.6,2.7-3,2.7-3
	S9.5,19.6,10.3,21.2z"/>
<path class="st1" d="M10.8,8.1H4.5V6.3H3.6v0.6C3.6,8,4.6,9,5.8,9h3.6c1.2,0,2.2-0.9,2.2-2.1V6.3h-0.9v1.8H10.8z"/>
<path class="st1" d="M4.5,3.6h6.3v0.9h0.8c-0.2-0.6-0.6-1-1.1-1.3V2.6C10.4,1.2,9.2,0,7.6,0S4.8,1.2,4.8,2.6v0.5
	c-0.6,0.3-1,0.7-1.1,1.3h0.8C4.5,4.4,4.5,3.6,4.5,3.6z M6,2.6c0-0.8,0.7-1.5,1.6-1.5s1.6,0.7,1.6,1.5V3H6V2.6z"/>
<path class="st1" d="M3.6,6.3h0.9V4.5H3.7c0,0.2-0.1,0.4-0.1,0.5C3.6,5,3.6,6.3,3.6,6.3z"/>
<path class="st1" d="M10.8,6.3h0.9V5c0-0.2,0-0.4-0.1-0.5h-0.8C10.8,4.5,10.8,6.3,10.8,6.3z"/>
<path class="st1" d="M10.8,8.1V6.3h-0.3v0.6c0,0.5-0.5,0.9-1,0.9H5.8c-0.6,0-1-0.4-1-0.9V6.3H4.5v1.8H10.8z"/>
<path class="st1" d="M5.8,4.1h3.6c0.3,0,0.6,0.2,0.8,0.4h0.5V3.6H4.5v0.9H5C5.2,4.2,5.5,4.1,5.8,4.1z"/>
<path class="st1" d="M10.4,5v1.3h0.3V4.5h-0.5C10.4,4.6,10.4,4.8,10.4,5z"/>
<path class="st1" d="M4.8,5c0-0.2,0.1-0.4,0.2-0.5H4.5v1.8h0.3V5z"/>
<path class="st1" d="M7.8,6.3c0.1,0,0.2,0,0.3-0.1H7.2c0.1,0,0.2,0.1,0.3,0.1H7.8z"/>
<path class="st1" d="M8.4,5.8c0-0.3-0.3-0.6-0.6-0.6H7.4c-0.3,0-0.6,0.3-0.6,0.6C6.8,6,7,6.2,7.2,6.3h0.9C8.3,6.2,8.4,6,8.4,5.8z"/>
</svg>
