<?xml version="1.0" encoding="utf-8"?>
<!-- Generator: Adobe Illustrator 28.1.0, SVG Export Plug-In . SVG Version: 6.00 Build 0)  -->
<svg version="1.1" id="Layer_1" xmlns="http://www.w3.org/2000/svg" xmlns:xlink="http://www.w3.org/1999/xlink" x="0px" y="0px"
	 viewBox="0 0 11 13" style="enable-background:new 0 0 11 13;" xml:space="preserve">
<style type="text/css">
	.st0{fill:#FFFAF0;}
</style>
<g>
	<path class="st0" d="M9.9,5.6C9.6,5.3,9.3,5,8.9,4.7V4.2c0-1-0.3-1.8-1-2.4c-0.7-0.7-1.5-1-2.4-1c-1,0-1.8,0.3-2.4,1
		c-0.6,0.6-1,1.6-1,2.4v0.5C1.8,4.9,1.4,5.2,1.2,5.6C0.9,6,0.8,6.6,0.8,7v2.8c0,0.7,0.3,1.3,0.7,1.8C2,12,2.6,12.3,3.3,12.3h4.5
		c0.7,0,1.4-0.4,1.8-0.7c0.4-0.4,0.7-1.2,0.7-1.8V7C10.3,6.4,10.2,6,9.9,5.6z M2.1,9.7V7c0-0.3,0.1-0.6,0.4-0.8C2.6,6,3,5.8,3.3,5.8
		h4.5c0.3,0,0.6,0.1,0.8,0.4C8.8,6.4,8.9,6.6,8.9,7v2.7c0,0.3-0.1,0.6-0.4,0.8c-0.2,0.2-0.5,0.4-0.7,0.4H3.2c-0.3,0-0.6-0.1-0.8-0.4
		C2.2,10.4,2.1,10,2.1,9.7z M5.5,2.1c0.6,0,1.1,0.2,1.4,0.7c0.4,0.4,0.6,0.9,0.6,1.5v0.3H3.4V4.2c0-0.6,0.2-1,0.6-1.5
		C4.5,2.3,4.9,2.1,5.5,2.1z"/>
	<path class="st0" d="M5.5,9.5c0.2,0,0.4-0.1,0.5-0.2c0.1-0.1,0.2-0.3,0.2-0.5V7.9c0-0.1-0.1-0.4-0.2-0.5C5.9,7.3,5.6,7.2,5.5,7.2
		S5.1,7.3,5,7.4C4.9,7.5,4.8,7.7,4.8,7.9v0.9c0,0.1,0.1,0.4,0.2,0.5C5.1,9.4,5.3,9.5,5.5,9.5z"/>
</g>
</svg>
