<?xml version="1.0" encoding="utf-8"?>
<!-- Generator: Adobe Illustrator 28.1.0, SVG Export Plug-In . SVG Version: 6.00 Build 0)  -->
<svg version="1.1" id="Layer_1" xmlns="http://www.w3.org/2000/svg" xmlns:xlink="http://www.w3.org/1999/xlink" x="0px" y="0px"
	 viewBox="0 0 24 27" style="enable-background:new 0 0 24 27;" xml:space="preserve">
<style type="text/css">
	.st0{fill:none;}
	.st1{fill:#5E616A;}
	.st2{fill:#5E616A;stroke:#5E616A;stroke-width:0.3;}
</style>
<path class="st0" d="M3.8,22v0.8c0,1.1,2.2,2.3,5,2.3s5-1.2,5-2.3V22c-1.2,0.8-3,1.3-5,1.3S5.1,22.8,3.8,22z"/>
<path class="st0" d="M3.8,18.4v0.8c0,1.1,2.2,2.3,5,2.3s5-1.2,5-2.3v-0.8c-1.2,0.8-3,1.3-5,1.3S5.1,19.2,3.8,18.4z"/>
<path class="st0" d="M17.1,11.4c2.9,0,5-1.2,5-2.3c0-1.1-2.2-2.3-5-2.3c-0.3,0-0.7,0-1,0.1v4.5C16.5,11.4,16.8,11.4,17.1,11.4z"/>
<path class="st0" d="M15.7,15c0.5,0.1,0.9,0.1,1.4,0.1v0c2.9,0,5-1.2,5-2.3V12c-1.2,0.8-3,1.3-5,1.3c-0.3,0-0.7,0-1-0.1
	c-0.1,0.5-0.2,1.1-0.5,1.5C15.6,14.8,15.7,14.9,15.7,15z"/>
<path class="st0" d="M12.9,16.2H4.1h0c0,0,0,0-0.1,0c0.6,0.9,2.5,1.7,4.8,1.7c2.5,0,4.4-0.9,4.9-1.8C13.5,16.1,13.2,16.1,12.9,16.2
	L12.9,16.2z"/>
<path class="st0" d="M15.8,20.5v1.8c0.4,0.1,0.9,0.1,1.4,0.1c2.9,0,5-1.2,5-2.3v-0.8c-1.2,0.8-3,1.3-5,1.3
	C16.7,20.6,16.2,20.5,15.8,20.5z"/>
<path class="st0" d="M15.8,16.8v1.8c0.4,0.1,0.9,0.1,1.4,0.1c2.9,0,5-1.2,5-2.3v-0.8c-1.2,0.8-3,1.3-5,1.3
	C16.7,16.9,16.2,16.9,15.8,16.8z"/>
<path class="st1" d="M17.1,5c-0.3,0-0.7,0-1,0c0,0.1,0,0.2,0,0.3v0v1.5c0.3,0,0.6-0.1,1-0.1c2.9,0,5,1.2,5,2.3c0,1.1-2.2,2.3-5,2.3
	c-0.3,0-0.7,0-1-0.1v1.5v0c0,0.1,0,0.2,0,0.3c0.3,0,0.7,0.1,1,0.1c2,0,3.8-0.5,5-1.3v0.8c0,1.1-2.2,2.3-5,2.3v0c-0.5,0-1,0-1.4-0.1
	c0-0.1-0.1-0.2-0.1-0.3c-0.1,0.2-0.2,0.3-0.4,0.5c-0.4,0.4-0.9,0.7-1.4,0.8c-0.5,0.9-2.4,1.8-4.9,1.8c-2.4,0-4.2-0.8-4.8-1.7
	c-0.8,0-1.5-0.3-2.1-0.8c0,0.1,0,0.1,0,0.2v7.3C2,25.2,5,27,8.9,27c3.1,0,5.7-1.2,6.6-2.9c0.5,0.1,1.1,0.1,1.7,0.1
	c3.9,0,6.9-1.8,6.9-4.1v-11C24,6.8,21,5,17.1,5z M13.9,22.9c0,1.1-2.2,2.3-5,2.3s-5-1.2-5-2.3V22c1.2,0.8,3,1.3,5,1.3s3.8-0.5,5-1.3
	V22.9z M13.9,19.2c0,1.1-2.2,2.3-5,2.3s-5-1.2-5-2.3v-0.8c1.2,0.8,3,1.3,5,1.3s3.8-0.5,5-1.3V19.2z M22.2,20.1c0,1.1-2.2,2.3-5,2.3
	c-0.5,0-0.9,0-1.4-0.1v-1.8c0.5,0.1,0.9,0.1,1.4,0.1c2,0,3.8-0.5,5-1.3V20.1z M22.2,16.5c0,1.1-2.2,2.3-5,2.3c-0.5,0-0.9,0-1.4-0.1
	v-1.8c0.5,0.1,0.9,0.1,1.4,0.1c2,0,3.8-0.5,5-1.3V16.5z"/>
<path class="st0" d="M14.1,4.2c-0.3-0.3-0.8-0.5-1.2-0.5H4.1c-0.5,0-0.9,0.2-1.2,0.5C2.7,4.4,2.5,4.7,2.4,5h12.1
	C14.5,4.7,14.3,4.4,14.1,4.2z"/>
<path class="st2" d="M15,13.7c0.3,0.3,0.5,0.7,0.6,1c0.3-0.5,0.5-1,0.5-1.5c-0.4,0-0.8-0.1-1.1-0.2V13.7z"/>
<path class="st2" d="M13.7,15H4c-0.1,0.2-0.2,0.4-0.2,0.5c0,0.2,0.1,0.4,0.2,0.6c0,0,0,0,0.1,0h0h8.8h0c0.3,0,0.6-0.1,0.9-0.1
	c0.1-0.2,0.1-0.3,0.1-0.5C13.9,15.4,13.8,15.2,13.7,15z"/>
<path class="st2" d="M15,11.2c0.4,0.1,0.7,0.1,1.2,0.2V6.9c-0.4,0-0.8,0.1-1.2,0.2V11.2z"/>
<path class="st2" d="M2,15V5h0.4c0.1-0.3,0.2-0.6,0.5-0.8c0.3-0.3,0.8-0.5,1.2-0.5h8.8c0.5,0,0.9,0.2,1.2,0.5
	c0.2,0.2,0.4,0.5,0.5,0.8H15v0.2c0.4-0.1,0.7-0.1,1.1-0.1c-0.1-0.7-0.4-1.5-0.9-2c-0.6-0.6-1.4-1-2.3-1h0h-0.5V1.6
	c0-0.2-0.1-0.4-0.2-0.5l-0.1,0.1l0.1-0.1c-0.1-0.1-0.3-0.2-0.5-0.2s-0.4,0.1-0.5,0.2c-0.1,0.1-0.2,0.3-0.2,0.5v0.5H6.2V1.6
	c0-0.2-0.1-0.4-0.2-0.5L5.8,1.2l0.1-0.1C5.8,0.9,5.6,0.8,5.4,0.8S5,0.9,4.8,1.1C4.7,1.2,4.6,1.4,4.6,1.6v0.5H4.1h0
	c-0.9,0-1.7,0.3-2.3,1c-0.6,0.6-1,1.4-1,2.3v0v7.5v0c0,0.9,0.3,1.7,1,2.3c0.1,0.1,0.1,0.1,0.2,0.2C2,15.2,2,15.1,2,15L2,15z"/>
<path class="st2" d="M15,7.1c0.4-0.1,0.7-0.1,1.2-0.2V5.4v0c0-0.1,0-0.2,0-0.3c-0.4,0-0.8,0.1-1.1,0.1V7.1z"/>
<path class="st2" d="M15,13c0.4,0.1,0.7,0.1,1.1,0.2c0-0.1,0-0.2,0-0.3v0v-1.5c-0.4,0-0.8-0.1-1.2-0.2V13z"/>
<path class="st2" d="M15,15h-1.3c0.1,0.2,0.2,0.4,0.2,0.5c0,0.2-0.1,0.3-0.1,0.5c0.5-0.2,1-0.4,1.4-0.8c0.1-0.1,0.3-0.3,0.4-0.5
	c-0.1-0.4-0.3-0.7-0.6-1V15z"/>
<path class="st2" d="M3.8,15.5c0-0.2,0.1-0.4,0.2-0.5h-2c0,0.1,0,0.2,0,0.4c0.6,0.5,1.3,0.8,2.1,0.8C3.9,15.9,3.8,15.7,3.8,15.5z"/>
<g>
	<circle class="st2" cx="5.4" cy="10.4" r="1.1"/>
	<circle class="st2" cx="8.5" cy="10.4" r="1.1"/>
	<circle class="st2" cx="11.6" cy="10.4" r="1.1"/>
</g>
<path class="st2" d="M14.6,7.4v3.7c0.1,0,0.3,0.1,0.4,0.1V7.1c-0.4,0.1-0.7,0.2-1.1,0.3H14.6z"/>
<path class="st2" d="M13.3,14.5c-0.1,0-0.3,0.1-0.4,0.1H4.4C4.2,14.7,4.1,14.9,4,15h9.7C13.6,14.8,13.5,14.7,13.3,14.5z"/>
<path class="st2" d="M2.4,12.9V7.4h8.5c0.5-0.6,1.2-1.1,2-1.6H2.4V5.4c0-0.1,0-0.3,0-0.4H2v10h0.1c0.1-0.4,0.3-0.9,0.6-1.2
	C2.5,13.5,2.4,13.2,2.4,12.9z"/>
<path class="st2" d="M15,5.2V5h-0.4c0,0.1,0,0.2,0,0.3C14.7,5.3,14.9,5.2,15,5.2z"/>
<path class="st2" d="M14.6,13.2c0.2,0.1,0.3,0.3,0.4,0.5V13c-0.1,0-0.3-0.1-0.4-0.1C14.6,13,14.6,13.1,14.6,13.2z"/>
<path class="st2" d="M14.6,5.4v0.5h-1.7c-0.9,0.4-1.6,0.9-2,1.6h3.1c0.3-0.1,0.7-0.2,1.1-0.3V5.2C14.9,5.2,14.7,5.3,14.6,5.4
	C14.6,5.3,14.6,5.3,14.6,5.4z"/>
<path class="st2" d="M14.6,13.2c-0.1,0.3-0.2,0.6-0.5,0.9c-0.2,0.2-0.5,0.4-0.8,0.4c0.2,0.2,0.3,0.3,0.4,0.5H15v-1.3
	C14.9,13.5,14.7,13.4,14.6,13.2z"/>
<path class="st2" d="M4.4,14.6H4.1c-0.5,0-0.9-0.2-1.2-0.5c-0.1-0.1-0.2-0.2-0.3-0.3c-0.3,0.4-0.5,0.8-0.6,1.2h2
	C4.1,14.9,4.2,14.7,4.4,14.6z"/>
<path class="st2" d="M14.6,12.9C14.6,12.9,14.6,12.9,14.6,12.9C14.7,13,14.9,13,15,13v-1.9c-0.1,0-0.3-0.1-0.4-0.1V12.9z"/>
</svg>
