<?xml version="1.0" encoding="utf-8"?>
<!-- Generator: Adobe Illustrator 28.1.0, SVG Export Plug-In . SVG Version: 6.00 Build 0)  -->
<svg version="1.1" id="Layer_1" xmlns="http://www.w3.org/2000/svg" xmlns:xlink="http://www.w3.org/1999/xlink" x="0px" y="0px"
	 viewBox="0 0 23 25" style="enable-background:new 0 0 23 25;" xml:space="preserve">
<style type="text/css">
	.st0{fill:#5E616A;}
	.st1{fill:none;}
</style>
<path class="st0" d="M11.2,5.9c0.1-0.1,0.1-0.2,0.1-0.4s0-0.3-0.1-0.4l-0.1-0.1L11,4.9c-0.3-0.3-0.8-0.3-1.1-0.1l0,0L6.5,8.2
	L5.2,6.9C4.8,6.6,4.3,6.6,4,6.9C3.8,7.1,3.7,7.3,3.7,7.5S3.8,7.9,4,8.1l2,1.9c0.2,0.2,0.4,0.2,0.6,0.2c0.2,0,0.4-0.1,0.6-0.2l4-4
	L11.2,5.9z"/>
<path class="st1" d="M14.8,9.3c0.4,0.1,0.9,0.1,1.4,0.1c2.9,0,5-1.2,5-2.3s-2.2-2.3-5-2.3c-0.6,0-1.1,0.1-1.6,0.1
	C14.8,5.8,15,6.6,15,7.5C15,8.1,14.9,8.7,14.8,9.3z"/>
<path class="st1" d="M2.8,20v0.8c0,1.1,2.2,2.3,5,2.3s5-1.2,5-2.3V20c-1.2,0.8-3,1.3-5,1.3S4.1,20.8,2.8,20z"/>
<path class="st1" d="M2.9,13.4c0,0.1,0,0.1,0,0.2c0,1.1,2.2,2.3,5,2.3s5-1.2,5-2.3c0-0.2-0.1-0.4-0.2-0.6C11.3,14.2,9.5,15,7.5,15
	C5.8,15,4.1,14.4,2.9,13.4z"/>
<path class="st1" d="M14.7,13c0.5,0.1,0.9,0.1,1.4,0.1v0c2.9,0,5-1.2,5-2.3V10c-1.2,0.8-3,1.3-5,1.3c-0.7,0-1.4-0.1-2-0.2
	c-0.1,0.2-0.2,0.3-0.3,0.4C14.3,11.9,14.6,12.4,14.7,13z"/>
<path class="st1" d="M14.8,18.5v1.8c0.4,0.1,0.9,0.1,1.4,0.1c2.9,0,5-1.2,5-2.3v-0.8c-1.2,0.8-3,1.3-5,1.3
	C15.7,18.6,15.2,18.5,14.8,18.5z"/>
<path class="st1" d="M2.8,16.4v0.8c0,1.1,2.2,2.3,5,2.3s5-1.2,5-2.3v-0.8c-1.2,0.8-3,1.3-5,1.3S4.1,17.2,2.8,16.4z"/>
<path class="st1" d="M14.8,14.8v1.8c0.4,0.1,0.9,0.1,1.4,0.1c2.9,0,5-1.2,5-2.3v-0.8c-1.2,0.8-3,1.3-5,1.3
	C15.7,14.9,15.2,14.9,14.8,14.8z"/>
<path class="st0" d="M16.1,3c-0.9,0-1.7,0.1-2.4,0.3C14,3.8,14.3,4.4,14.6,5c0.5-0.1,1-0.1,1.6-0.1c2.9,0,5,1.2,5,2.3
	s-2.2,2.3-5,2.3c-0.5,0-0.9,0-1.4-0.1c-0.2,0.6-0.4,1.2-0.7,1.7c0.6,0.1,1.3,0.2,2,0.2c2,0,3.8-0.5,5-1.3v0.8c0,1.1-2.2,2.3-5,2.3v0
	c-0.5,0-1,0-1.4-0.1c-0.1-0.5-0.4-1-0.8-1.5c-0.3,0.5-0.7,1-1.2,1.4c0.1,0.2,0.2,0.4,0.2,0.6c0,1.1-2.2,2.3-5,2.3s-5-1.2-5-2.3
	c0-0.1,0-0.1,0-0.2c-0.5-0.4-1-0.9-1.4-1.4C1.2,12.5,1,13,1,13.5v7.3C1,23.2,4,25,7.9,25c3.1,0,5.7-1.2,6.6-2.9
	c0.5,0.1,1.1,0.1,1.7,0.1c3.9,0,6.9-1.8,6.9-4.1v-11C23,4.8,20,3,16.1,3z M12.9,20.9c0,1.1-2.2,2.3-5,2.3s-5-1.2-5-2.3V20
	c1.2,0.8,3,1.3,5,1.3s3.8-0.5,5-1.3V20.9z M12.9,17.2c0,1.1-2.2,2.3-5,2.3s-5-1.2-5-2.3v-0.8c1.2,0.8,3,1.3,5,1.3s3.8-0.5,5-1.3
	V17.2z M21.2,18.1c0,1.1-2.2,2.3-5,2.3c-0.5,0-0.9,0-1.4-0.1v-1.8c0.5,0.1,0.9,0.1,1.4,0.1c2,0,3.8-0.5,5-1.3V18.1z M21.2,14.5
	c0,1.1-2.2,2.3-5,2.3c-0.5,0-0.9,0-1.4-0.1v-1.8c0.5,0.1,0.9,0.1,1.4,0.1c2,0,3.8-0.5,5-1.3V14.5z"/>
<path class="st0" d="M12.1,12.4c-1.2,1.1-2.8,1.9-4.6,1.9c-1.6,0-3.1-0.6-4.3-1.5c-0.2,0.2-0.3,0.4-0.4,0.7c1.3,1,2.9,1.6,4.6,1.6
	c2,0,3.8-0.8,5.2-2.1C12.5,12.7,12.4,12.6,12.1,12.4z"/>
<path class="st0" d="M0.8,7.5c0-3.7,3-6.8,6.8-6.8c2.2,0,4.2,1.1,5.4,2.7c0.2-0.1,0.5-0.1,0.8-0.2C12.3,1.3,10.1,0,7.5,0
	C3.4,0,0,3.4,0,7.5c0,1.7,0.6,3.2,1.5,4.5c0.1-0.2,0.3-0.4,0.5-0.6C1.2,10.3,0.8,8.9,0.8,7.5z"/>
<path class="st0" d="M13.3,11c0.2,0.2,0.4,0.3,0.6,0.5c0.1-0.1,0.2-0.3,0.3-0.4C13.8,11,13.6,11,13.3,11
	C13.3,10.9,13.3,10.9,13.3,11z"/>
<path class="st0" d="M14.2,7.5c0,0.6-0.1,1.1-0.2,1.7c0.2,0.1,0.5,0.1,0.7,0.1C14.9,8.7,15,8.1,15,7.5c0-0.9-0.2-1.7-0.4-2.5
	c-0.3,0-0.5,0.1-0.7,0.2C14.1,5.9,14.2,6.7,14.2,7.5z"/>
<path class="st0" d="M12.1,12.4c0.2,0.2,0.4,0.3,0.5,0.5c0.4-0.4,0.8-0.9,1.2-1.4c-0.2-0.2-0.4-0.3-0.6-0.5
	C13,11.5,12.6,12,12.1,12.4z"/>
<path class="st0" d="M13.3,10.9c0.2,0.1,0.5,0.1,0.8,0.2c0.3-0.5,0.5-1.1,0.7-1.7c-0.3,0-0.5-0.1-0.7-0.1
	C13.9,9.8,13.6,10.4,13.3,10.9z"/>
<path class="st0" d="M2.9,13.4c0-0.2,0.1-0.4,0.4-0.7c-0.5-0.4-0.9-0.8-1.2-1.3c-0.2,0.2-0.4,0.4-0.5,0.6C1.9,12.5,2.4,13,2.9,13.4z
	"/>
<path class="st0" d="M13.8,5.1C14,5.1,14.3,5,14.6,5c-0.2-0.6-0.5-1.2-0.9-1.7c-0.3,0.1-0.5,0.1-0.8,0.2C13.3,4,13.6,4.5,13.8,5.1z"
	/>
<path class="st0" d="M1.5,7.5c0-3.3,2.7-6,6-6c1.9,0,3.6,0.9,4.7,2.2c0.2-0.1,0.5-0.2,0.7-0.3c-1.2-1.6-3.2-2.7-5.4-2.7
	c-3.7,0-6.8,3-6.8,6.8c0,1.4,0.5,2.8,1.2,3.9c0.2-0.2,0.4-0.3,0.6-0.5C1.9,9.9,1.5,8.8,1.5,7.5z"/>
<path class="st0" d="M13.5,7.5c0,0.5-0.1,1-0.2,1.5c0.2,0.1,0.5,0.1,0.7,0.2c0.1-0.5,0.2-1.1,0.2-1.7c0-0.8-0.2-1.6-0.4-2.4
	c-0.3,0.1-0.5,0.1-0.7,0.2C13.4,6,13.5,6.7,13.5,7.5z"/>
<path class="st0" d="M12.1,12.4c-0.2-0.1-0.4-0.3-0.7-0.4c-1.1,0.9-2.4,1.5-4,1.5c-1.4,0-2.6-0.5-3.7-1.3c-0.2,0.2-0.5,0.3-0.6,0.5
	c1.2,1,2.7,1.5,4.3,1.5C9.3,14.2,10.9,13.5,12.1,12.4z"/>
<path class="st0" d="M13.3,11C13.3,10.9,13.3,10.9,13.3,11c0-0.1-0.1-0.1-0.2-0.1C13.2,10.9,13.2,10.9,13.3,11z"/>
<path class="st0" d="M13.1,5.3c0.2-0.1,0.5-0.2,0.7-0.2c-0.2-0.6-0.5-1.2-0.9-1.7c-0.3,0.1-0.5,0.2-0.7,0.3
	C12.6,4.2,12.9,4.8,13.1,5.3z"/>
<path class="st0" d="M2.6,10.9c-0.2,0.2-0.4,0.3-0.6,0.5c0.4,0.5,0.8,0.9,1.2,1.3c0.2-0.2,0.4-0.3,0.6-0.5
	C3.3,11.9,2.9,11.4,2.6,10.9z"/>
<path class="st0" d="M11.5,12c0.3,0.1,0.5,0.3,0.7,0.4c0.4-0.4,0.8-0.9,1.1-1.4c-0.1,0-0.1-0.1-0.2-0.1c0.1,0,0.2,0,0.2,0
	c0.3-0.5,0.5-1.1,0.7-1.7c-0.3-0.1-0.5-0.1-0.7-0.2C13,10.2,12.4,11.2,11.5,12z"/>
</svg>
