<?xml version="1.0" encoding="utf-8"?>
<!-- Generator: Adobe Illustrator 28.1.0, SVG Export Plug-In . SVG Version: 6.00 Build 0)  -->
<svg version="1.1" id="Layer_1" xmlns="http://www.w3.org/2000/svg" xmlns:xlink="http://www.w3.org/1999/xlink" x="0px" y="0px"
	 viewBox="0 0 11 11" style="enable-background:new 0 0 11 11;" xml:space="preserve">
<style type="text/css">
	.st0{fill:#F8CE46;stroke:#4B442C;stroke-width:0.2;}
</style>
<path class="st0" d="M9.8,8.8L9.8,8.8l0,0.1l0.7,0.7c0.1,0.1,0.2,0.3,0.2,0.4c0,0.2-0.1,0.3-0.2,0.4c-0.1,0.1-0.3,0.2-0.4,0.2
	c-0.2,0-0.3-0.1-0.4-0.2L8.9,9.8L8.9,9.7L8.8,9.8c-0.9,0.7-2.1,1.1-3.3,1.1s-2.4-0.4-3.3-1.1L2.1,9.7L2.1,9.8l-0.7,0.7
	c-0.1,0.1-0.3,0.2-0.4,0.2c-0.2,0-0.3-0.1-0.4-0.2c-0.1-0.1-0.2-0.3-0.2-0.4c0-0.2,0.1-0.3,0.2-0.4l0.7-0.7l0.1-0.1L1.2,8.8
	C0.5,7.9,0.1,6.7,0.1,5.5s0.4-2.4,1.1-3.3l0.1-0.1L1.2,2.1L0.5,1.3C0.4,1.2,0.3,1.1,0.3,0.9c0-0.2,0.1-0.3,0.2-0.4s0.3-0.2,0.4-0.2
	c0.2,0,0.3,0.1,0.4,0.2l0.7,0.7l0.1,0.1l0.1-0.1c0.9-0.7,2.1-1.1,3.3-1.1s2.4,0.4,3.3,1.1l0.1,0.1l0.1-0.1l0.7-0.7
	c0.1-0.1,0.3-0.2,0.4-0.2c0.1,0,0.2,0,0.2,0c0.1,0,0.1,0.1,0.2,0.1c0.1,0.1,0.2,0.3,0.2,0.4c0,0.2-0.1,0.3-0.2,0.4L9.8,2.1L9.7,2.1
	l0.1,0.1c0.7,0.9,1.1,2.1,1.1,3.3S10.5,7.9,9.8,8.8z M8.8,8L8.8,8l0.2,0c0.5-0.7,0.8-1.6,0.8-2.4c0-0.9-0.3-1.7-0.8-2.4L8.9,3L8.8,3
	L7.6,4.3L7.5,4.3l0,0.1c0.2,0.3,0.3,0.7,0.3,1.1S7.7,6.3,7.5,6.6l0,0.1l0.1,0.1L8.8,8z M4.3,5.5L4.3,5.5c0,0.3,0.1,0.6,0.3,0.8
	c0.2,0.2,0.5,0.3,0.8,0.3h0c0.2,0,0.5-0.1,0.6-0.2c0.2-0.1,0.3-0.3,0.4-0.5c0.1-0.2,0.1-0.4,0.1-0.7c0-0.2-0.2-0.4-0.3-0.6
	C6.2,4.5,6,4.4,5.7,4.4c-0.2,0-0.5,0-0.7,0.1C4.8,4.5,4.7,4.7,4.5,4.9C4.4,5,4.3,5.3,4.3,5.5z M8,2.2L8,2.2l0-0.2
	C7.2,1.5,6.4,1.3,5.5,1.3l0,0c-0.9,0-1.7,0.3-2.4,0.8L3,2.1L3,2.2l1.2,1.2l0.1,0.1l0.1,0c0.3-0.2,0.7-0.3,1.1-0.3s0.8,0.1,1.1,0.3
	l0.1,0l0.1-0.1L8,2.2z M1.3,5.5L1.3,5.5c0,0.9,0.3,1.7,0.8,2.4L2.1,8L2.2,8l1.2-1.2l0.1-0.1l0-0.1C3.3,6.3,3.2,5.9,3.2,5.5
	s0.1-0.8,0.3-1.1l0-0.1L3.4,4.3L2.2,3L2.1,3L2.1,3.1C1.5,3.8,1.3,4.6,1.3,5.5z M3,8.8L3,8.8l0,0.2c0.7,0.5,1.6,0.8,2.4,0.8
	c0.9,0,1.7-0.3,2.4-0.8L8,8.9L8,8.8L6.7,7.6L6.7,7.5l-0.1,0C6.3,7.7,5.9,7.8,5.5,7.8S4.7,7.7,4.4,7.5l-0.1,0L4.3,7.6L3,8.8z"/>
</svg>
