<?xml version="1.0" encoding="utf-8"?>
<!-- Generator: Adobe Illustrator 28.1.0, SVG Export Plug-In . SVG Version: 6.00 Build 0)  -->
<svg version="1.1" id="Layer_1" xmlns="http://www.w3.org/2000/svg" xmlns:xlink="http://www.w3.org/1999/xlink" x="0px" y="0px"
	 viewBox="0 0 11 13" style="enable-background:new 0 0 11 13;" xml:space="preserve">
<style type="text/css">
	.st0{fill:#F8CE46;stroke:#F8CE46;stroke-width:0.2;}
</style>
<path class="st0" d="M0.9,7L0.9,7v2.8l0,0c0,0.6,0.2,1.2,0.7,1.7c0.4,0.4,1,0.7,1.7,0.7l0,0h4.5l0,0c0.6,0,1.2-0.3,1.7-0.7
	c0.4-0.4,0.7-1.1,0.7-1.7l0,0V7l0,0c0-0.5-0.1-0.9-0.4-1.3C9.5,5.3,9.1,5,8.8,4.8V4.2c0-0.9-0.3-1.7-1-2.3c-0.6-0.6-1.4-1-2.3-1
	s-1.7,0.3-2.3,1c-0.6,0.6-1,1.5-1,2.3v0.6C1.9,5,1.5,5.3,1.3,5.7C1,6,0.9,6.5,0.9,7z M3.3,4.2c0-0.6,0.2-1.1,0.6-1.6
	C4.4,2.2,4.9,2,5.5,2S6.6,2.2,7,2.7c0.4,0.4,0.6,1,0.6,1.6v0.4H3.3V4.2z M9,9.7c0,0.3-0.1,0.7-0.4,0.9C8.4,10.8,8.1,11,7.8,11H3.2
	c-0.3,0-0.6-0.1-0.9-0.4C2.1,10.4,2,10,2,9.7V7c0-0.3,0.1-0.7,0.4-0.9C2.6,5.9,3,5.7,3.3,5.7h4.5c0.3,0,0.6,0.1,0.9,0.4
	C8.9,6.3,9,6.6,9,7V9.7z M5.5,7.3c-0.1,0-0.3,0.1-0.4,0.2S4.9,7.7,4.9,7.9v0.9c0,0.1,0.1,0.3,0.2,0.4c0.1,0.1,0.2,0.2,0.4,0.2
	s0.3-0.1,0.4-0.2s0.2-0.3,0.2-0.4V7.9c0-0.1-0.1-0.3-0.2-0.4S5.6,7.3,5.5,7.3z"/>
</svg>
